<svg xmlns="http://www.w3.org/2000/svg" viewBox="0 0 204.16 285.23"><defs><style>.cls-1{fill:#005f48;}</style></defs><g id="圖層_2" data-name="圖層 2"><g id="圖層_1-2" data-name="圖層 1"><path class="cls-1" d="M201.49,139.26c-2.36,1.89-4.35,4.19-6.71,6.08a40.67,40.67,0,0,1-7.77,4.58c-2.71,1.31-5.48,2.52-8.12,4s-5,3-7.38,4.56a105,105,0,0,0-13.78,10.7,71.19,71.19,0,0,0-11.29,13.67c-1.66,2.58-3.23,5.21-4.8,7.85l-6,2.32c-5.56,2.13-11.2,4.08-16.4,7-10.31,5.8-18.69,14.24-26.26,23.22-.66.78-1.31,1.56-1.95,2.36a298.56,298.56,0,0,0,20.29-53.44c2.73-9.85,4.91-19.84,6.72-29.89.89-4.94,1.83-9.87,2.46-14.85.33-2.54.51-5.08.6-7.61.48-2.52,1.07-5,1.74-7.48a36.17,36.17,0,0,1,5-11.27c4.15-6,10.66-10.57,18.06-11.23a35.12,35.12,0,0,1,7.32,0,15,15,0,0,1,3,.8A17.64,17.64,0,0,0,152,93.45a14.12,14.12,0,0,0-3.2,4c-.84,1.66-1.6,3.47-.28,5.09a1.34,1.34,0,0,0,1.32.35,11.48,11.48,0,0,0,4.39-2.54c1-.88,2.06-1.78,3.07-2.7a15.35,15.35,0,0,0-.91,3.91,12.2,12.2,0,0,0,1,5.52c.73,1.85,1.55,3.68,2.34,5.51s1.84,3.75,2.48,5.74a4.6,4.6,0,0,1,.3,2.4,20.33,20.33,0,0,1-1.1,2.8,2.46,2.46,0,0,0,.19,2.67,2.33,2.33,0,0,0,2.18.52,25.21,25.21,0,0,0,4.73-1.56,29,29,0,0,0,5.42-2.67c.58-.36,1.14-.76,1.69-1.16a9.39,9.39,0,0,0,1,2.45,20.37,20.37,0,0,0,1.22,1.68,4.81,4.81,0,0,0,0,3.24,2.33,2.33,0,0,0,1.29,2.33,2.9,2.9,0,0,0,3.43-.95,4.33,4.33,0,0,0,1.72-4.16,2.26,2.26,0,0,0-1.33-1.61,2.62,2.62,0,0,0-2.2.18l-.08,0a9.34,9.34,0,0,0-.86-1.2l-.21-.26-.06-.08a6.61,6.61,0,0,1-.37-.55q-.15-.24-.27-.48l-.1-.22,0,0c-.14-.42-.27-.84-.38-1.27a1.39,1.39,0,0,0-.56-.77l1.13-.92c3.24-2.68,6.39-5.46,9.59-8.18.69-.58,1.57-1.36,1.57-2.35s-1.17-1.77-2.13-2a6.86,6.86,0,0,1-4-1.87,4.83,4.83,0,0,1-.4-.66,5.17,5.17,0,0,1-.33-.86c-.27-.87-.53-1.74-.87-2.59a22.86,22.86,0,0,0-2.79-5.2,15.16,15.16,0,0,0-8.65-6,11.42,11.42,0,0,0-3.19-.32c.86-.71,1.7-1.45,2.51-2.24a9.83,9.83,0,0,0,2.86-4.5,5.27,5.27,0,0,0-.57-4.18,3.13,3.13,0,0,0-4.7-.49,10.83,10.83,0,0,0-1.53,2c-.59.86-1.11,1.77-1.62,2.68-1.08,1.91-2.15,3.81-3.25,5.71l-.95,1.69a43.39,43.39,0,0,0-5.91-1.84,31.26,31.26,0,0,0-7-.22,26.11,26.11,0,0,0-12,3.51c-7.06,4.15-11.76,11.24-14.07,19-.12.38-.22.76-.33,1.14-.11-4.71-.27-9.43-.18-14.14.1-5.08.42-10.17.8-15.22A198.56,198.56,0,0,1,126.41,52c2.08-9,4.69-18.12,8.75-26.4,1.89-3.86,4.26-7.93,7.73-10.59a46,46,0,0,1,5.75-3.48,39.6,39.6,0,0,1,6.47-3.26,12,12,0,0,1,3.75-.53,21.73,21.73,0,0,0-3.9,3.39,14.34,14.34,0,0,0-3.24,5.48,4.07,4.07,0,0,0-.15,2.89,2.28,2.28,0,0,0,.87.9,1.47,1.47,0,0,0,1.71,0,17,17,0,0,0,3.83-3.5,18.57,18.57,0,0,0,.89,6.14,10.66,10.66,0,0,1,.36,5.54,7.67,7.67,0,0,1-1,2.48,3.86,3.86,0,0,0-.74,2.64c.25,1.75,2,2.58,3.64,2.62a9.13,9.13,0,0,0,3.06-.58c1.05-.36,2.09-.72,3.13-1.1a34.17,34.17,0,0,0,5-2.34,1.24,1.24,0,0,0,.38.9c.55.54,1.08,1.1,1.63,1.65.31.31.64.61,1,.91a5.65,5.65,0,0,0-.29.67,3.11,3.11,0,0,0,0,2A2.69,2.69,0,0,0,178.44,40a3.87,3.87,0,0,0,2-2.61,3,3,0,0,0-.49-2.87,2.16,2.16,0,0,0-2.45-.34l-.12-.09-.11-.08-.4-.37c-.28-.26-.56-.53-.82-.8l-1.58-1.62a1.61,1.61,0,0,0-.3-.21,43.71,43.71,0,0,0,4.06-3c3.47-2.86,6.75-6.61,6.89-11.35a1.4,1.4,0,0,0-.7-1.23,3.57,3.57,0,0,0-2.93.09,4.13,4.13,0,0,1-2.71,0,11.58,11.58,0,0,1-2.49-1.24c-.9-.54-1.8-1-2.69-1.6-1.71-1-3.18-2.44-4.94-3.42a15.14,15.14,0,0,0-1.46-.71l1-.45a17.64,17.64,0,0,0,5.4-3.57,3.6,3.6,0,0,0,1.19-2.36,2.29,2.29,0,0,0-2-2.09c-2.12-.46-4.14,1-5.8,2.09-1.08.73-2.2,1.38-3.26,2.14-.34.24-.66.48-1,.74a1.39,1.39,0,0,0-.73-.2c-2.33,0-4.69-.24-7,.37a28.37,28.37,0,0,0-6.36,2.92c-3.93,2.23-7.9,4.2-10.83,7.76-5.64,6.85-8.6,15.7-11.19,24.06a198.87,198.87,0,0,0-6.38,29.25A206.1,206.1,0,0,0,118,99.82c0,5.2.24,10.4.29,15.6A94.35,94.35,0,0,1,117.14,131c-1.6,10.23-3.58,20.44-6,30.51a294.75,294.75,0,0,1-17.56,52.33c1-3.62,2-7.27,2.89-10.94a271.6,271.6,0,0,0,6.36-46.3c.23-3.83.5-7.67.53-11.51a92.8,92.8,0,0,0-.61-11.19,67.28,67.28,0,0,0-1.92-10.55c-.13-1.53-.25-3.07-.33-4.61-.23-4.54-.24-9.09-.42-13.64s-.56-9-1-13.42-.9-8.88-1.57-13.29a121.74,121.74,0,0,0-2.68-12.94,76.7,76.7,0,0,0-4.27-12.58c-.88-1.93-1.86-3.82-2.85-5.69A33.59,33.59,0,0,0,85,42.68a17.55,17.55,0,0,0-8.9-6.74c-4.25-1.25-8.68.11-12.55,1.94a14.53,14.53,0,0,0-4.89,3.58c-.66.75-1.26,1.56-1.87,2.35A23.14,23.14,0,0,0,55,46.22l-.13.22a6.67,6.67,0,0,0-1.67-1.18,13.69,13.69,0,0,0-4.11-1.2c-2.51-.36-5.29-.37-7.58.89-1.13.63-2.11,2.55-.63,3.43a11.8,11.8,0,0,0,4,1.18l1.31.18a17.69,17.69,0,0,0-7.17,5A12.31,12.31,0,0,0,37,58.1,31.24,31.24,0,0,0,35.77,62c-.29,1.15-.56,2.3-.81,3.47a11.28,11.28,0,0,1-.87,2.78,5.45,5.45,0,0,1-2.64,2.17,15.52,15.52,0,0,1-1.9.88,2.85,2.85,0,0,0-1.8,1.15,1.45,1.45,0,0,0,.51,2,8.9,8.9,0,0,0,3.31,1.08c1.19.26,2.39.48,3.58.75A48.07,48.07,0,0,1,40,77.68a.85.85,0,0,0-.09.24c-.25.91-.48,1.83-.66,2.75a3.81,3.81,0,0,1-.08.41h0a7.12,7.12,0,0,0-.76.31,3.62,3.62,0,0,0-1.91,4.28,3.55,3.55,0,0,0,3.59,2.7,3.65,3.65,0,0,0,2.51-1.14,2.63,2.63,0,0,0,.32-3,3.47,3.47,0,0,0-1.43-1.36,2.58,2.58,0,0,0,.33-.56,5.92,5.92,0,0,0,.28-1.1c.18-.85.39-1.69.61-2.53,0,0,0-.06,0-.09,2.19.75,4.41,1.39,6.66,2,1.15.3,2.36.54,3.49.94a9.27,9.27,0,0,0,2.86,1A1.47,1.47,0,0,0,57.15,81c.1-2.11-1.26-4-1.29-6.11A4.49,4.49,0,0,1,57,72.22c.64-.89,1.25-1.77,1.81-2.71a47.3,47.3,0,0,0,3.31-5.33,15.22,15.22,0,0,0,1-3c.74.58,1.5,1.14,2.27,1.68a4,4,0,0,0,3.4.89,2.76,2.76,0,0,0,1.67-3.47A9.47,9.47,0,0,0,68.61,57a36.54,36.54,0,0,0-6.2-6,16.22,16.22,0,0,0-5.1-2.89c.1-.19.22-.4.33-.58.27-.43.57-.84.88-1.24A26.48,26.48,0,0,1,62,42.14a17.13,17.13,0,0,1,5.13-2.69,15.64,15.64,0,0,1,5.72-1.14c3.6.08,6.74,2.31,9,5s3.91,6.17,5.48,9.38a67.67,67.67,0,0,1,4.32,11.87,125.45,125.45,0,0,1,2.82,12.54c.71,4.19,1.21,8.42,1.65,12.65s.87,8.64,1.12,13c.23,4,.34,7.93.49,11.89-.16-.32-.32-.64-.49-1-3.1-5.75-9.39-10.34-16.17-9.34-3.39.49-6.19,2.56-8.62,4.85a46.46,46.46,0,0,0-6.9,8.17,16.23,16.23,0,0,1-2.9,3.5c-1,.8-2.43.35-3.58-.06-2.46-.86-5.07-2.34-7.76-2.15a3.73,3.73,0,0,0-3.5,2.63,3.6,3.6,0,0,0,.41,2.61,14.09,14.09,0,0,0-8.8,7.86c-.81,2.05-1.07,4.26-1.77,6.35a8.34,8.34,0,0,1-3,4.39,8.8,8.8,0,0,1-3.49,1.2,36.92,36.92,0,0,0-4.2.6,1.44,1.44,0,0,0-.86,2.09,5.85,5.85,0,0,0,2.37,2.06c1.07.66,2.14,1.31,3.23,1.94a71.59,71.59,0,0,1,6.46,4.49,58.49,58.49,0,0,0,6.47,4.06.13.13,0,0,0,0,.06,27.61,27.61,0,0,1-.53,2.88c0,.23-.08.46-.11.7a.65.65,0,0,1,0,.11l0,0-.23.1-.35.15a3.54,3.54,0,0,0-1.82,4.85,4.4,4.4,0,0,0,4.58,2c2.12-.56,2.47-3.12,1.62-4.83a4.15,4.15,0,0,0-1.07-1.34c0-.11.07-.22.09-.33.13-.81.39-1.9.56-3,1.74.87,3.51,1.67,5.3,2.43a38.71,38.71,0,0,0,7.57,2.67,14.17,14.17,0,0,0,4.11.2,14.74,14.74,0,0,1,1.75-.14,6.93,6.93,0,0,0,1.51,0,2.09,2.09,0,0,0,1.36-1c.48-.83-.12-1.72-.47-2.48a10.13,10.13,0,0,1-.85-3.38,16.1,16.1,0,0,1,0-3.8,14.34,14.34,0,0,1,1-3.28c1-2.6,2.5-5,3.17-7.75.36-1.48.55-3,.79-4.52a17,17,0,0,0,.24-2.25c0-.31,0-.62,0-.93a2.69,2.69,0,0,0,2.77-1.17,4.07,4.07,0,0,0,.17-3.46,8,8,0,0,0-2.41-3.09c-1.07-.89-2.14-1.79-3.21-2.67a24.78,24.78,0,0,0-3.77-2.6,12.31,12.31,0,0,0-1.21-.59,15.2,15.2,0,0,0,1.21-1.35c1-1.24,1.85-2.61,2.76-3.92a36.65,36.65,0,0,1,3.17-3.76c2.07-2.24,4.42-4.7,7.34-5.81,5.78-2.21,11.85,1.75,14.75,6.65a36.88,36.88,0,0,1,3.37,8.47c.37,1.26.69,2.53,1,3.81.11.9.22,1.8.34,2.7.15,1.1.3,2.21.46,3.31a.92.92,0,0,0,.35.61,97.73,97.73,0,0,1,.7,10.12c.06,3.7-.19,7.39-.38,11.09-.41,7.48-.89,15-1.8,22.41-.88,7.28-2.12,14.53-3.61,21.71s-3.42,14.27-5.54,21.3c-.86,2.87-1.75,5.75-2.7,8.6-3.11,6.09-6.3,12.13-9.37,18.23l-.23.45c.07-.27.13-.53.19-.8,1.17-5.14,2-10.35,3-15.54,1-5.53,1.94-11.07,2.7-16.65s1.14-11,1.34-16.5c.19-4.89,1.06-9.8.17-14.67-.69-3.86-2.54-8.26-6.53-9.68s-8.23,1.23-11.23,3.67c-1.7,1.38-3.26,2.91-5,4.29a60.68,60.68,0,0,1-5.91,4.26,53.11,53.11,0,0,1-13.49,6.16c-9.73,2.83-19.88,2.86-29.92,3.06a38.66,38.66,0,0,0-7,.65c-1.69.35-3.9.83-4.8,2.49-1.59,2.93,1.81,6.36,3.67,8.25,3.23,3.27,7.21,5.66,11.14,8a31.35,31.35,0,0,0,6.44,3,25.34,25.34,0,0,0,7,1,53.09,53.09,0,0,0,14.83-1.94A51,51,0,0,0,57,210.63c.86-.52,1.68-1.07,2.48-1.65-.25,4.69-1,9.35-1.06,14a38.71,38.71,0,0,0,.67,7.75c.45,2.41,1.08,4.78,1.57,7.19s.8,5,1.06,7.58.64,5,.81,7.51a35.65,35.65,0,0,1-.16,7.08C62,262.62,61.15,265,61,267.55c-.22,2.84.12,5.7,0,8.55-.07,1.33-.29,2.63-.48,3.95a6.33,6.33,0,0,0-.06.78c-.18.87-.36,1.75-.53,2.62a1.45,1.45,0,0,0,2.63,1.11,4.27,4.27,0,0,0,.68-2.31c2.09-4.75,4.27-9.46,6.49-14.14a137.44,137.44,0,0,0,10.53-9.52c4.6-4.64,9.38-9.09,14.25-13.44s9.76-8.52,14.7-12.72,9.84-8.1,14.24-12.69c2.19-2.29,4.22-4.73,6.32-7.11s4.22-4.84,6.11-7.43c2.86-3.92,5.36-8.1,7.84-12.28q4.57-1.78,9.13-3.67c5.76-2.4,11.46-5,17-7.83a94.08,94.08,0,0,0,15.77-9.86c2.39-1.91,4.65-4,6.86-6.09a57.35,57.35,0,0,0,5.86-6.32,29.14,29.14,0,0,0,5.84-15.25,14.6,14.6,0,0,0-.22-4C203.67,138.73,202.25,138.65,201.49,139.26Zm-34.27-56c.44-.77.89-1.53,1.38-2.27.22-.33.45-.66.69-1,.11-.15.45-.49.51-.58l0,0s.18,0,.12,0a.27.27,0,0,1,.16.08l.07.13a1.86,1.86,0,0,1,.1.25,2.68,2.68,0,0,1,.07.27.09.09,0,0,0,0,.05,2.71,2.71,0,0,1,0,.29,3.12,3.12,0,0,1,0,.43V81s0,0,0,.07a5.38,5.38,0,0,1-.25.87A6.1,6.1,0,0,1,169,83.68a31,31,0,0,1-4.1,3.75l-.11.08ZM159.4,99a11,11,0,0,1,3.23-5.07l.16-.18.37-.26a12.65,12.65,0,0,1,3.56-1.64,9.15,9.15,0,0,1,6.44,1.23,13.5,13.5,0,0,1,5,5.11,21.35,21.35,0,0,1,1.66,3.48,28.06,28.06,0,0,0,1.3,3.6,6.58,6.58,0,0,0,2.73,2.65,10.3,10.3,0,0,0,2.27.89l.13,0-.83.73c-.9.81-1.82,1.61-2.75,2.39-1.76,1.47-3.51,3-5.28,4.44a46.59,46.59,0,0,1-5.34,4,30,30,0,0,1-5.72,2.66c-.67.24-1.34.47-2,.69a9.76,9.76,0,0,0,.94-2.67,7.27,7.27,0,0,0-.38-3.33,66.29,66.29,0,0,0-2.87-6.45c-.87-1.93-1.83-3.86-2.52-5.86A10.27,10.27,0,0,1,159.4,99Zm-1.08-6.29a1.13,1.13,0,0,1-.1.13,45.81,45.81,0,0,1-4.48,4.33,21.21,21.21,0,0,1-2.85,2.37,14.61,14.61,0,0,1,.72-1.36,12,12,0,0,1,2.53-2.88,15.11,15.11,0,0,1,3.18-2.19A7.19,7.19,0,0,1,158.32,92.7Zm7.43-86.48c1.08-.75,2.2-1.45,3.3-2.18a7.31,7.31,0,0,1,2.79-1.36.12.12,0,0,1-.05,0,11.75,11.75,0,0,1-2.61,2.05A20.53,20.53,0,0,1,165,6.83l-.27.1C165.08,6.68,165.42,6.45,165.75,6.22ZM160,32.75c.17-.37.45-.7.65-1.05a9,9,0,0,0,.91-2.56,11.05,11.05,0,0,0-.1-5.27c-.51-2-1.32-4-1.41-6.09a13.61,13.61,0,0,1,1.21-6h0c.3-.58.59-1.17.87-1.75a1.15,1.15,0,0,0,.54.4,4.81,4.81,0,0,0,1.46.15,3.73,3.73,0,0,1,1.26.33A13.24,13.24,0,0,1,167.71,12c1.68,1,3.15,2.35,4.85,3.36a31.43,31.43,0,0,0,5.14,2.77,7.25,7.25,0,0,0,3.09.43,6.76,6.76,0,0,0,1.27-.23c-.65,2.73-2.64,5-4.68,6.89a35.16,35.16,0,0,1-9.23,6.24,40.79,40.79,0,0,1-5.47,2,4.84,4.84,0,0,1-1.89.25,2,2,0,0,1-.68-.22c-.16-.09-.22-.11-.26-.25a.71.71,0,0,0,0-.14A1.6,1.6,0,0,1,160,32.75ZM159.6,9.87c-.2.39-.39.79-.6,1.18a20.29,20.29,0,0,1-5.3,6.84,11.09,11.09,0,0,1,.41-1.47,12.94,12.94,0,0,1,1.78-3A18.57,18.57,0,0,1,159.6,9.87ZM45.49,46.76a10.93,10.93,0,0,1,2.68.05,14.11,14.11,0,0,1,2.57.52c-.88-.06-1.76-.14-2.64-.25S46.36,46.89,45.49,46.76Zm17,8a34.33,34.33,0,0,1,3.83,3.89,10.48,10.48,0,0,1,1.3,2,1.12,1.12,0,0,1,.08.18l-.23-.12c-.3-.18-.59-.38-.87-.58-.67-.48-1.34-1-2-1.48a22.23,22.23,0,0,1-1.67-1.54,1.28,1.28,0,0,0-.67-.7,19.75,19.75,0,0,1-1.5-1.89c-.57-.81-1.13-1.63-1.69-2.45A26.68,26.68,0,0,1,62.48,54.8Zm-2.25,3.63a5.75,5.75,0,0,1,.12,2.22,12.67,12.67,0,0,1-1.05,2.81c-1,1.9-2.32,3.59-3.44,5.4S53,72.44,53,74.89a13.1,13.1,0,0,0,.67,3.45c0,.16.09.31.14.46a3.21,3.21,0,0,0-.33-.12c-1.17-.38-2.39-.65-3.58-1-2.34-.59-4.63-1.27-6.91-2a68.07,68.07,0,0,0-6.82-2.12c-1.08-.25-2.16-.46-3.24-.68l.07,0a8.4,8.4,0,0,0,2.91-2.23c1.31-1.7,1.59-3.82,2-5.85.52-2.37.94-5,2.22-7.14A13.85,13.85,0,0,1,45,53a15.22,15.22,0,0,1,7.4-2.1,1.06,1.06,0,0,0,.92-.48c.23,0,.47.08.7.14l0,0,0,0,.3.19.08.07.24.22a8.39,8.39,0,0,1,.56.63c.54.66,1.06,1.53,1.58,2.27A53.26,53.26,0,0,0,60.23,58.43Zm-9.5,63.29a.93.93,0,0,1,.66-.26c-.2,0,.15,0,.19,0H52a3.63,3.63,0,0,1,.66.1,13.41,13.41,0,0,1,1.65.45c1.36.43,2.65,1,4,1.5l.38.13a14.94,14.94,0,0,1-4.19.69,4.83,4.83,0,0,1-3.5-1.53,1.58,1.58,0,0,1-.41-.82C50.62,121.91,50.8,121.65,50.73,121.72ZM67.18,127c1,.7,1.85,1.51,2.76,2.27a27.17,27.17,0,0,1,2.23,1.92,3.72,3.72,0,0,1,.79,1.06,2.38,2.38,0,0,1,.15.45s0,0,0,.06,0,.2,0,.3v.15l-.34-.13a9.19,9.19,0,0,1-2.06-1.44c-.81-.66-1.63-1.28-2.38-2a11.66,11.66,0,0,1-2.28-3,5.93,5.93,0,0,1-.31-.68C66.27,126.35,66.75,126.69,67.18,127Zm-1.1,4.43A36.31,36.31,0,0,0,69,133.9l.9.72A2,2,0,0,0,70,135c-.08.76-.08,1.51-.11,2.28a26.73,26.73,0,0,1-.44,2.94,23,23,0,0,1-1.59,5.92c-.79,1.77-1.7,3.51-2.35,5.35a15,15,0,0,0-.8,5.86,21.51,21.51,0,0,0,.44,3.67,8.94,8.94,0,0,0,.51,1.51c-.59,0-1.18.12-1.76.17a11.69,11.69,0,0,1-4.24-.47,59.46,59.46,0,0,1-8.52-3.38A87,87,0,0,1,43,154.57c-2.55-1.53-4.83-3.41-7.25-5.13-1.33-.94-2.78-1.69-4.18-2.52l-.64-.39.44-.06a14.08,14.08,0,0,0,3.67-1A9.11,9.11,0,0,0,39.44,141a28,28,0,0,0,1.9-6.2,10.82,10.82,0,0,1,2.73-5.51,12.63,12.63,0,0,1,6.15-3.42h0a8.39,8.39,0,0,0,4.07,1.32,16.3,16.3,0,0,0,5-.73c.76-.19,1.54-.35,2.28-.61a6.33,6.33,0,0,0,1-.42,16,16,0,0,0,1,2.61A13.8,13.8,0,0,0,66.08,131.44Zm-29.5,83.23c-4.43.69-9.31,1-13.67-.26s-8.31-3.93-12-6.43a24.9,24.9,0,0,1-7.38-7,4.81,4.81,0,0,1-.61-1.44c0-.17,0-.2,0-.29a1.48,1.48,0,0,1,.54-.39,17.62,17.62,0,0,1,6-1.14c4.52-.31,9.06-.15,13.59-.37a99.71,99.71,0,0,0,14.62-1.63,58.68,58.68,0,0,0,25.15-11.8c3.15-2.49,5.94-5.73,9.66-7.41a5.71,5.71,0,0,1,5-.25,5.44,5.44,0,0,1,1.68,1.42c-1.17.63-2.37,1.19-3.53,1.85a36,36,0,0,0-4.69,3.25c-1.54,1.23-3,2.56-4.52,3.82s-3.18,2.52-4.84,3.69c-3.27,2.31-6.68,4.44-10.11,6.51a81.44,81.44,0,0,1-10.87,5.89c-4.36,1.79-9,2-13.67,2a.66.66,0,0,0,0,1.32c4.14,0,8.35-.11,12.32-1.39A55.74,55.74,0,0,0,50.42,199c3.54-2.11,7.06-4.25,10.46-6.57a121.54,121.54,0,0,0,9.61-7.5A39.09,39.09,0,0,1,75.88,181c.87-.51,1.77-.93,2.67-1.37a10.37,10.37,0,0,0,1.35-.75,12,12,0,0,1,.67,1.41,17.26,17.26,0,0,1,1,4.19,1.5,1.5,0,0,0-1.68,1.6A48.17,48.17,0,0,1,76,189.1c-1.8,1.54-3.4,3.3-5.22,4.81a36.62,36.62,0,0,0-5,5,47.13,47.13,0,0,1-4.58,5C54.49,210,45.51,213.28,36.58,214.67Zm30.69,50.21a.35.35,0,0,0,0,.08c.67-3.64,1.09-7.33,1.45-11a211.24,211.24,0,0,0,1.19-27.89c-.18-5.3-.57-10.58-.89-15.87,0-.92-1.49-.92-1.44,0,.56,9.34,1.26,18.65.81,28-.22,4.63-.51,9.25-.93,13.86a128.35,128.35,0,0,1-1.74,13.39c-.16.8-.34,1.59-.53,2.38a12.16,12.16,0,0,1-1.37,1.31,16.54,16.54,0,0,1,.19-2.63c.19-1.22.5-2.42.76-3.63a33.42,33.42,0,0,0,.73-7.4,70.94,70.94,0,0,0-.63-7.42c-.29-2.69-.53-5.39-.93-8.06-.74-4.95-2.43-9.73-2.61-14.76-.22-5.87.9-11.69,1.1-17.55a1.34,1.34,0,0,0-.23-.83,46.1,46.1,0,0,0,5.51-5.66A40.29,40.29,0,0,1,73,195.83c1.88-1.58,3.5-3.46,5.42-5,1.15-.91,2.36-1.68,3.39-2.66,0,1.49-.13,3-.25,4.49-.42,5.08-.4,10.18-.9,15.25-1,10.43-3,20.79-5,31.07C74,247.85,71.89,257,67.27,264.88Zm69.17-65.7a80.81,80.81,0,0,1-5.63,7.77c-2.05,2.47-4.23,4.84-6.33,7.26a125.35,125.35,0,0,1-13.65,13c-4.93,4.19-9.88,8.37-14.75,12.64s-9.77,8.69-14.46,13.25c-2.8,2.72-5.56,5.45-8.42,8.09.22-.5.42-1,.62-1.5a1.18,1.18,0,0,0,1.3-.71l.77-1.86a.57.57,0,0,0,.77-.32,62.86,62.86,0,0,1,4.89-8.88,75.19,75.19,0,0,1,6.92-8.51c2.49-2.73,5.11-5.33,7.68-8s5-5.28,7.72-7.72c3.06-2.75,6.56-5,9.58-7.77.55-.5-.25-1.27-.8-.81-2.86,2.41-6,4.39-8.89,6.8A106.09,106.09,0,0,0,96,229.57c-4.9,5.11-10.07,10.06-14.3,15.77a0,0,0,0,1,0,0l0,0a79.89,79.89,0,0,0,4.25-8.73,97.16,97.16,0,0,1,7-9.35c7.54-9.08,15.91-17.77,26.12-23.84,5.17-3.08,10.75-5.09,16.35-7.23l3.91-1.5C138.35,196.15,137.41,197.68,136.44,199.18Zm63.89-50.67a26.59,26.59,0,0,1-3.18,7.31,40.22,40.22,0,0,1-5.48,6.38c-2.14,2.1-4.32,4.15-6.61,6.08a86.6,86.6,0,0,1-15.44,10c-5.45,2.9-11.07,5.48-16.76,7.87-1.23.52-2.46,1-3.7,1.53,8.49-7.06,17.18-13.93,26.88-19.25a85.75,85.75,0,0,1,9.23-4.41c.69-.28.41-1.41-.31-1.14-11.57,4.36-21.72,11.54-31.29,19.25-2.37,1.9-4.7,3.84-7,5.78a79.62,79.62,0,0,1,10-13.65A88.32,88.32,0,0,1,169.9,163,103.19,103.19,0,0,1,185,154c2.72-1.29,5.46-2.53,8.05-4.07a38.62,38.62,0,0,0,7.1-5.64l1.13-1.07A22.62,22.62,0,0,1,200.33,148.51Z"/></g></g></svg>