<svg xmlns="http://www.w3.org/2000/svg" viewBox="0 0 45 44.04"><defs><style>.cls-1{fill:#6fb400;}</style></defs><g id="圖層_2" data-name="圖層 2"><g id="圖層_1-2" data-name="圖層 1"><path class="cls-1" d="M23.88,3c1.63,3,3.57,4.81,7.5,5,7.77.42,13.07,6,13.59,12.85.21,2.75-.82,3.68-3.52,3.49A15.47,15.47,0,0,1,27.27,12.53a8.1,8.1,0,0,0-3-4.92Z"/><path class="cls-1" d="M23.18,5a34.65,34.65,0,0,0-3.28,6.35C17.38,18.53,9.07,23.17,1.71,21.55-.1,21.15-.41,20.21.49,18.78,4.5,12.42,9.31,7.17,17.6,7.13A2.94,2.94,0,0,0,20.81,4.6c.34-1.47.54-3,.85-4.45Z"/><path class="cls-1" d="M20.27,1.53c-.59-.2.18-1.36,1-1.51s1.12.52,1.47,1.05a21.3,21.3,0,0,1,1.16,2,7.5,7.5,0,0,1,.41,4.59c.53,3.9,1.22,7.4,1.13,11a5.37,5.37,0,0,0,1,3.34c3.16,4.47,2.86,9.13.59,13.82a30.28,30.28,0,0,1-5,7.17c-1.4,1.54-2.61,1.62-3.24-.55C16.57,34.62,15.61,27,22.12,20.59a3.89,3.89,0,0,0,1.1-2.93A42.51,42.51,0,0,0,21.8,6.34S21.87,2.08,20.27,1.53Z"/></g></g></svg>