<?xml version="1.0" encoding="utf-8"?>
<!-- Generator: Adobe Illustrator 16.0.0, SVG Export Plug-In . SVG Version: 6.00 Build 0)  -->
<!DOCTYPE svg PUBLIC "-//W3C//DTD SVG 1.1//EN" "http://www.w3.org/Graphics/SVG/1.1/DTD/svg11.dtd">
<svg version="1.1" id="圖層_1" xmlns="http://www.w3.org/2000/svg" xmlns:xlink="http://www.w3.org/1999/xlink" x="0px" y="0px"
	 width="300px" height="300px" viewBox="0 0 300 300" enable-background="new 0 0 300 300" xml:space="preserve">
<path fill="#3A3A3A" d="M249.408,146.644c-2.359,1.892-4.346,4.194-6.705,6.084c-2.34,1.876-5.082,3.27-7.771,4.573
	c-2.711,1.313-5.475,2.527-8.119,3.977c-2.533,1.389-4.979,2.962-7.385,4.556c-4.85,3.208-9.523,6.726-13.777,10.696
	c-4.365,4.077-8.057,8.66-11.289,13.674c-1.664,2.579-3.234,5.213-4.803,7.851c-2.004,0.779-4.01,1.553-6.018,2.32
	c-5.555,2.128-11.2,4.08-16.4,7.007c-10.311,5.802-18.693,14.239-26.258,23.218c-0.657,0.779-1.307,1.567-1.952,2.36
	c8.525-17.117,15.181-34.998,20.291-53.438c2.729-9.85,4.909-19.834,6.723-29.89c0.892-4.939,1.831-9.868,2.462-14.848
	c0.322-2.542,0.507-5.076,0.598-7.614c0.479-2.517,1.064-5.014,1.734-7.481c1.088-4.01,2.621-7.83,4.99-11.263
	c4.15-6.015,10.664-10.577,18.066-11.232c2.387-0.21,4.932-0.308,7.314-0.011c1.049,0.131,2.041,0.458,3.033,0.799
	c-1.543,0.71-2.939,1.728-4.205,2.852c-1.289,1.144-2.418,2.5-3.201,4.042c-0.84,1.653-1.605,3.465-0.281,5.086
	c0.301,0.367,0.889,0.462,1.322,0.35c1.678-0.438,3.076-1.44,4.385-2.541c1.039-0.876,2.064-1.782,3.074-2.699
	c-0.477,1.251-0.783,2.571-0.91,3.914c-0.18,1.885,0.303,3.772,0.984,5.516c0.729,1.854,1.549,3.683,2.344,5.508
	c0.832,1.909,1.836,3.755,2.479,5.741c0.248,0.779,0.475,1.586,0.301,2.407c-0.207,0.986-0.748,1.856-1.104,2.791
	c-0.33,0.859-0.525,1.946,0.189,2.677c0.592,0.604,1.4,0.648,2.188,0.514c1.602-0.275,3.223-0.968,4.73-1.553
	c1.881-0.729,3.721-1.578,5.42-2.669c0.576-0.369,1.135-0.764,1.689-1.167c0.221,0.851,0.506,1.692,0.953,2.452
	c0.387,0.66,0.842,1.141,1.227,1.676c-0.377,1.002-0.387,2.225-0.002,3.248c-0.029,0.953,0.324,1.881,1.285,2.331
	c1.268,0.592,2.574,0.022,3.43-0.953c1.252-0.937,2.059-2.664,1.719-4.161c-0.164-0.727-0.637-1.322-1.322-1.612
	c-0.73-0.308-1.51-0.161-2.199,0.177c-0.031,0.015-0.059,0.034-0.088,0.048c-0.24-0.431-0.553-0.819-0.859-1.205
	c-0.068-0.087-0.139-0.171-0.207-0.258c-0.018-0.022-0.043-0.056-0.063-0.082c-0.127-0.181-0.254-0.363-0.371-0.553
	c-0.094-0.156-0.186-0.316-0.266-0.48c-0.037-0.073-0.07-0.146-0.105-0.22c-0.004-0.012-0.006-0.019-0.014-0.037
	c-0.146-0.417-0.271-0.837-0.379-1.266c-0.08-0.316-0.289-0.586-0.559-0.777c0.377-0.303,0.752-0.609,1.123-0.917
	c3.24-2.677,6.393-5.454,9.592-8.174c0.688-0.583,1.572-1.368,1.572-2.35c0-1.125-1.174-1.779-2.133-1.974
	c-1.492-0.304-3.047-0.732-4.016-1.873c-0.098-0.114-0.256-0.375-0.404-0.662c-0.125-0.246-0.213-0.505-0.324-0.853
	c-0.277-0.872-0.535-1.744-0.871-2.595c-0.727-1.833-1.621-3.602-2.791-5.193c-2.15-2.928-5.08-5.13-8.654-5.984
	c-1.039-0.248-2.121-0.371-3.191-0.318c0.861-0.717,1.707-1.453,2.512-2.242c1.273-1.25,2.43-2.736,2.857-4.503
	c0.326-1.351,0.271-3.007-0.561-4.173c-1.131-1.584-3.26-1.776-4.705-0.492c-0.611,0.543-1.074,1.295-1.531,1.967
	c-0.59,0.864-1.111,1.772-1.621,2.682c-1.076,1.905-2.152,3.809-3.244,5.705c-0.322,0.559-0.635,1.128-0.957,1.695
	c-1.949-0.658-3.895-1.469-5.908-1.84c-2.303-0.424-4.707-0.335-7.037-0.218c-4.26,0.217-8.336,1.34-12.023,3.508
	c-7.061,4.15-11.755,11.234-14.072,18.969c-0.113,0.378-0.22,0.76-0.327,1.142c-0.11-4.715-0.274-9.43-0.179-14.146
	c0.103-5.072,0.422-10.162,0.803-15.221c0.75-9.979,2.443-19.943,4.701-29.688c2.076-8.955,4.684-18.116,8.742-26.396
	c1.895-3.864,4.262-7.933,7.729-10.594c1.781-1.368,3.807-2.383,5.758-3.475c2.098-1.172,4.174-2.494,6.463-3.261
	c1.232-0.413,2.488-0.517,3.756-0.527c-1.414,0.989-2.766,2.082-3.904,3.383c-1.361,1.556-2.711,3.464-3.242,5.486
	c-0.24,0.922-0.619,1.972-0.146,2.885c0.195,0.378,0.508,0.687,0.873,0.906c0.596,0.358,1.127,0.344,1.705-0.029
	c1.471-0.95,2.723-2.157,3.828-3.498c-0.119,2.111,0.328,4.125,0.891,6.144c0.521,1.875,0.822,3.618,0.359,5.538
	c-0.221,0.92-0.537,1.688-1.045,2.482c-0.51,0.795-0.881,1.671-0.742,2.634c0.25,1.752,2.035,2.58,3.641,2.625
	c1.037,0.029,2.088-0.259,3.061-0.585c1.047-0.352,2.092-0.717,3.125-1.1c1.73-0.64,3.385-1.434,4.975-2.339
	c0.002,0.326,0.121,0.649,0.375,0.9c0.549,0.543,1.082,1.104,1.629,1.651c0.314,0.315,0.641,0.615,0.969,0.916
	c-0.111,0.215-0.217,0.432-0.297,0.663c-0.221,0.623-0.24,1.376-0.014,2c0.521,1.438,2.068,2.301,3.539,1.68
	c1.043-0.439,1.719-1.545,2.012-2.603c0.258-0.931,0.242-2.15-0.498-2.873c-0.697-0.683-1.629-0.689-2.445-0.345
	c-0.037-0.027-0.09-0.063-0.123-0.085c-0.037-0.029-0.096-0.075-0.105-0.083c-0.141-0.118-0.273-0.242-0.406-0.366
	c-0.279-0.261-0.553-0.529-0.818-0.802c-0.531-0.536-1.047-1.083-1.58-1.616c-0.088-0.087-0.191-0.155-0.301-0.212
	c1.408-0.915,2.764-1.917,4.064-2.99c3.471-2.866,6.748-6.613,6.885-11.352c0.016-0.456-0.268-1.032-0.701-1.226
	c-1.064-0.478-1.881-0.279-2.928,0.09c-0.902,0.317-1.805,0.243-2.705-0.041c-0.893-0.28-1.699-0.765-2.496-1.246
	c-0.893-0.538-1.799-1.051-2.688-1.595c-1.713-1.049-3.18-2.442-4.938-3.422c-0.469-0.262-0.963-0.499-1.465-0.713
	c0.334-0.144,0.666-0.293,0.996-0.448c1.926-0.9,3.92-2.011,5.398-3.57c0.609-0.644,1.188-1.433,1.191-2.358
	c0.008-1.129-0.992-1.879-2.004-2.095c-2.117-0.451-4.133,0.986-5.793,2.096c-1.082,0.724-2.209,1.379-3.268,2.14
	c-0.332,0.238-0.66,0.483-0.986,0.736c-0.199-0.12-0.438-0.197-0.729-0.198c-2.328-0.007-4.691-0.243-6.971,0.371
	c-2.25,0.607-4.342,1.784-6.357,2.924c-3.934,2.224-7.906,4.2-10.83,7.754c-5.639,6.851-8.607,15.7-11.195,24.065
	c-2.952,9.543-4.903,19.377-6.381,29.248c-1.51,10.083-2.258,20.398-2.252,30.596c0.004,5.203,0.246,10.401,0.298,15.603
	c0.052,5.235-0.38,10.399-1.187,15.571c-1.6,10.229-3.572,20.442-5.989,30.51c-4.286,17.848-9.991,35.563-17.553,52.33
	c1.047-3.623,2.021-7.269,2.885-10.939c3.582-15.222,5.443-30.713,6.364-46.305c0.227-3.831,0.494-7.671,0.53-11.51
	c0.035-3.733-0.206-7.483-0.615-11.192c-0.391-3.554-0.97-7.096-1.919-10.546c-0.134-1.534-0.252-3.07-0.33-4.609
	c-0.229-4.542-0.238-9.094-0.418-13.639c-0.177-4.486-0.566-8.951-0.991-13.419c-0.423-4.441-0.905-8.878-1.57-13.291
	c-0.658-4.365-1.551-8.67-2.676-12.937c-1.133-4.299-2.416-8.538-4.274-12.586c-0.885-1.927-1.859-3.815-2.846-5.692
	c-0.816-1.552-1.697-3.076-2.738-4.49c-2.23-3.028-5.219-5.657-8.892-6.735c-4.257-1.25-8.68,0.113-12.552,1.936
	c-1.865,0.877-3.531,2.019-4.89,3.579c-0.659,0.756-1.26,1.56-1.873,2.354c-0.605,0.784-1.243,1.553-1.75,2.407
	c-0.044,0.074-0.086,0.151-0.129,0.227c-0.484-0.457-1.014-0.861-1.669-1.182c-1.301-0.637-2.683-1.003-4.112-1.207
	c-2.512-0.357-5.289-0.367-7.581,0.899c-1.131,0.625-2.106,2.549-0.625,3.424c1.172,0.693,2.692,0.967,4.018,1.177
	c0.435,0.069,0.873,0.124,1.31,0.182c-2.753,1.042-5.258,2.74-7.174,4.971c-0.882,1.027-1.605,2.132-2.113,3.388
	c-0.514,1.27-0.855,2.606-1.19,3.932c-0.291,1.153-0.564,2.306-0.818,3.467c-0.208,0.95-0.436,1.976-0.871,2.78
	c-0.587,1.086-1.521,1.61-2.637,2.176c-0.614,0.312-1.253,0.658-1.903,0.876c-0.748,0.251-1.354,0.447-1.797,1.155
	c-0.436,0.696-0.099,1.511,0.511,1.949c0.939,0.673,2.208,0.834,3.312,1.077c1.19,0.261,2.39,0.483,3.579,0.751
	c1.647,0.374,3.253,0.879,4.851,1.417c-0.037,0.076-0.069,0.156-0.093,0.242c-0.246,0.909-0.481,1.827-0.656,2.752
	c-0.006,0.028-0.047,0.25-0.079,0.411c-0.005,0.003-0.01,0.006-0.016,0.008s-0.008,0.004-0.014,0.005
	c-0.26,0.089-0.516,0.19-0.768,0.301c-1.654,0.735-2.329,2.583-1.909,4.281c0.396,1.598,1.928,2.821,3.597,2.703
	c0.915-0.065,1.901-0.417,2.506-1.135c0.724-0.86,0.872-2.017,0.324-3.012c-0.331-0.602-0.844-1.039-1.436-1.363
	c0.132-0.169,0.247-0.353,0.336-0.563c0.15-0.355,0.199-0.721,0.277-1.095c0.178-0.848,0.385-1.691,0.611-2.527
	c0.008-0.03,0.009-0.061,0.015-0.09c2.197,0.742,4.412,1.383,6.66,1.958c1.157,0.294,2.367,0.533,3.491,0.94
	c0.89,0.324,1.805,0.91,2.862,0.947c0.802,0.026,1.4-0.681,1.436-1.436c0.101-2.115-1.26-4.016-1.286-6.118
	c-0.012-1.032,0.575-1.862,1.158-2.668c0.641-0.885,1.248-1.771,1.816-2.706c1.092-1.794,2.443-3.397,3.309-5.329
	c0.43-0.961,0.818-1.971,1.034-3.006c0.742,0.583,1.499,1.148,2.274,1.684c0.979,0.676,2.188,1.269,3.4,0.893
	c1.5-0.465,2.032-2.059,1.669-3.472c-0.313-1.221-1.149-2.318-1.912-3.294c-1.756-2.249-3.955-4.273-6.196-6.033
	c-1.521-1.194-3.235-2.327-5.1-2.891c0.096-0.191,0.218-0.408,0.331-0.588c0.268-0.428,0.568-0.836,0.875-1.236
	c1.089-1.419,2.15-2.933,3.515-4.104c1.444-1.239,3.363-2.03,5.13-2.684c1.835-0.678,3.749-1.181,5.719-1.137
	c3.6,0.08,6.74,2.302,8.989,4.967c2.323,2.753,3.907,6.167,5.478,9.381c1.865,3.813,3.203,7.781,4.324,11.87
	c1.135,4.136,2.104,8.303,2.818,12.534c0.708,4.194,1.21,8.421,1.645,12.652c0.443,4.317,0.873,8.64,1.124,12.973
	c0.229,3.961,0.337,7.927,0.491,11.892c-0.157-0.325-0.319-0.647-0.49-0.964c-3.101-5.754-9.388-10.339-16.174-9.344
	c-3.391,0.499-6.186,2.562-8.619,4.853c-2.61,2.458-4.916,5.186-6.899,8.167c-0.834,1.253-1.726,2.527-2.895,3.5
	c-0.963,0.8-2.436,0.355-3.588-0.051c-2.451-0.863-5.061-2.346-7.752-2.15c-1.583,0.116-3.082,1.005-3.499,2.628
	c-0.233,0.907-0.028,1.811,0.41,2.605c-3.84,1.233-7.335,4.118-8.808,7.864c-0.808,2.052-1.068,4.262-1.771,6.347
	c-0.557,1.653-1.449,3.405-2.941,4.396c-1.04,0.691-2.277,0.981-3.492,1.197c-1.392,0.249-2.847,0.185-4.207,0.594
	c-0.931,0.279-1.263,1.262-0.854,2.097c0.472,0.961,1.498,1.51,2.367,2.054c1.067,0.667,2.14,1.313,3.231,1.939
	c2.291,1.315,4.328,2.949,6.461,4.497c2.061,1.496,4.231,2.833,6.466,4.057c-0.002,0.021-0.007,0.039-0.009,0.059
	c-0.064,0.905-0.335,1.901-0.532,2.881c-0.047,0.23-0.073,0.465-0.104,0.699c-0.005,0.025-0.012,0.068-0.019,0.109
	c-0.013,0.007-0.027,0.016-0.04,0.021c-0.076,0.038-0.155,0.07-0.232,0.105c0.286-0.128-0.289,0.12-0.354,0.149
	c-1.813,0.813-2.841,3.031-1.815,4.851c0.824,1.464,2.933,2.443,4.58,2.007c2.12-0.563,2.471-3.122,1.622-4.834
	c-0.245-0.492-0.621-0.955-1.072-1.332c0.033-0.11,0.07-0.22,0.09-0.336c0.133-0.813,0.387-1.894,0.562-2.98
	c1.741,0.867,3.511,1.675,5.294,2.436c2.438,1.037,4.96,2.156,7.571,2.669c1.375,0.27,2.721,0.328,4.113,0.194
	c0.579-0.056,1.166-0.146,1.749-0.142c0.514,0.004,0.998,0.082,1.511-0.029c0.563-0.122,1.063-0.451,1.355-0.954
	c0.482-0.834-0.12-1.722-0.471-2.486c-0.497-1.081-0.736-2.197-0.846-3.378c-0.115-1.243-0.217-2.559-0.041-3.8
	c0.161-1.127,0.535-2.229,0.956-3.283c1.037-2.597,2.495-5.005,3.166-7.743c0.362-1.478,0.553-3.016,0.793-4.519
	c0.12-0.748,0.215-1.5,0.233-2.258c0.008-0.31,0.008-0.619,0.019-0.925c1.066,0.148,2.183-0.193,2.772-1.17
	c0.614-1.016,0.594-2.379,0.172-3.461c-0.488-1.252-1.399-2.233-2.413-3.087c-1.064-0.896-2.133-1.791-3.208-2.672
	c-1.184-0.971-2.427-1.873-3.773-2.605c-0.383-0.208-0.787-0.411-1.201-0.59c0.439-0.425,0.84-0.889,1.209-1.341
	c1.013-1.244,1.845-2.612,2.759-3.927c0.933-1.342,2.055-2.557,3.163-3.753c2.075-2.242,4.423-4.706,7.34-5.818
	c5.782-2.208,11.852,1.756,14.759,6.652c1.563,2.631,2.491,5.559,3.364,8.476c0.375,1.256,0.693,2.526,0.983,3.801
	c0.109,0.901,0.22,1.802,0.34,2.702c0.148,1.106,0.303,2.212,0.462,3.316c0.039,0.267,0.167,0.464,0.343,0.602
	c0.403,3.354,0.651,6.743,0.706,10.12c0.06,3.701-0.188,7.398-0.387,11.091c-0.405,7.486-0.89,14.973-1.794,22.418
	c-0.884,7.279-2.118,14.525-3.611,21.704c-1.494,7.184-3.419,14.275-5.536,21.299c-0.866,2.875-1.75,5.753-2.708,8.604
	c-3.106,6.086-6.298,12.13-9.371,18.231c-0.074,0.147-0.147,0.296-0.221,0.443c0.063-0.263,0.128-0.525,0.188-0.791
	c1.165-5.143,2.041-10.352,2.97-15.542c0.991-5.535,1.939-11.077,2.694-16.65c0.745-5.491,1.139-10.967,1.346-16.502
	c0.183-4.889,1.054-9.805,0.172-14.668c-0.699-3.859-2.545-8.267-6.53-9.681c-4.024-1.429-8.232,1.231-11.234,3.669
	c-1.697,1.377-3.263,2.906-4.958,4.286c-1.884,1.536-3.857,2.96-5.909,4.262c-4.2,2.663-8.717,4.766-13.495,6.158
	c-9.73,2.835-19.875,2.866-29.917,3.062c-2.355,0.046-4.73,0.177-7.043,0.651c-1.69,0.348-3.902,0.834-4.797,2.489
	c-1.587,2.936,1.804,6.358,3.668,8.25c3.228,3.272,7.209,5.657,11.141,7.984c2.036,1.205,4.183,2.262,6.443,2.976
	c2.275,0.718,4.648,0.985,7.025,1.043c4.988,0.119,10.019-0.661,14.831-1.938c4.693-1.245,9.28-2.992,13.443-5.512
	c0.857-0.52,1.679-1.074,2.481-1.648c-0.257,4.687-0.989,9.343-1.063,14.04c-0.041,2.606,0.191,5.184,0.671,7.745
	c0.452,2.411,1.079,4.786,1.568,7.189c0.51,2.507,0.799,5.04,1.059,7.581c0.256,2.501,0.645,5,0.809,7.508
	c0.153,2.34,0.16,4.753-0.161,7.081c-0.344,2.497-1.176,4.895-1.37,7.42c-0.218,2.847,0.127,5.705-0.029,8.553
	c-0.072,1.33-0.289,2.633-0.48,3.949c-0.034,0.241-0.046,0.506-0.053,0.78c-0.186,0.872-0.366,1.746-0.53,2.624
	c-0.306,1.629,1.668,2.45,2.63,1.108c0.487-0.681,0.623-1.496,0.675-2.315c2.094-4.748,4.266-9.456,6.493-14.137
	c3.66-3.001,7.188-6.154,10.527-9.52c4.599-4.636,9.378-9.088,14.25-13.436c4.835-4.315,9.761-8.527,14.699-12.727
	c4.838-4.113,9.839-8.098,14.24-12.691c2.19-2.285,4.225-4.727,6.32-7.101c2.123-2.404,4.217-4.84,6.111-7.432
	c2.865-3.924,5.359-8.101,7.838-12.279c3.057-1.193,6.105-2.41,9.135-3.675c5.76-2.401,11.461-4.956,17.002-7.83
	c5.514-2.861,10.912-5.968,15.768-9.858c2.389-1.914,4.652-3.975,6.859-6.094c2.076-1.992,4.104-4.035,5.863-6.315
	c3.322-4.302,5.408-9.823,5.84-15.247c0.105-1.347,0.035-2.684-0.223-4.011C251.588,146.109,250.172,146.032,249.408,146.644z
	 M215.143,90.643c0.441-0.769,0.887-1.533,1.381-2.268c0.221-0.332,0.451-0.659,0.688-0.98c0.113-0.154,0.447-0.487,0.508-0.579
	c0.008-0.009,0.027-0.026,0.049-0.042c0.025,0.018,0.186-0.001,0.127-0.021c0.07,0.015,0.115,0.038,0.152,0.076
	c0.014,0.025,0.049,0.084,0.078,0.135c0.004,0.021,0.092,0.221,0.1,0.248c0.025,0.09,0.047,0.183,0.064,0.274
	c0.004,0.019,0.006,0.03,0.008,0.045c0.01,0.095,0.014,0.191,0.018,0.288c0.002,0.144-0.004,0.286-0.01,0.43
	c-0.002,0.051-0.002,0.083-0.002,0.108c-0.006,0.019-0.008,0.032-0.016,0.062c-0.055,0.296-0.135,0.59-0.244,0.871
	c-0.252,0.65-0.66,1.247-1.119,1.771c-1.217,1.388-2.666,2.603-4.107,3.75c-0.033,0.028-0.068,0.056-0.104,0.083
	C213.525,93.477,214.334,92.059,215.143,90.643z M207.326,106.377c0.594-1.991,1.684-3.683,3.223-5.075
	c0.061-0.057,0.113-0.117,0.16-0.177c0.121-0.089,0.242-0.176,0.369-0.257c1.1-0.703,2.299-1.313,3.566-1.649
	c2.102-0.559,4.537,0.183,6.441,1.239c2.139,1.186,3.734,3.008,4.979,5.108c0.656,1.108,1.213,2.272,1.658,3.482
	c0.438,1.195,0.703,2.463,1.297,3.597c0.602,1.15,1.605,2.031,2.732,2.647c0.715,0.39,1.49,0.683,2.275,0.89
	c0.043,0.012,0.086,0.018,0.127,0.028c-0.277,0.245-0.555,0.49-0.832,0.737c-0.902,0.809-1.814,1.608-2.746,2.386
	c-1.764,1.475-3.516,2.967-5.279,4.443c-1.703,1.427-3.447,2.842-5.342,4.013c-1.799,1.111-3.73,1.957-5.719,2.667
	c-0.668,0.239-1.34,0.472-2.018,0.689c0.395-0.868,0.793-1.708,0.934-2.673c0.164-1.137-0.018-2.241-0.375-3.325
	c-0.742-2.239-1.9-4.311-2.869-6.454c-0.873-1.925-1.836-3.859-2.521-5.86C206.639,110.65,206.67,108.58,207.326,106.377z
	 M206.246,100.083c-0.035,0.044-0.068,0.089-0.105,0.133c-1.338,1.601-2.938,2.929-4.479,4.326c-0.883,0.8-1.803,1.711-2.846,2.37
	c0.213-0.466,0.453-0.928,0.715-1.36c0.668-1.108,1.553-2.041,2.529-2.883c0.975-0.841,2.02-1.609,3.178-2.181
	C205.563,100.326,205.904,100.197,206.246,100.083z M213.668,13.6c1.086-0.749,2.209-1.446,3.307-2.177
	c0.811-0.541,1.883-1.272,2.789-1.359c-0.016,0.017-0.031,0.036-0.047,0.053c-0.754,0.822-1.676,1.463-2.619,2.051
	c-1.295,0.811-2.701,1.542-4.145,2.049c-0.088,0.031-0.182,0.063-0.271,0.094C213.006,14.065,213.338,13.829,213.668,13.6z
	 M207.895,40.133c0.172-0.374,0.447-0.698,0.648-1.054c0.445-0.784,0.719-1.679,0.912-2.556c0.393-1.776,0.348-3.513-0.098-5.274
	c-0.514-2.034-1.322-3.958-1.416-6.081c-0.092-2.066,0.395-4.088,1.211-5.981c0.002-0.006,0.004-0.012,0.006-0.018
	c0.301-0.579,0.594-1.161,0.871-1.748c0.139,0.18,0.318,0.325,0.543,0.398c0.498,0.163,0.955,0.149,1.465,0.152
	c0.43,0.002,0.855,0.183,1.258,0.334c0.816,0.304,1.594,0.66,2.34,1.115c1.682,1.027,3.145,2.357,4.846,3.363
	c1.664,0.984,3.314,2.108,5.145,2.766c0.973,0.35,2.053,0.534,3.088,0.436c0.428-0.041,0.855-0.108,1.268-0.233
	c-0.654,2.732-2.635,5.027-4.68,6.895c-2.736,2.497-5.836,4.728-9.229,6.241c-1.754,0.783-3.623,1.493-5.469,2.026
	c-0.598,0.173-1.332,0.337-1.891,0.253c-0.26-0.04-0.51-0.122-0.682-0.223c-0.16-0.095-0.219-0.115-0.256-0.252
	c0.002-0.02-0.018-0.174-0.02-0.139C207.768,40.409,207.834,40.263,207.895,40.133z M207.525,17.256
	c-0.199,0.392-0.391,0.786-0.598,1.175c-1.35,2.557-2.986,5.074-5.303,6.842c0.123-0.492,0.223-0.992,0.408-1.468
	c0.404-1.041,1.113-2.067,1.779-2.959C204.848,19.46,206.139,18.289,207.525,17.256z M93.41,54.139
	c0.888-0.102,1.791-0.053,2.687,0.051c0.854,0.099,1.732,0.259,2.564,0.525c-0.883-0.063-1.761-0.139-2.641-0.247
	C95.165,54.363,94.283,54.275,93.41,54.139z M110.401,62.182c1.352,1.216,2.685,2.473,3.829,3.891
	c0.492,0.608,0.966,1.282,1.303,1.99c0.017,0.033,0.046,0.101,0.076,0.178c-0.091-0.045-0.175-0.09-0.224-0.118
	c-0.303-0.177-0.588-0.38-0.874-0.584c-0.67-0.478-1.34-0.954-1.978-1.477c-0.59-0.484-1.142-1-1.669-1.536
	c-0.129-0.332-0.373-0.566-0.667-0.706c-0.535-0.596-1.042-1.217-1.507-1.884c-0.568-0.813-1.125-1.634-1.688-2.453
	C108.226,60.271,109.319,61.208,110.401,62.182z M108.157,65.817c0.11,0.743,0.297,1.475,0.113,2.219
	c-0.24,0.977-0.585,1.918-1.045,2.812c-0.973,1.894-2.318,3.585-3.438,5.393c-1.2,1.937-2.911,3.584-2.88,6.028
	c0.015,1.161,0.335,2.35,0.661,3.457c0.045,0.153,0.096,0.308,0.147,0.461c-0.11-0.042-0.217-0.09-0.329-0.126
	c-1.173-0.381-2.392-0.651-3.585-0.955c-2.335-0.596-4.63-1.269-6.908-2.056c-2.251-0.778-4.499-1.576-6.823-2.116
	c-1.073-0.249-2.156-0.457-3.233-0.684c0.021-0.011,0.042-0.02,0.064-0.031c1.114-0.581,2.137-1.217,2.912-2.225
	c1.309-1.701,1.591-3.82,2.033-5.855c0.514-2.368,0.939-5.04,2.216-7.135c1.168-1.915,2.935-3.493,4.865-4.612
	c2.25-1.304,4.793-2.059,7.398-2.097c0.429-0.006,0.732-0.203,0.918-0.477c0.233,0.036,0.469,0.075,0.695,0.138
	c0.023,0.007,0.034,0.009,0.051,0.013c0.008,0.006,0.02,0.016,0.043,0.028c0.102,0.058,0.202,0.118,0.297,0.186
	c0.021,0.018,0.046,0.04,0.082,0.072c0.082,0.071,0.16,0.146,0.237,0.222c0.201,0.198,0.389,0.41,0.568,0.628
	c0.541,0.656,1.052,1.525,1.579,2.27C105.882,62.911,106.937,64.428,108.157,65.817z M98.65,129.099
	c0.195-0.181,0.32-0.206,0.661-0.253c-0.195,0.027,0.149-0.001,0.191-0.001c0.143,0.001,0.285,0,0.427,0.01
	c0.299,0.018,0.378,0.036,0.667,0.095c0.559,0.114,1.107,0.276,1.649,0.451c1.357,0.436,2.649,1.031,3.993,1.504
	c0.127,0.044,0.258,0.087,0.388,0.128c-1.377,0.35-2.761,0.736-4.195,0.691c-1.288-0.04-2.661-0.544-3.5-1.534
	c-0.23-0.272-0.443-0.668-0.405-0.817C98.547,129.295,98.718,129.036,98.65,129.099z M115.107,134.394
	c0.963,0.701,1.845,1.51,2.759,2.273c0.751,0.628,1.545,1.21,2.23,1.913c0.312,0.319,0.601,0.658,0.791,1.065
	c0.066,0.142,0.108,0.296,0.147,0.451c0.008,0.032,0.012,0.044,0.015,0.054c0.008,0.101,0.01,0.202,0.012,0.302
	c0.001,0.083,0.001,0.125,0,0.148c-0.026-0.017-0.296-0.106-0.338-0.124c-0.767-0.335-1.422-0.923-2.062-1.447
	c-0.805-0.658-1.632-1.274-2.38-1.999c-0.896-0.868-1.697-1.835-2.28-2.943c-0.117-0.222-0.216-0.453-0.309-0.686
	C114.197,133.73,114.674,134.078,115.107,134.394z M114.005,138.826c0.944,0.954,2.026,1.752,2.884,2.455
	c0.298,0.244,0.599,0.488,0.907,0.722c0.015,0.145,0.052,0.289,0.107,0.425c-0.085,0.753-0.08,1.508-0.115,2.274
	c-0.046,0.992-0.273,1.958-0.431,2.938c-0.331,2.061-0.737,4.001-1.594,5.919c-0.795,1.779-1.702,3.514-2.354,5.355
	c-0.678,1.91-0.892,3.846-0.795,5.864c0.058,1.223,0.173,2.469,0.442,3.665c0.117,0.52,0.298,1.018,0.503,1.508
	c-0.586,0.033-1.173,0.122-1.755,0.17c-1.46,0.118-2.837-0.065-4.242-0.466c-2.927-0.835-5.756-2.107-8.515-3.377
	c-2.789-1.281-5.449-2.75-8.08-4.329c-2.551-1.53-4.837-3.407-7.258-5.124c-1.329-0.943-2.776-1.696-4.179-2.521
	c-0.214-0.126-0.423-0.258-0.633-0.389c0.147-0.018,0.294-0.037,0.44-0.059c1.261-0.195,2.5-0.494,3.67-1.008
	c1.958-0.857,3.428-2.568,4.359-4.458c0.971-1.969,1.404-4.079,1.895-6.2c0.487-2.104,1.187-3.953,2.735-5.505
	c1.679-1.679,3.823-2.908,6.147-3.42c0,0,0.001,0,0.002,0c1.204,0.793,2.614,1.233,4.063,1.323c1.686,0.106,3.374-0.323,4.994-0.735
	c0.761-0.192,1.537-0.352,2.28-0.606c0.343-0.118,0.688-0.254,1.012-0.421c0.273,0.887,0.549,1.773,0.97,2.606
	C112.097,136.686,113.022,137.833,114.005,138.826z M84.503,222.053c-4.435,0.688-9.315,1.005-13.675-0.261
	c-4.32-1.253-8.304-3.929-12.003-6.425c-2.73-1.842-5.627-4.185-7.378-7.041c-0.275-0.449-0.552-1.055-0.619-1.446
	c-0.028-0.171-0.031-0.201,0.026-0.286c0.096-0.142,0.306-0.282,0.543-0.39c1.813-0.817,4.003-1.011,5.962-1.143
	c4.519-0.305,9.066-0.145,13.592-0.365c4.899-0.236,9.806-0.687,14.624-1.635c9.292-1.83,17.739-5.933,25.15-11.793
	c3.152-2.494,5.94-5.737,9.662-7.414c1.538-0.692,3.375-1.073,4.941-0.255c0.659,0.344,1.211,0.844,1.683,1.421
	c-1.169,0.631-2.368,1.198-3.527,1.855c-1.657,0.94-3.202,2.06-4.688,3.248c-1.542,1.234-3,2.564-4.521,3.822
	c-1.563,1.294-3.184,2.514-4.84,3.686c-3.274,2.315-6.68,4.438-10.111,6.512c-3.524,2.128-7.056,4.315-10.874,5.886
	c-4.361,1.793-9.01,2.002-13.666,2.018c-0.849,0.003-0.851,1.32,0,1.32c4.14,0.001,8.347-0.113,12.323-1.394
	c3.99-1.286,7.662-3.49,11.24-5.629c3.533-2.109,7.051-4.248,10.451-6.567c3.377-2.305,6.488-4.875,9.612-7.503
	c1.706-1.436,3.472-2.802,5.397-3.934c0.864-0.508,1.762-0.93,2.662-1.368c0.476-0.23,0.936-0.462,1.355-0.746
	c0.257,0.459,0.48,0.935,0.667,1.406c0.541,1.37,0.86,2.771,1.04,4.187c-1.046-0.149-1.714,0.769-1.676,1.604
	c-1.125,1.193-2.673,2.001-3.906,3.059c-1.796,1.541-3.396,3.297-5.217,4.812c-1.842,1.533-3.445,3.136-4.97,4.989
	c-1.442,1.751-2.895,3.469-4.581,4.997C102.408,217.416,93.428,220.667,84.503,222.053z M115.189,272.261
	c-0.017,0.028-0.034,0.056-0.051,0.083c0.673-3.643,1.094-7.329,1.457-11.015c0.91-9.25,1.504-18.59,1.188-27.885
	c-0.18-5.296-0.571-10.58-0.888-15.867c-0.056-0.921-1.495-0.927-1.439,0c0.56,9.338,1.258,18.65,0.809,28.01
	c-0.223,4.625-0.512,9.246-0.93,13.857c-0.405,4.479-0.869,8.973-1.744,13.388c-0.158,0.798-0.338,1.589-0.525,2.379
	c-0.422,0.467-0.875,0.909-1.371,1.313c0.007-0.881,0.042-1.763,0.183-2.631c0.198-1.22,0.501-2.418,0.767-3.624
	c0.535-2.436,0.741-4.912,0.727-7.403c-0.014-2.5-0.364-4.946-0.633-7.425c-0.291-2.688-0.527-5.382-0.927-8.058
	c-0.74-4.946-2.428-9.733-2.611-14.76c-0.215-5.874,0.906-11.688,1.104-17.545c0.012-0.344-0.079-0.623-0.233-0.839
	c1.988-1.707,3.813-3.594,5.51-5.659c1.64-1.997,3.351-3.707,5.324-5.368c1.875-1.578,3.497-3.461,5.418-4.98
	c1.153-0.911,2.358-1.678,3.391-2.66c-0.022,1.494-0.132,2.998-0.254,4.494c-0.415,5.077-0.396,10.179-0.895,15.251
	c-1.024,10.426-3.047,20.782-4.978,31.07C121.927,255.233,119.814,264.423,115.189,272.261z M184.363,206.563
	c-1.738,2.692-3.58,5.304-5.629,7.771c-2.053,2.47-4.228,4.838-6.333,7.263c-4.158,4.79-8.824,8.911-13.649,13.012
	c-4.934,4.193-9.875,8.379-14.748,12.645c-4.918,4.306-9.767,8.694-14.457,13.25c-2.802,2.722-5.567,5.449-8.422,8.085
	c0.218-0.494,0.421-0.994,0.619-1.494c0.5,0.068,1.063-0.13,1.303-0.716c0.253-0.617,0.51-1.233,0.763-1.851
	c0.285,0.103,0.609,0.033,0.776-0.328c1.421-3.069,2.988-6.07,4.884-8.875c2.047-3.031,4.464-5.807,6.924-8.507
	c2.49-2.731,5.113-5.331,7.675-7.993c2.524-2.622,5.015-5.286,7.725-7.72c3.063-2.751,6.556-4.977,9.583-7.769
	c0.547-0.504-0.253-1.274-0.808-0.808c-2.856,2.406-6.04,4.383-8.888,6.8c-2.775,2.358-5.29,4.997-7.808,7.623
	c-4.905,5.114-10.071,10.065-14.303,15.775c0.003-0.011,0.007-0.022,0.011-0.032c0.009-0.015,0.021-0.025,0.03-0.041
	c1.607-2.821,3-5.746,4.252-8.732c2.113-3.256,4.458-6.357,6.947-9.352c7.544-9.074,15.912-17.762,26.122-23.838
	c5.168-3.076,10.752-5.091,16.348-7.228c1.307-0.498,2.611-0.999,3.916-1.5C186.271,203.535,185.334,205.06,184.363,206.563z
	 M248.25,155.89c-0.736,2.576-1.705,5.071-3.18,7.318c-1.543,2.351-3.488,4.405-5.482,6.373c-2.131,2.102-4.32,4.148-6.607,6.078
	c-4.715,3.981-9.996,7.119-15.436,10.006c-5.453,2.895-11.072,5.474-16.76,7.872c-1.23,0.519-2.465,1.026-3.701,1.529
	c8.484-7.064,17.178-13.928,26.883-19.256c2.99-1.643,6.07-3.127,9.23-4.411c0.689-0.28,0.404-1.41-0.314-1.14
	c-11.57,4.368-21.723,11.548-31.295,19.252c-2.361,1.9-4.691,3.839-7.016,5.785c2.955-4.838,6.08-9.526,10.004-13.652
	c3.998-4.206,8.506-7.903,13.246-11.239c4.807-3.385,9.793-6.465,15.107-8.98c2.719-1.287,5.465-2.533,8.055-4.073
	c2.641-1.569,4.896-3.512,7.1-5.639c0.373-0.361,0.748-0.719,1.127-1.073C249.141,152.422,248.73,154.211,248.25,155.89z"/>
</svg>
