<?xml version="1.0" encoding="utf-8"?>
<!-- Generator: Adobe Illustrator 16.0.0, SVG Export Plug-In . SVG Version: 6.00 Build 0)  -->
<!DOCTYPE svg PUBLIC "-//W3C//DTD SVG 1.1//EN" "http://www.w3.org/Graphics/SVG/1.1/DTD/svg11.dtd">
<svg version="1.1" id="圖層_1" xmlns="http://www.w3.org/2000/svg" xmlns:xlink="http://www.w3.org/1999/xlink" x="0px" y="0px"
	 width="300px" height="300px" viewBox="0 0 300 300" enable-background="new 0 0 300 300" xml:space="preserve">
<path fill="#3A3A3A" d="M133.318,99.615c-0.201-0.057-0.404-0.103-0.611-0.132c-3.888-0.545-5.445,4.649-3.574,7.384
	c0.203,0.296,0.431,0.551,0.679,0.775c-0.146,0.502-0.025,1.129,0.443,1.401c1.213,0.705,2.477,1.111,3.854,1.179
	c-0.585,3.177-1.46,6.285-2.21,9.424c-0.821,3.441-1.442,6.923-2.069,10.403c-1.252,6.925-2.271,13.872-2.953,20.878
	c-0.427,4.395-0.733,8.783-0.832,13.18c-0.447-3.359-0.881-6.721-1.564-10.042c-1.433-6.964-3.986-13.866-7.833-19.867
	c-1.873-2.92-4.33-5.45-6.13-8.416c0.677-0.913,1.152-2.037,1.44-3.043c0.515-1.807,0.774-3.9,0.233-5.722
	c-0.556-1.875-1.964-3.317-3.76-4.048c-1.625-0.662-3.626-0.838-5.054,0.352c-1.24,1.033-1.625,2.792-1.678,4.326
	c-0.057,1.625,0.233,3.292,1.147,4.666c-0.504,0.396-0.768,1.126-0.278,1.792c0.746,1.015,1.479,2.137,2.527,2.872
	c1.297,0.909,2.784,0.905,4.114,0.066c0.013-0.007,0.023-0.018,0.035-0.026c1.346,2.475,3.178,4.65,4.814,6.944
	c2.055,2.884,3.686,6.057,5.059,9.316c1.359,3.225,2.486,6.576,3.297,9.982c0.794,3.338,1.304,6.734,1.798,10.126
	c0.557,3.82,1.086,7.65,1.974,11.41c0.018,0.076,0.046,0.144,0.079,0.206c0.336,5.817,0.954,11.633,1.926,17.373
	c0.342,2.025,0.714,4.054,1.137,6.071c-2.424-5.501-4.914-10.975-7.495-16.412c-6.824-14.373-15.395-27.753-24.927-40.471
	c-0.622-0.83-1.249-1.658-1.879-2.482c-1.107-1.871-2.162-3.772-3.177-5.693c0.043-0.09,0.075-0.185,0.079-0.289
	c0.138-3.756,0.917-7.437,1.482-11.142c0.587-3.846,0.761-7.719,0.633-11.605c-0.063-1.901-0.185-3.799-0.32-5.696
	c2.146-0.718,3.889-2.776,3.997-5.062c0.117-2.476-1.003-5.017-3.279-6.159c-1.158-0.58-2.606-0.728-3.807-0.212
	c-1.293,0.555-2.104,1.658-2.535,2.967c-0.314,0.954-0.458,2.021-0.396,3.069c-0.438,0.255-0.767,0.74-0.646,1.265
	c0.308,1.346,0.986,2.574,2.129,3.388c0.819,0.584,1.82,0.959,2.832,1.002c0.06,3.534,0.203,7.072,0.064,10.604
	c-0.146,3.739-0.809,7.391-1.388,11.08c-0.188,1.201-0.352,2.406-0.474,3.616c-2.626-5.283-4.946-10.72-7.038-16.234
	c-1.709-4.506-3.303-9.058-4.598-13.702c-1.265-4.54-2.166-9.156-3.005-13.788c-0.976-5.381-1.949-10.764-3.099-16.11
	c-0.036-0.165-0.108-0.297-0.2-0.402c0.657-0.32,1.257-0.814,1.559-1.482c0.152-0.336,0.208-0.698,0.19-1.065
	c0.226-0.793,0.255-1.663,0.084-2.452c-0.252-1.172-0.814-2.182-1.676-3.01c-0.729-0.701-1.76-1.252-2.787-1.276
	c-2.259-0.053-3.489,2.073-3.79,4.061c-0.018,0.118-0.022,0.236-0.034,0.354c-0.335,0.091-0.631,0.311-0.748,0.663
	C64.95,66.172,64.87,66.577,64.937,67c0.031,0.202,0.096,0.424,0.191,0.609c0.062,0.119,0.134,0.245,0.212,0.355
	c0.019,0.027,0.039,0.054,0.058,0.08c0.082,0.113,0.091,0.104,0.03-0.026c0.137,0.138,0.207,0.366,0.318,0.533
	c0.074,0.111,0.154,0.217,0.242,0.318c0.239,0.275,0.514,0.538,0.816,0.744c1.107,0.756,2.547,1.123,3.878,0.902
	c0.033-0.005,0.063-0.016,0.095-0.022c0.002,0.037,0.002,0.073,0.009,0.113c1.683,9.589,2.907,19.311,5.427,28.73
	c0.54,2.017,1.137,4.021,1.769,6.017c-0.103-0.126-0.201-0.258-0.305-0.382c-1.355-1.613-2.749-3.195-4.113-4.801
	c-2.67-3.146-5.4-6.173-8.385-9.024c-1.53-1.462-3.064-2.918-4.522-4.452c0.073-0.251,0.127-0.511,0.194-0.736
	c0.128-0.431,0.287-0.859,0.329-1.308c0.042-0.45,0.046-0.905,0.026-1.355c-0.035-0.779-0.242-1.501-0.434-2.248
	c-0.238-0.923-0.524-1.744-1.106-2.517c-1.795-2.387-5.803-2.81-7.814-0.472c-1.608,1.869-1.568,4.729-0.319,6.773
	c0.323,1.485,1.358,2.72,2.842,3.198c0.828,0.267,1.687,0.642,2.561,0.709c0.861,0.065,1.681-0.117,2.421-0.56
	c0.092-0.055,0.185-0.112,0.276-0.174c2.603,2.732,5.443,5.227,8.013,7.993c2.886,3.107,5.507,6.458,8.302,9.646
	c0.791,0.902,1.511,1.86,2.242,2.812c0.457,0.594,0.87,1.338,1.451,1.846c1.979,5.579,4.266,11.058,6.752,16.4
	c0.666,1.428,1.354,2.845,2.062,4.251c-1.891-2.179-3.857-4.292-5.934-6.3c-5.741-5.551-11.75-10.839-17.661-16.207
	c-2.896-2.63-5.844-5.149-8.917-7.572c-2.606-2.055-5.104-4.229-7.654-6.347c0.197-0.261,0.271-0.611,0.103-1.007
	c-1.476-3.475-3.089-6.833-4.02-10.508c-0.461-1.817-0.848-3.658-1.391-5.454c-0.196-0.65-0.395-1.284-0.544-1.924
	c0.174,0.004,0.35-0.002,0.546-0.036c0.973-0.169,1.518-1.109,1.851-1.927c0.304-0.744,0.365-1.535,0.356-2.328
	c-0.008-0.748-0.035-1.538-0.187-2.271c-0.188-0.908-0.509-1.869-1.105-2.592c-0.278-0.338-0.557-0.675-0.835-1.013
	c-0.338-0.41-0.7-0.667-1.163-0.918c-0.735-0.397-1.557-0.6-2.393-0.548c-0.958,0.059-1.89,0.747-2.509,1.453
	c-1.034,1.179-1.481,3.067-1.064,4.576c0.225,0.812,0.693,1.583,1.297,2.224c0.759,1.022,1.63,2.074,2.74,2.734
	c0.127,0.962,0.44,1.92,0.72,2.819c0.552,1.776,0.96,3.59,1.429,5.389c0.508,1.943,1.093,3.841,1.866,5.696
	c0.474,1.136,0.986,2.255,1.496,3.376c-2.349-1.817-4.77-3.534-7.092-5.386c-2.544-2.029-5.032-4.163-7.852-5.809
	c-1.188-0.694-2.404-1.279-3.69-1.74c0.083-0.176,0.156-0.356,0.215-0.543c0.487-1.52,0.265-3.058-0.671-4.36
	c-0.798-1.111-2.154-1.995-3.54-2.088c-1.28-0.086-2.533,0.336-3.547,1.117c-1.957,1.508-2.907,4.538-1.047,6.519
	c0.007,0.006,0.014,0.013,0.021,0.019c0.338,0.619,0.776,1.173,1.396,1.539c1.34,0.789,3.033,0.884,4.477,0.317
	c0.342-0.134,0.667-0.307,0.971-0.512c0.044,0.021,0.084,0.044,0.132,0.061c3.039,1.063,5.686,2.849,8.208,4.814
	c2.658,2.069,5.288,4.15,7.989,6.164c3.042,2.268,5.887,4.744,8.789,7.182c2.953,2.482,6.067,4.764,9.002,7.267
	c0.551,0.469,1.097,0.945,1.643,1.42c-1.511-0.486-3.062-0.875-4.587-1.282c-4.429-1.183-8.887-2.247-13.345-3.314
	c-2.083-0.499-4.165-1.003-6.244-1.518c0.017-1.066-0.295-2.126-0.969-3c-1.085-1.408-2.854-2.01-4.589-1.719
	c-1.63,0.272-3.245,1.207-4.107,2.647c-0.469,0.784-0.768,1.652-0.779,2.572c-0.006,0.478,0.035,0.958,0.118,1.427
	c0.052,0.297,0.145,0.592,0.292,0.854c0.075,0.133,0.151,0.274,0.245,0.396c0.129,0.17,0.308,0.297,0.45,0.453
	c-0.008-0.004,0.004,0.019,0.069,0.11c0.068,0.094,0.15,0.183,0.23,0.267c0.179,0.191,0.372,0.379,0.577,0.544
	c0.386,0.31,0.841,0.56,1.306,0.73c0.998,0.368,2.111,0.425,3.135,0.146c0.993-0.271,1.939-0.82,2.526-1.685
	c0.032-0.049,0.055-0.102,0.085-0.15c0.366-0.438,0.674-0.925,0.914-1.435c0.032-0.07,0.061-0.14,0.09-0.21
	c3.898,0.995,7.808,1.945,11.709,2.925c4.246,1.068,8.549,2.111,12.703,3.504c1.065,0.357,2.077,0.85,3.127,1.248
	c0.389,0.147,0.79,0.23,1.197,0.309c0.067,0.013,0.133,0.031,0.199,0.045c3.852,3.484,7.638,7.051,11.446,10.567
	c2.836,2.618,5.64,5.245,8.229,8.113c2.482,2.749,4.821,5.623,7.089,8.55c9.536,12.303,18.397,25.31,25.334,39.271
	c2.701,5.437,5.278,10.934,7.767,16.471c-0.427-0.573-0.862-1.142-1.309-1.7c-3.693-4.614-8.208-8.504-12.84-12.143
	c-3.859-3.03-7.771-6.013-11.743-8.912c-1.678-1.581-3.321-3.198-4.825-4.949c-1.907-2.218-3.637-4.592-5.305-6.992
	c-1.711-2.462-3.412-4.951-4.959-7.52c-1.514-2.515-2.864-5.123-4.235-7.718c-1.467-2.776-2.987-5.528-4.338-8.364
	c0.195-0.147,0.373-0.31,0.563-0.487c0.289-0.271,0.613-0.53,0.868-0.834c0.395-0.472,0.618-1.097,0.743-1.691
	c0.237-1.127-0.058-2.478-0.848-3.336c-0.787-0.854-1.869-1.293-3-1.474c-2.033-0.326-4.467,0.183-5.723,1.95
	c-1.423,2.003-0.431,4.625,1.264,6.118c0.864,0.762,2.086,1.152,3.229,1.003c0.503-0.066,1.046-0.115,1.53-0.292
	c0.997,2.5,2.32,4.86,3.549,7.251c1.399,2.725,2.815,5.443,4.375,8.079c1.529,2.583,3.227,5.063,4.945,7.522
	c1.59,2.278,3.24,4.519,5.009,6.662c-3.57-2.446-7.195-4.81-10.891-7.05c-5.789-3.509-11.722-6.773-17.525-10.259
	c0.915-1.423,0.567-3.194-0.362-4.587c-0.958-1.436-2.827-2.281-4.47-2.598c-1.825-0.354-3.771,0.05-5.035,1.464
	c-0.364,0.408-0.828,0.802-0.998,1.33c-0.16,0.497-0.344,1.143-0.346,1.662c-0.001,0.507,0.316,1.069,0.5,1.54
	c0.073,0.188,0.164,0.359,0.266,0.522c-0.007,0.321,0.154,0.633,0.406,0.876c0.335,0.322,0.66,0.716,1.04,0.982
	c0.36,0.251,0.796,0.449,1.215,0.582c0.661,0.208,1.361,0.293,2.056,0.332c0.12,0.021,0.241,0.043,0.362,0.054
	c0.406,0.032,0.829,0.03,1.233-0.032c0.206-0.031,0.418-0.061,0.627-0.099c0.84-0.131,1.649-0.398,2.346-0.867
	c0.029,0.023,0.055,0.049,0.089,0.07c5.028,3.27,10.216,6.273,15.331,9.404c5.157,3.156,10.181,6.518,15.117,10.01
	c4.899,3.466,9.683,7.082,14.423,10.763c1.159,0.899,2.322,1.803,3.475,2.719c-1.296-0.706-2.604-1.382-3.922-2.053
	c-0.772-0.394-1.531-0.816-2.327-1.163c-0.816-0.354-1.676-0.572-2.532-0.805c-7.016-1.903-14.105-3.549-21.292-4.655
	c-3.991-0.614-8.004-1.082-12.03-1.392c-0.027-0.003-0.051,0.001-0.077,0.002c-0.298-1.229-0.876-2.538-1.939-3.29
	c-1.065-0.755-2.503-0.932-3.768-0.727c-1.283,0.211-2.635,0.829-3.333,1.979c-0.668,1.103-0.703,2.394-0.371,3.603
	c-0.06,0.316,0,0.651,0.226,0.918c0.074,0.087,0.153,0.171,0.23,0.256c0.45,0.883,1.127,1.702,1.964,2.188
	c0.165,0.096,0.333,0.201,0.51,0.273c0.087,0.035,0.197,0.123-0.033-0.042c0.077,0.056,0.251,0.148,0.367,0.203
	c0.437,0.207,0.922,0.289,1.402,0.255c0.393-0.027,0.754-0.153,1.089-0.334c0.193,0,0.388-0.011,0.582-0.038
	c0.964-0.139,1.796-0.634,2.427-1.366c0.539-0.625,0.773-1.419,0.811-2.231c6.89,0.58,13.732,1.627,20.484,3.109
	c3.533,0.776,7.038,1.68,10.529,2.621c1.653,0.446,3.311,0.855,4.854,1.615c1.57,0.773,3.143,1.552,4.698,2.354
	c1.753,0.905,3.55,1.798,5.158,2.947c1.562,1.117,2.963,2.42,4.427,3.656c0.231,0.195,0.509,0.179,0.734,0.054
	c0.236,0.25,0.476,0.493,0.707,0.747c3.789,4.177,6.825,8.956,9.647,13.827c2.25,5.269,4.445,10.56,6.61,15.859
	c1.715,4.197,3.399,8.39,4.982,12.623c-1.537-2.098-3.115-4.176-5.017-5.956c-1.987-1.861-4.239-3.404-6.34-5.128
	c-2.002-1.643-4.175-3.013-6.485-4.184c-1.258-0.637-2.547-1.215-3.845-1.765c-0.896-0.379-1.812-0.818-2.751-1.138
	c0.562-1.902,0.678-4.037-0.51-5.711c-2.355-3.32-7.276-3.393-10.581-1.592c-1.662,0.907-3.081,2.269-3.761,4.068
	c-0.482,1.282-0.413,2.545,0.052,3.714c-0.162,0.088-0.306,0.202-0.408,0.338c-0.45,0.604-0.236,1.292,0.257,1.769
	c1.33,1.285,2.713,2.57,4.442,3.3c1.936,0.818,4.218,0.71,6.124-0.161c1.541-0.704,2.636-1.923,3.415-3.356
	c0.727,0.338,1.49,0.607,2.226,0.914c1.127,0.47,2.247,0.956,3.349,1.481c2.238,1.067,4.38,2.318,6.325,3.861
	c2.043,1.623,4.162,3.178,6.132,4.889c2.033,1.765,3.649,3.911,5.243,6.066c1.718,2.323,3.364,4.698,5.098,7.009
	c0.148,0.453,0.301,0.903,0.445,1.358c2.393,7.511,4.509,15.105,6.879,22.623c0.604,1.917,1.228,3.828,1.872,5.732
	c0.526,1.559,2.878,0.555,2.354-0.996c-1.73-5.111-3.283-10.276-4.825-15.445c-0.003-0.033-0.001-0.064-0.008-0.098
	c-1.826-8.337-3.078-16.81-3.492-25.34c-0.418-8.608,0.16-17.165,1.504-25.672c0.195-1.231,0.409-2.46,0.662-3.68
	c0.129-0.628,0.271-1.253,0.421-1.877c0.002-0.011,0.021-0.079,0.037-0.134c0.009-0.028,0.019-0.056,0.022-0.068
	c0.052-0.152,0.102-0.305,0.155-0.457c0.328-0.943,0.858-2.126,0.961-3.249c0.615,0.137,1.256,0.167,1.875,0.066
	c2.435-0.394,4.518-2.292,5.04-4.721c0.44-2.049-0.82-3.991-2.298-5.287c-1.657-1.454-3.973-2.136-5.955-0.917
	c-1.75,1.077-2.349,3.308-2.186,5.247c0.033,0.395,0.115,0.785,0.227,1.167c-0.433,0.346-0.698,1.002-0.412,1.508
	c0.346,0.611,0.746,1.151,1.229,1.61c-0.049,0.211-0.046,0.448,0.038,0.702c-0.014-0.043-0.025-0.072-0.035-0.094
	c-0.012,0.12-0.027,0.239-0.05,0.358c-0.066,0.347-0.134,0.616-0.2,0.838c-0.196,0.666-0.435,1.317-0.66,1.975
	c-0.63,1.838-0.933,3.823-1.254,5.734c-0.718,4.286-1.266,8.612-1.552,12.949c-0.487,7.354-0.275,14.747,0.498,22.075
	c-1.495-4.36-3.098-8.68-4.848-12.961c-2.16-5.287-4.342-10.562-6.563-15.816c-0.494-1.444-0.975-2.895-1.424-4.354
	c0.01-0.062,0.014-0.126,0.002-0.196c-0.078-0.469,0.007-0.936,0.011-1.407c0.006-0.535-0.068-1.071-0.149-1.601
	c-0.17-1.103-0.447-2.185-0.636-3.284c-0.083-0.486-0.149-0.975-0.198-1.467c-0.013-0.363-0.031-0.728-0.055-1.09
	c-0.001-0.027-0.008-0.052-0.015-0.077c-0.004-0.212-0.008-0.425,0-0.637c0.034-1.024,0.138-2.046-0.044-3.063
	c-0.042-0.231-0.16-0.39-0.31-0.494c0.479-5.173,1.183-10.34,2.589-15.35c0.817-2.908,1.843-5.755,3.021-8.537
	c1.207-2.85,2.626-5.597,3.916-8.407c0.752-1.642,1.475-3.297,2.216-4.944c0.462-1.027,0.94-2.047,1.385-3.082
	c0.23,0.06,0.469,0.1,0.72,0.11c1.298,0.058,2.544-0.633,3.292-1.683c0.732-1.03,0.945-2.269,0.932-3.506
	c-0.012-1.147-0.271-2.282-0.628-3.368c-0.153-0.466-0.334-0.925-0.546-1.368c-0.282-0.587-0.521-1.209-0.938-1.72
	c-0.488-0.595-1.161-1.06-1.895-1.293c-0.934-0.297-1.979,0.061-2.749,0.629c-0.45,0.331-0.819,0.768-1.107,1.262
	c-0.761,0.547-1.339,1.404-1.592,2.307c-0.339,1.206-0.302,2.697,0.154,3.953c-0.059,0.309,0.004,0.647,0.251,0.969
	c0.666,0.871,1.397,1.914,2.289,2.691c-1.26,2.25-2.204,4.716-3.245,7.049c-1.285,2.88-2.72,5.69-3.976,8.584
	c-2.468,5.687-4.206,11.615-5.171,17.739c-0.335,2.125-0.589,4.261-0.804,6.4c-0.922-5.796-1.493-11.65-1.796-17.511
	c-0.356-6.864-0.107-13.674,0.513-20.515c0.628-6.927,1.511-13.833,2.753-20.677c0.697-3.838,1.364-7.687,2.225-11.492
	c0.853-3.771,1.893-7.491,2.345-11.34c0.84-0.497,1.516-1.403,1.802-2.25c0.359-1.065,0.417-2.338,0.312-3.451
	c-0.102-1.1-0.439-2.229-1.106-3.123C136.038,99.848,134.63,99.41,133.318,99.615z M154.785,189.938L154.785,189.938
	c0.076,0.051,0.156,0.098,0.227,0.154c0.047,0.036,0.092,0.075,0.137,0.114c0.003,0.002,0.003,0.002,0.006,0.005
	c0.004,0.004,0.004,0.005,0.008,0.009c0.097,0.11,0.188,0.223,0.27,0.343c-0.016-0.006,0.104,0.23,0.126,0.283
	c0.003,0.008,0.006,0.017,0.009,0.027c0.01,0.054,0.02,0.108,0.027,0.162c0.01,0.07,0.016,0.14,0.021,0.21
	c-0.002,0.008-0.004,0.013-0.007,0.026c-0.012,0.071-0.019,0.146-0.029,0.218c-0.002,0.017-0.001,0.024-0.001,0.031
	c-0.004,0.008-0.006,0.012-0.01,0.023c-0.027,0.068-0.059,0.136-0.088,0.203C155.361,191.105,155.164,190.485,154.785,189.938z
	 M151.776,187.429c0.003-0.001,0.003,0,0.007-0.002c0.05-0.011,0.107-0.052,0.155-0.072c0.057-0.023,0.317-0.092,0.307-0.098
	c0.095-0.016,0.189-0.028,0.285-0.036c0.001,0.004,0.038,0.008,0.091,0.012c-0.236,0.076-0.459,0.184-0.658,0.327
	c-0.102-0.02-0.203-0.031-0.305-0.04C151.698,187.49,151.738,187.46,151.776,187.429z"/>
<path fill="#3A3A3A" d="M163.311,92.371c0.865,0.658,1.804,1.246,2.799,1.705c-0.877,0.119-1.746,0.285-2.596,0.512
	c-1.273,0.343-2.631,0.845-3.579,1.801c-0.96,0.97-1.415,2.707-0.593,3.907c0.79,1.152,2.305,1.044,3.494,0.72
	c1.606-0.438,3.15-1.211,4.608-1.992c0.884-0.474,1.75-0.979,2.598-1.511c0.569-0.356,1.257-0.686,1.73-1.189
	c2.13,1.643,4.355,3.174,6.35,4.987c2.072,1.886,3.913,4.079,5.604,6.308c1.737,2.294,3.524,4.555,5.222,6.88
	c0.832,1.14,1.701,2.289,2.383,3.528c0.665,1.213,1.293,2.449,1.961,3.664c0.752,1.366,1.485,2.762,2.174,4.16
	c0.71,1.436,1.01,3.022,1.701,4.464c0.002,0.005,0.007,0.009,0.009,0.015c0.069,0.202,0.137,0.404,0.205,0.606
	c1.894,5.596,4.189,11.1,5.51,16.871c0.639,2.808,1.114,5.651,1.525,8.5c0.422,2.936,0.853,5.882,0.968,8.849
	c0.232,5.99-0.592,11.98-1.536,17.88c-0.468,2.919-1.144,5.757-2.131,8.544c-0.963,2.718-2.1,5.369-3.123,8.063
	c-2.118,5.563-4.366,11.061-6.612,16.572c-1.941,4.768-3.666,9.582-5.114,14.51c0.229-2.497,0.338-4.998,0.176-7.521
	c-0.19-3.028-0.678-6.033-1.29-9.004c-0.596-2.884-1.545-5.662-2.223-8.522c-0.689-2.915-1.274-5.854-1.894-8.784
	c-0.614-2.918-1.075-5.845-1.328-8.815c-0.502-5.91-0.524-11.926,0.276-17.806c0.391-2.867,0.891-5.714,1.715-8.491
	c0.801-2.709,1.83-5.347,2.911-7.956c0.178-0.431,0.354-0.862,0.53-1.294c0.899,0.494,1.974,0.647,3.002,0.567
	c1.383-0.107,2.716-0.51,3.989-1.041c1.304-0.543,2.831-1.226,3.467-2.583c0.418-0.893,0.278-1.863-0.448-2.558
	c-0.626-0.599-1.509-0.793-2.357-0.75c-1.429,0.072-2.767,0.669-4.037,1.313c0.159-0.263,0.316-0.525,0.473-0.785
	c0.906-1.497,1.621-3.06,2.032-4.765c0.38-1.58,0.573-3.226,0.336-4.841c-0.212-1.442-0.924-3.001-2.321-3.633
	c-1.335-0.603-2.862-0.263-4.008,0.589c-1.257,0.938-2.043,2.323-2.561,3.783c-0.829,2.344-0.987,4.972-0.757,7.485
	c-0.677-0.933-1.443-1.797-2.338-2.547c-0.554-0.463-1.146-0.879-1.74-1.289c-0.523-0.362-1.159-0.778-1.823-0.766
	c-1.699,0.03-2.132,2.291-1.759,3.584c0.407,1.423,1.562,2.502,2.674,3.406c1.386,1.126,2.917,2.026,4.503,2.838
	c0.558,0.286,1.146,0.529,1.719,0.796c0.004,0.012,0.012,0.022,0.016,0.033c0.123,0.27,0.406,0.416,0.698,0.444
	c-1.156,2.423-2.235,4.883-3.142,7.411c-0.964,2.696-1.657,5.453-2.12,8.277c-0.984,5.946-1.271,11.95-0.957,17.97
	c0.03,0.608,0.073,1.218,0.119,1.828c-0.781-2.338-1.555-4.683-2.473-6.969c-0.906-2.257-1.873-4.506-3.102-6.609
	c-1.238-2.127-2.779-4.079-4.451-5.881c-1.878-2.021-3.894-3.9-5.921-5.764c-0.73-0.671-1.771,0.364-1.09,1.09
	c3.283,3.49,6.965,6.724,9.522,10.819c2.582,4.131,4.146,8.799,5.801,13.348c0.979,2.692,1.648,5.489,2.701,8.155
	c0.039,0.101,0.095,0.191,0.16,0.272c0.497,2.564,1.083,5.12,1.663,7.665c0.332,1.464,0.664,2.935,1.07,4.378
	c0.39,1.386,0.852,2.753,1.229,4.142c0.789,2.9,1.359,5.92,1.718,8.904c0.364,3.021,0.445,6.068,0.197,9.101
	c-0.247,3.001-0.677,5.978-1.05,8.961c-0.096,0.752-0.185,1.508-0.27,2.263c-0.017,0.159,0.043,0.31,0.14,0.433
	c-0.512,2.916-0.848,5.858-0.932,8.831c-0.04,1.468-0.025,2.934,0.033,4.399c0.042,1.053,1.683,1.06,1.642,0
	c-0.438-11.871,2.991-23.586,7.303-34.537c2.162-5.492,4.555-10.893,6.68-16.399c0.934-2.418,1.854-4.84,2.803-7.253
	c0.028-0.031,0.053-0.063,0.074-0.101c0.941-1.573,1.85-3.171,2.862-4.7c0.997-1.509,2.116-2.934,3.272-4.321
	c1.167-1.401,2.371-2.772,3.542-4.17c1.141-1.362,2.246-2.754,3.377-4.124c2.243-2.712,4.544-5.38,6.986-7.915
	c2.396-2.484,4.901-5.007,7.799-6.903c0.546-0.357,1.092-0.715,1.64-1.068c0.018,0.095,0.031,0.19,0.052,0.284
	c0.159,0.691,0.47,1.351,0.746,2c0.504,1.184,1.072,2.346,1.819,3.396c1.622,2.283,4.084,3.943,6.69,4.93
	c0.649,0.245,1.434,0.444,2.132,0.426c0.375-0.01,0.777-0.144,1.146-0.221c0.476-0.098,0.774-0.287,0.979-0.732
	c0.327-0.72,0.321-1.469-0.014-2.183c-0.134-0.283-0.35-0.506-0.501-0.771c-0.197-0.341-0.355-0.709-0.536-1.062
	c-1.167-2.271-2.376-4.741-4.399-6.384c-0.427-0.348-0.88-0.664-1.356-0.933c0.854-0.253,1.701-0.547,2.521-0.885
	c2.417-0.992,4.685-2.432,6.168-4.637c1.228-1.832,1.865-4.33,0.728-6.359c-0.625-1.12-1.711-2-3.004-2.143
	c-1.255-0.14-2.507,0.387-3.597,0.953c-1.252,0.651-2.5,1.369-3.642,2.199c-1.073,0.776-1.96,1.719-2.74,2.787
	c-0.332,0.457-0.634,0.937-0.919,1.427c-0.077-1.733-0.248-3.471-1.003-5.011c-0.495-1.009-1.359-2.167-2.455-2.554
	c-1.609-0.569-2.672,1.097-2.895,2.47c-0.243,1.509,0.069,3.058,0.56,4.487c0.579,1.688,1.264,3.352,2.034,4.959
	c0.245,0.513,0.519,1.158,0.861,1.754c-0.503,0.328-1.003,0.663-1.506,0.991c-1.243,0.813-2.418,1.684-3.537,2.661
	c-4.37,3.823-8.215,8.2-11.89,12.687c-1.863,2.272-3.695,4.571-5.585,6.825c-1.335,1.595-2.646,3.207-3.854,4.896
	c0.224-0.758,0.432-1.525,0.607-2.299c0.65-2.842,1.038-5.747,1.433-8.633c0.398-2.923,0.735-5.857,0.866-8.808
	c0.032-0.696,0.045-1.392,0.046-2.086c0.18-0.077,0.309-0.243,0.288-0.497c-0.214-2.59-0.387-5.18-0.527-7.773
	c0.143-0.098,0.234-0.268,0.172-0.492c-0.089-0.32-0.168-0.645-0.247-0.968c-0.014-0.25-0.025-0.499-0.036-0.749
	c0.021-0.163,0.038-0.325,0.068-0.486c0.032-0.177-0.022-0.323-0.116-0.433c-0.042-0.974-0.082-1.947-0.119-2.923
	c0.008-0.862,0.022-1.726,0.055-2.588c0.115-0.186,0.146-0.415,0.026-0.633c0.089-1.885,0.279-3.761,0.688-5.608
	c0.381-1.728,0.974-3.398,1.558-5.064c0.596-1.69,1.23-3.367,1.909-5.025c1.279-3.135,2.839-6.127,4.325-9.167
	c0.852-1.739,1.677-3.516,2.353-5.342c1.475-2.138,3.062-4.195,4.761-6.159c2.173-2.51,4.697-4.624,7.38-6.567
	c2.693-1.95,5.419-3.913,8.356-5.48c3.038-1.62,6.235-2.929,9.212-4.661c0.052,0.26,0.126,0.518,0.219,0.772
	c0.416,1.12,1.028,2.148,1.738,3.104c0.673,0.905,1.401,1.822,2.207,2.615c0.803,0.791,1.753,1.376,2.713,1.951
	c0.479,0.288,1.015,0.514,1.557,0.645c0.575,0.139,1.413,0.313,1.965,0.035c1.696-0.857,1.241-3.136,0.654-4.542
	c-0.378-0.905-0.876-1.711-1.595-2.391c-0.161-0.153-0.332-0.293-0.503-0.429c0.719,0.027,1.44,0.009,2.157-0.077
	c2.677-0.322,5.512-1.414,7.201-3.615c0.715-0.938,1.308-2.297,0.997-3.497c-0.34-1.315-1.706-1.822-2.93-1.926
	c-1.332-0.113-2.726,0.2-3.998,0.562c-1.379,0.393-2.687,0.951-3.934,1.658c-1.548,0.877-3.041,1.837-4.63,2.645
	c-0.183,0.093-0.368,0.183-0.552,0.275c1.406-1.281,2.77-2.617,3.831-4.212c0.696-1.051,1.2-2.246,1.729-3.391
	c0.521-1.134,0.735-2.368,0.265-3.562c-0.116-0.295-0.25-0.594-0.432-0.856c-0.234-0.336-0.555-0.454-0.943-0.523
	c-0.558-0.101-1.125-0.075-1.655,0.133c-0.578,0.227-0.98,0.614-1.43,1.025c-0.411,0.378-0.803,0.766-1.154,1.204
	c-1.486,1.85-2.384,4.136-2.829,6.451c-0.215,1.119-0.278,2.302-0.472,3.38c-0.055,0.298-0.112,0.595-0.162,0.895
	c-2.995,1.572-6.113,2.895-9.126,4.433c-3.032,1.546-5.789,3.501-8.547,5.485c-2.732,1.966-5.418,4.065-7.661,6.594
	c-0.54,0.611-1.066,1.234-1.58,1.871c0.818-3.055,1.958-6.014,3.224-8.914c1.488-3.408,3.164-6.727,5.106-9.899
	c2.008-3.285,4.353-6.355,6.648-9.443c2.328-3.133,4.703-6.247,7.322-9.146c2.35-2.603,4.872-5.039,7.454-7.408
	c0.004,0.008,0.004,0.015,0.008,0.022c0.241,0.667,0.861,1.077,1.462,1.39c1.298,0.675,2.652,1.162,4.128,1.196
	c2.218,0.05,5.262-0.582,6.449-2.68c0.6-1.059,0.666-2.529-0.286-3.413c-0.94-0.873-2.328-0.858-3.514-0.669
	c-0.65,0.104-1.283,0.286-1.906,0.504c0.786-0.589,1.541-1.218,2.154-1.982c1.275-1.585,2.867-4.29,1.435-6.242
	c-0.875-1.189-2.337-1.611-3.705-1.06c-1.313,0.528-2.346,1.538-3.17,2.666c-0.489,0.667-0.896,1.378-1.251,2.115
	c-0.062-0.479-0.143-0.959-0.251-1.437c-0.392-1.723-0.895-3.7-2.536-4.639c-0.347-0.198-0.741-0.119-1.03,0.134
	c-1.602,1.396-1.638,3.692-1.299,5.625c0.323,1.864,1.009,3.753,1.898,5.421c0.299,0.555,0.643,1.099,1.058,1.58
	c-2.537,2.161-5,4.416-7.293,6.833c-2.724,2.874-5.177,5.99-7.554,9.151c-2.364,3.142-4.78,6.282-6.897,9.597
	c-2.01,3.146-3.728,6.472-5.246,9.881c-1.413,3.177-2.714,6.42-3.646,9.771c0.104-2.326-0.189-4.657-0.861-6.909
	c-0.532-1.786-1.104-3.558-1.612-5.35c-0.491-1.729-0.978-3.459-1.549-5.165c-0.755-2.251-1.621-4.471-2.636-6.621
	c0.201-1.48,0.396-2.962,0.592-4.442c0.358-2.696,0.713-5.407,0.933-8.124c1.305-4.338,3.005-8.553,4.821-12.7
	c2.078-4.749,4.5-9.296,7.072-13.794c1.293-2.254,2.646-4.464,4.016-6.672c0.297-0.476,0.578-0.961,0.881-1.433
	c0.349-0.54,0.731-0.956,1.178-1.412c0.117-0.119,0.216-0.247,0.309-0.379c0.126-0.058,0.251-0.118,0.376-0.178
	c0.65,0.377,1.438,0.439,2.175,0.478c0.898,0.047,1.801,0.067,2.699,0.028c1.603-0.068,3.224-0.304,4.714-0.907
	c1.174-0.474,2.536-1.146,2.989-2.421c0.232-0.648,0.112-1.39-0.261-1.961c-0.463-0.709-1.272-0.991-2.091-0.952
	c-0.974,0.048-1.973,0.293-2.916,0.526c-1.046,0.26-2.079,0.586-3.082,0.979c0.35-0.333,0.693-0.674,1.025-1.027
	c0.955-1.023,1.853-2.105,2.755-3.177c1.701-2.021,3.385-4.576,1.953-7.222c-0.155-0.285-0.492-0.474-0.813-0.468
	c-1.507,0.034-2.729,1.035-3.658,2.137c-0.994,1.181-1.836,2.51-2.647,3.819c-0.512,0.818-0.999,1.652-1.466,2.498
	c0.048-0.799,0.06-1.603,0.014-2.412c-0.071-1.206-0.248-2.459-0.814-3.54c-0.142-0.272-0.27-0.611-0.49-0.831
	c-0.186-0.187-0.457-0.273-0.709-0.318c-0.328-0.057-0.65-0.023-0.944,0.139c-0.244,0.134-0.43,0.439-0.534,0.575
	c-0.364,0.46-0.639,0.828-0.84,1.39c-0.175,0.488-0.264,1.003-0.347,1.513c-0.199,1.245-0.195,2.503-0.103,3.759
	c0.106,1.416,0.457,2.76,0.788,4.135c0.145,0.598,0.266,1.183,0.299,1.648c0.027,0.452,0.086,0.873,0.266,1.257
	c-0.094,0.097-0.189,0.193-0.272,0.289c-0.324,0.367-0.597,0.772-0.852,1.189c-0.968,1.577-1.928,3.166-2.872,4.762
	c-1.936,3.28-3.825,6.608-5.559,10c-1.716,3.35-3.24,6.796-4.681,10.272c-0.755,1.822-1.476,3.66-2.148,5.515
	c0.015-1.29,0.019-2.583,0.079-3.872c0.087-1.839,0.262-3.675,0.255-5.52c-0.014-3.779-0.69-7.52-1.337-11.231
	c-0.021-0.125-0.042-0.252-0.066-0.379c0.032-0.054,0.051-0.114,0.051-0.181v-2.467c0-0.212-0.186-0.415-0.407-0.404
	c-0.058,0.002-0.115,0.02-0.165,0.043c-0.428-2.347-0.935-4.671-1.778-6.919c-0.231-0.613-0.479-1.219-0.73-1.824
	c0.013-0.013,0.028-0.028,0.045-0.042c0.593-0.54,1.186-1.082,1.836-1.555c0.668-0.486,1.313-1.001,1.925-1.558
	c1.16-1.06,2.171-2.254,3.166-3.467c0.534-0.649,1.015-1.338,1.413-2.078c0.345-0.639,0.82-1.383,0.799-2.133
	c-0.021-0.77-0.68-1.806-1.536-1.728c-0.642,0.058-1.301,0.343-1.877,0.608c-1.083,0.5-2.043,1.276-2.846,2.151
	c-1.017,1.109-1.828,2.376-2.536,3.7c-0.053-0.666-0.15-1.328-0.302-1.979c-0.254-1.091-0.646-2.194-1.242-3.146
	c-0.621-0.987-1.591-2.04-2.837-2.097c-1.293-0.061-2.22,1.045-2.847,2.032c-0.804,1.262-0.966,2.683-0.68,4.132
	c0.268,1.331,0.832,2.688,1.46,3.887c0.493,0.946,1.118,1.82,1.802,2.642c-0.012-0.003-0.021-0.008-0.033-0.011
	c-0.714-0.199-1.436-0.364-2.166-0.497c-1.038-0.193-2.098-0.377-3.152-0.462c-1.063-0.086-2.18-0.035-3.151,0.44
	c-1.185,0.576-1.894,1.92-1.31,3.17c0.582,1.238,2.045,1.798,3.314,1.948c1.306,0.155,2.646-0.093,3.914-0.396
	c1.376-0.33,2.756-0.688,4.104-1.13c0.483-0.16,1.078-0.297,1.486-0.63c0.423,1.078,0.81,2.17,1.121,3.285
	c0.485,1.746,0.729,3.543,1.052,5.324c0.661,3.669,1.368,7.365,1.579,11.093c0.104,1.851,0.024,3.693-0.092,5.541
	c-0.118,1.888-0.151,3.77-0.182,5.659c-0.061,3.75-0.436,7.484-0.873,11.207c-0.139,1.174-0.284,2.35-0.433,3.524
	c-0.049-0.088-0.095-0.177-0.145-0.264c-0.887-1.574-1.868-3.092-2.797-4.641c-0.903-1.506-1.743-3.039-2.735-4.491
	c-1.006-1.474-2.091-2.909-3.267-4.252c-1.107-1.263-2.338-2.407-3.468-3.648c-2.266-2.487-3.879-5.515-5.306-8.54
	c-0.234-0.493-0.465-0.988-0.695-1.482c0-0.001,0-0.001,0.002-0.003c2.557-1.997,5.572-3.864,7.073-6.87
	c0.644-1.292,1-3.244-0.307-4.276c-1.066-0.842-2.538-0.301-3.524,0.401c-1.683,1.196-2.838,3.026-3.674,4.966
	c-0.032-0.249-0.066-0.496-0.107-0.743c-0.47-2.813-1.794-5.55-4.155-7.24c-1.138-0.816-2.748-1.509-4.091-0.755
	c-1.359,0.762-1.786,2.592-1.762,4.032c0.026,1.738,0.797,3.325,1.784,4.716c0.534,0.749,1.123,1.456,1.684,2.181
	c0.558,0.719,1.095,1.46,1.731,2.113c0.071,0.076,0.151,0.143,0.228,0.216c-0.389-0.061-0.777-0.107-1.172-0.12
	c-0.935-0.03-1.875,0.077-2.786,0.28c-1.082,0.242-2.216,0.598-3.148,1.214c-1.1,0.729-1.89,1.922-1.448,3.279
	c0.483,1.486,1.891,2.018,3.351,1.854c1.498-0.17,2.954-0.732,4.344-1.287c0.966-0.385,1.918-0.805,2.851-1.264
	c0.534-0.263,1.226-0.487,1.637-0.94c0.121-0.13,0.218-0.277,0.303-0.435c1,2.493,2.129,4.943,3.627,7.176
	c-0.576-0.101-1.186-0.04-1.73,0.153c-1.763,0.624-2.98,2.249-3.623,3.943c-0.418,1.101-0.595,2.294-0.616,3.482
	c-0.348-0.494-0.755-0.947-1.219-1.348c-1.173-1.013-3.617-2.917-5.122-1.494c-1.79,1.691,0.859,4.003,2.075,5.086
	c1.079,0.961,2.229,1.808,3.381,2.676c0.223,0.167,0.452,0.389,0.695,0.588c0.005,0.131,0.005,0.262,0.005,0.394
	c0.004,0.391,0.224,0.639,0.503,0.749c-1.257,4.972-1.199,10.165-0.751,15.258c0.511,5.858,1.649,11.631,3.195,17.3
	c0.432,1.579,0.893,3.15,1.368,4.715c-0.077-0.159-0.16-0.318-0.238-0.48c-0.623-1.295-1.383-2.477-2.2-3.656
	c-1.672-2.41-3.484-4.714-5.257-7.049c-1.746-2.297-3.602-4.546-5.689-6.544c-2.185-2.093-4.697-3.799-7.104-5.621
	c0.484-0.52,0.762-1.262,1.066-1.873c0.475-0.948,0.949-1.894,1.398-2.853c0.689-1.465,1.407-2.985,1.772-4.569
	c0.368-1.589,0.352-3.322-0.781-4.607c-0.521-0.595-1.289-1.013-2.095-0.946c-0.747,0.062-1.39,0.469-1.906,0.992
	c-1.061,1.078-1.707,2.56-2.1,3.997c-0.12,0.441-0.216,0.888-0.294,1.339c-0.28-0.615-0.594-1.216-0.938-1.798
	c-0.854-1.44-1.916-2.773-3.28-3.76c-1.217-0.882-2.909-1.518-4.418-1.1c-1.438,0.4-2.283,1.737-2.512,3.149
	c-0.289,1.782,0.084,3.591,0.954,5.165C160.602,90.032,161.898,91.297,163.311,92.371z M180.642,147.685
	c-1.289-0.778-2.716-1.722-3.625-2.951c-0.349-0.472-0.649-1.062-0.554-1.664c0.037-0.234,0.185-0.44,0.232-0.605
	c0.013,0.005,0.028,0.009,0.045,0.015c0.03,0.017,0.064,0.028,0.15,0.079c2.477,1.457,4.246,3.66,5.602,6.142
	C181.865,148.38,181.245,148.048,180.642,147.685z M190.463,149.016c0.628-0.312,1.267-0.596,1.939-0.788
	c0.592-0.168,1.347-0.34,1.9-0.08c0.068,0.032,0.24,0.199,0.273,0.313c-0.018-0.002-0.044,0.171-0.048,0.178
	c-0.036,0.079-0.146,0.238-0.197,0.301c-0.407,0.476-0.969,0.78-1.534,1.051c-0.538,0.258-0.878,0.398-1.486,0.613
	c-0.613,0.217-1.24,0.398-1.881,0.521c-0.55,0.105-1.137,0.155-1.762,0.089c-0.015-0.001-0.174-0.025-0.31-0.058
	c-0.095-0.021-0.187-0.051-0.279-0.079c0.108-0.099,0.226-0.2,0.33-0.283c0.316-0.249,0.657-0.468,1.002-0.676
	C189.073,149.713,189.769,149.36,190.463,149.016z M184.377,142.638c0.051-1.443,0.252-2.883,0.729-4.251
	c0.407-1.167,1.104-2.378,2.109-2.979c0.477-0.283,0.859-0.398,1.358-0.381c0.013,0,0.059,0.005,0.084,0.006
	c0.045,0.008,0.087,0.016,0.13,0.026c0.026,0.006,0.274,0.095,0.252,0.078c0.28,0.13,0.414,0.235,0.626,0.5
	c0.779,0.972,0.817,2.469,0.721,3.718c-0.108,1.392-0.449,2.838-0.986,4.126c-0.679,1.61-1.712,3.05-2.618,4.533
	c-0.324,0.531-0.672,1.024-1.067,1.49c-0.084,0.015-0.163,0.039-0.241,0.075c-0.441-0.833-0.673-1.829-0.825-2.674
	C184.396,145.506,184.326,144.057,184.377,142.638z M233.796,159.321c0.462-1.214,1.078-2.394,1.747-3.467
	c0.479-0.767,1.022-1.485,1.661-2.127c0.69-0.696,1.49-1.238,2.325-1.751c0.841-0.517,1.704-1.025,2.591-1.461
	c0.685-0.336,1.49-0.67,2.259-0.573c0.599,0.077,1.163,0.646,1.469,1.175c0.33,0.57,0.408,1.127,0.353,1.831
	c-0.104,1.378-1.015,2.816-2.044,3.848c-1.456,1.455-3.334,2.384-5.261,3.052c-1.041,0.362-2.098,0.67-3.175,0.913
	c-0.72,0.165-1.444,0.32-2.158,0.506C233.785,160.674,233.82,159.986,233.796,159.321z M233.304,163.3
	c0.137-0.044,0.274-0.085,0.414-0.124c0.079-0.013,0.157-0.025,0.238-0.035c0.414-0.052,0.84-0.069,1.256-0.044
	c0.718,0.044,1.392,0.302,2.007,0.658c1.236,0.714,2.191,1.773,2.962,2.958c0.918,1.406,1.683,2.925,2.431,4.426
	c0.108,0.216,0.204,0.426,0.358,0.615c0.097,0.118,0.203,0.232,0.259,0.379c0.033,0.091,0.041,0.173,0.033,0.254
	c-0.28,0.063-0.565,0.118-0.844,0.087c-0.495-0.06-1.012-0.205-1.468-0.412c-0.94-0.432-1.873-0.912-2.736-1.487
	c-1.602-1.065-2.771-2.474-3.658-4.173c-0.426-0.812-0.797-1.655-1.124-2.512c-0.068-0.177-0.121-0.353-0.165-0.528
	C233.279,163.342,233.289,163.32,233.304,163.3z M229.423,153.722c-0.308-1.042-0.563-2.237-0.278-3.298
	c0.057-0.225,0.127-0.409,0.25-0.604c0.04-0.064,0.091-0.117,0.142-0.178c0.003,0.005,0.003,0.003,0.005,0
	c0.024,0.013,0.049,0.024,0.071,0.039c0.025,0.015,0.156,0.105,0.172,0.111c0.092,0.076,0.181,0.16,0.264,0.247
	c0.571,0.59,1.003,1.356,1.23,2.199c0.29,1.076,0.374,2.192,0.433,3.302c0.05,0.935,0.083,1.866,0.154,2.799
	c0.018,0.24,0.033,0.48,0.043,0.72c-0.051,0.133-0.097,0.266-0.144,0.398c-0.326-0.645-0.627-1.299-0.915-1.96
	C230.315,156.27,229.8,155.007,229.423,153.722z M252.157,96.302c1.28-0.65,2.505-1.384,3.736-2.122
	c2.04-1.226,4.274-2.241,6.674-2.468c0.266-0.025,0.531-0.039,0.796-0.036c0.238,0.002,0.503,0.022,0.642,0.053
	c0.224,0.05,0.476,0.127,0.606,0.201c0.031,0.018,0.137,0.097,0.146,0.098c0.022,0.02,0.044,0.041,0.063,0.063
	c0.008,0.009,0.012,0.017,0.021,0.031c0.014,0.026,0.022,0.035,0.026,0.038c0,0.013,0.004,0.034,0.011,0.072
	c0.001,0.014,0.002,0.022,0.005,0.029c0,0.019,0.004,0.038,0.004,0.056c-0.003,0.033-0.008,0.206-0.004,0.213
	c-0.02,0.124-0.051,0.249-0.081,0.368c-0.116,0.437-0.31,0.813-0.585,1.186c-1.277,1.715-3.628,2.59-5.684,2.867
	c-1.598,0.216-3.236,0.08-4.81-0.237c-0.56-0.113-1.118-0.242-1.678-0.359C252.082,96.338,252.119,96.321,252.157,96.302z
	 M252.808,99.165c1.019,0.348,2.018,0.846,2.791,1.607c0.311,0.305,0.574,0.635,0.785,1.016c0.095,0.168,0.176,0.34,0.257,0.515
	c0.019,0.037,0.024,0.052,0.027,0.058c0.004,0.009,0.012,0.024,0.022,0.055c0.047,0.119,0.095,0.239,0.134,0.36
	c0.188,0.542,0.273,0.868,0.266,1.339c0,0.043-0.004,0.086-0.004,0.13c-0.002,0.013,0,0.019,0,0.024
	c-0.003,0.007-0.003,0.011-0.006,0.019c-0.009,0.037-0.052,0.169-0.059,0.204c-0.004,0.007-0.008,0.014-0.01,0.021
	c0,0.001-0.003,0.002-0.003,0.002l0,0c-0.006,0.013-0.012,0.023-0.016,0.028c-0.055,0.053-0.015-0.002,0.008-0.028
	c-0.762-0.049-1.425-0.305-2.084-0.734c-0.736-0.481-1.45-0.881-2.08-1.511c-1.101-1.102-2.148-2.388-2.905-3.775
	c0.085,0.014,0.171,0.026,0.252,0.039C251.078,98.674,251.945,98.871,252.808,99.165z M249.646,93.009
	c0.244-1.859,0.701-3.719,1.6-5.377c0.479-0.889,1.017-1.701,1.75-2.405c0.306-0.298,0.634-0.693,1.021-0.889
	c0.202-0.102,0.392-0.123,0.596-0.101c0.346,0.755,0.283,1.5-0.1,2.303c-0.519,1.092-0.987,2.23-1.657,3.241
	c-0.896,1.348-2.058,2.494-3.255,3.583C249.615,93.247,249.63,93.127,249.646,93.009z M256.698,67.351
	c0.99-0.37,2.032-0.712,3.072-0.684c0.348,0.01,0.755,0.096,0.943,0.268c0.019,0.015,0.026,0.024,0.034,0.029
	c0.021,0.032,0.039,0.063,0.059,0.097c0,0.015,0.046,0.132,0.055,0.162c0,0.009,0.004,0.027,0.004,0.044
	c0.004,0.045,0.004,0.093,0.001,0.138c-0.014,0.183,0.009,0.058-0.025,0.195c-0.104,0.409-0.289,0.684-0.63,0.991
	c-0.269,0.239-0.746,0.501-1.108,0.642c-0.981,0.383-1.951,0.539-2.968,0.556c-1.124,0.02-2.153-0.3-3.144-0.78
	c0.417-0.095,0.818-0.279,1.195-0.471C255.069,68.087,255.825,67.677,256.698,67.351z M252.298,65.953
	c0.306-1.278,0.698-2.538,1.238-3.74c0.476-1.059,1.033-2.12,1.818-2.985c0.391-0.432,0.822-0.818,1.325-1.114
	c0.392-0.231,0.854-0.414,1.219-0.346c0.349,0.064,0.689,0.369,0.843,0.688c-0.011-0.008,0.052,0.171,0.063,0.211
	c0.009,0.037,0.018,0.075,0.021,0.113c0,0.018,0.001,0.041,0.001,0.077c0.003,0.102,0,0.204-0.005,0.305
	c-0.009,0.115-0.009,0.095-0.047,0.271c-0.205,0.931-0.701,1.745-1.274,2.534c-0.022,0.031-0.044,0.062-0.067,0.092
	c-0.001,0.003-0.001,0.002-0.001,0.004c-0.074,0.09-0.146,0.178-0.222,0.265c-0.213,0.246-0.441,0.477-0.681,0.697
	c-0.465,0.43-0.969,0.814-1.479,1.188c-0.525,0.384-1.053,0.763-1.567,1.161c-0.416,0.321-0.798,0.72-1.28,0.952
	C252.235,66.198,252.267,66.074,252.298,65.953z M249.859,64.055c-0.188-0.417-0.292-0.668-0.478-1.157
	c-0.375-0.998-0.689-2.031-0.859-3.087c-0.139-0.88-0.17-1.918,0.167-2.707c0.059-0.136,0.131-0.256,0.209-0.371
	c0.264,0.297,0.445,0.653,0.583,1.044c0.281,0.803,0.504,1.644,0.668,2.479c0.308,1.587,0.32,3.21,0.22,4.82
	C250.188,64.742,250.016,64.402,249.859,64.055z M240.812,36.193c0.387-0.093,0.78-0.176,1.174-0.25
	c0.295-0.056,0.692-0.13,0.897-0.145c0.128-0.008,0.252-0.015,0.379-0.008c-0.001,0,0.144,0.024,0.181,0.033
	c-0.024-0.005,0.095,0.09,0.021-0.01c0.031,0.041,0.059,0.093,0.085,0.143c0,0.008,0.021,0.061,0.032,0.096
	c0.001,0.006,0.004,0.01,0.009,0.022c0.002,0.004,0.002,0.018,0.002,0.03c-0.002-0.007-0.003-0.015-0.003-0.028
	c-0.003-0.005-0.004-0.014-0.008-0.024c-0.02-0.042,0.008,0.069,0.011,0.067c0,0.002,0,0.002,0,0.006
	c-0.011,0.018-0.04,0.128-0.022,0.11c-0.031,0.065-0.07,0.129-0.113,0.188c0.014-0.03-0.165,0.17-0.197,0.198
	c-0.019,0.019-0.143,0.119-0.16,0.136c-0.093,0.068-0.189,0.132-0.289,0.193c-0.216,0.135-0.444,0.254-0.675,0.363
	c-0.027,0.012-0.223,0.099-0.23,0.105c-0.081,0.033-0.161,0.065-0.241,0.095c-0.24,0.092-0.485,0.176-0.73,0.25
	c-0.704,0.212-1.428,0.355-2.16,0.431c-0.776,0.081-1.557,0.107-2.339,0.1c-0.355-0.003-0.738-0.003-1.113-0.016
	c0.291-0.162,0.585-0.32,0.886-0.473C237.653,37.067,239.232,36.567,240.812,36.193z M236.735,31.25
	c0.785-1.311,1.606-2.629,2.53-3.851c0.373-0.496,0.837-1.021,1.34-1.43c0.171-0.136,0.453-0.323,0.713-0.435
	c0-0.001,0.004-0.002,0.008-0.003c0.441,1.746-1.169,3.537-2.283,4.83c-0.848,0.982-1.669,1.988-2.567,2.926
	c-0.497,0.521-1.018,1.024-1.571,1.485c-0.055,0.045-0.108,0.089-0.163,0.135C235.357,33.662,236.022,32.442,236.735,31.25z
	 M231.288,28.565c0.078-0.436,0.167-0.93,0.351-1.307c0.056-0.117,0.101-0.187,0.155-0.254c0.048,0.104,0.097,0.208,0.134,0.316
	c0.147,0.429,0.249,0.873,0.323,1.321c0.127,0.787,0.141,1.596,0.133,2.392c-0.011,1.541-0.212,3.024-0.517,4.517
	c-0.01-0.038-0.019-0.076-0.029-0.114c-0.309-1.215-0.58-2.403-0.657-3.656C231.113,30.707,231.105,29.628,231.288,28.565z
	 M217.695,27.842c-0.037,0.173-0.226,0.487-0.323,0.689c-0.307,0.619-0.663,1.211-1.073,1.768c-0.794,1.086-1.73,2.117-2.683,3.066
	c-0.803,0.803-1.684,1.477-2.57,2.166C212.502,32.335,214.329,28.864,217.695,27.842z M202.527,40.445
	c-1.225,0.279-2.73,0.576-3.927,0.025c-0.386-0.177-0.973-0.561-0.798-0.965c0.063-0.147,0.215-0.267,0.333-0.338
	c0.054-0.032,0.204-0.112,0.247-0.137c0.029-0.009,0.117-0.042,0.129-0.046c0.077-0.025,0.155-0.049,0.235-0.07
	c0.895-0.235,2.149-0.085,3.056,0.057c1.188,0.188,2.466,0.334,3.631,0.723C204.471,39.974,203.497,40.224,202.527,40.445z
	 M208.553,35.838c-0.116,0.574-0.278,1.136-0.429,1.702c-0.654-0.71-1.271-1.453-1.793-2.265c-0.804-1.249-1.439-2.705-1.773-4.153
	c-0.31-1.345,0.012-2.604,0.969-3.6c0.369-0.388,0.554-0.537,0.979-0.271c0.361,0.227,0.727,0.66,0.987,1.085
	c0.624,1.007,0.962,2.17,1.17,3.357c0.054,0.314,0.062,0.362,0.093,0.673c0.034,0.354,0.046,0.706,0.045,1.06
	C208.796,34.237,208.72,35.044,208.553,35.838z M196.334,49.987c0.119-0.12,0.241-0.235,0.369-0.348
	c-0.004,0.002,0.055-0.044,0.089-0.074c0.039-0.03,0.117-0.088,0.11-0.083c0.234-0.164,0.484-0.314,0.746-0.433
	c0.008,0.002,0.217-0.077,0.261-0.09c0.054-0.017,0.293-0.052,0.258-0.057c0.051,0,0.101-0.002,0.148-0.002c0.004,0,0.004,0,0.008,0
	c0.006,0.002,0.01,0.002,0.018,0.005c0.012,0.004,0.029,0.01,0.046,0.015c0.01,0.006,0.021,0.012,0.028,0.018
	c0.026,0.025,0.075,0.081,0.094,0.124c0.055,0.117,0.1,0.327,0.11,0.401c0.035,0.284-0.015,0.555-0.104,0.861
	c-0.205,0.695-0.624,1.335-1.069,1.904c-0.968,1.241-2.166,2.292-3.426,3.226c-0.352,0.264-0.708,0.526-1.061,0.789
	C193.652,53.939,194.636,51.675,196.334,49.987z M188.342,59.95c-0.839,0.408-1.691,0.787-2.56,1.123
	c-0.735,0.285-1.477,0.552-2.231,0.776c-0.572,0.172-1.11,0.3-1.589,0.317c-0.138,0.004-0.275,0.002-0.41-0.009
	c-0.018-0.001-0.025-0.001-0.031-0.001c-0.013-0.002-0.021-0.004-0.038-0.008c-0.057-0.011-0.112-0.024-0.167-0.04
	c-0.038-0.01-0.078-0.024-0.116-0.038c-0.019-0.009-0.051-0.023-0.063-0.029c0.007,0.003-0.065-0.044-0.107-0.071
	c-0.031-0.032-0.097-0.093-0.104-0.095c-0.086-0.112-0.179-0.357-0.193-0.477c0.007,0.006,0.019-0.189,0.009-0.202
	c0.025-0.082,0.066-0.188,0.06-0.188c0.043-0.069,0.117-0.179,0.113-0.185c0.058-0.068,0.12-0.134,0.186-0.196
	c0.05-0.047,0.101-0.091,0.154-0.134c0.004-0.004,0.004-0.006,0.008-0.008c0.013-0.008,0.024-0.015,0.043-0.027
	c0.12-0.08,0.242-0.158,0.368-0.229c0.503-0.283,0.832-0.399,1.439-0.58c1.381-0.409,2.826-0.606,4.261-0.411
	c0.583,0.081,1.171,0.216,1.764,0.314C188.872,59.686,188.606,59.82,188.342,59.95z M190.545,56.067
	c-0.036,0.487-0.078,0.855-0.159,1.295c-0.276-0.329-0.646-0.592-1.026-0.896c-0.676-0.542-1.23-1.228-1.76-1.91
	c-1.004-1.293-2.131-2.548-2.893-4.007c-0.653-1.249-0.898-2.768-0.356-4.106c0.016-0.028,0.048-0.104,0.059-0.119
	c0.034-0.068,0.072-0.137,0.113-0.201c0.021-0.036,0.047-0.07,0.071-0.104c0.013-0.016,0.039-0.046,0.051-0.055
	c0.046-0.048,0.093-0.095,0.143-0.138c0.014-0.007,0.028-0.013,0.047-0.024c0.027-0.015,0.055-0.029,0.079-0.043
	c0.025-0.006,0.126-0.042,0.146-0.046c0.026-0.004,0.043-0.008,0.058-0.01c0.054-0.001,0.106-0.003,0.158-0.005
	c0.023-0.001,0.095,0.005,0.124,0.005c0.051,0.009,0.101,0.019,0.147,0.031c0.336,0.08,0.607,0.212,0.91,0.384
	c1.045,0.595,1.881,1.452,2.506,2.465c0.69,1.123,1.093,2.269,1.362,3.593C190.575,53.396,190.646,54.739,190.545,56.067z
	 M188.226,77.34c-0.663-0.478-1.289-0.981-1.901-1.519c-0.421-0.369-0.844-0.735-1.238-1.133c-0.229-0.231-0.457-0.471-0.656-0.729
	c-0.004-0.008-0.117-0.17-0.146-0.21c-0.046-0.074-0.093-0.149-0.135-0.225c-0.013-0.02-0.055-0.107-0.07-0.136
	c-0.019-0.061-0.039-0.15-0.052-0.187c0.004-0.006,0.005-0.01,0.008-0.014c0.005-0.004,0.008-0.007,0.014-0.013
	c0.009-0.002,0.021-0.004,0.03-0.005c0.031,0.001,0.136,0,0.205,0c-0.015,0.007,0.233,0.057,0.283,0.073
	c0.162,0.049,0.208,0.07,0.278,0.103c0.14,0.063,0.274,0.133,0.407,0.208c0.264,0.147,0.514,0.311,0.763,0.483
	c0.093,0.063,0.182,0.129,0.271,0.195c0.012,0.008,0.093,0.071,0.12,0.09c0.034,0.029,0.071,0.058,0.107,0.087
	c0.469,0.378,0.922,0.797,1.274,1.288c0.443,0.621,0.734,1.293,0.923,1.995C188.549,77.576,188.388,77.458,188.226,77.34z
	 M211.583,95.559c0.18-1.077,0.346-2.157,0.506-3.239c0.153,0.375,0.305,0.752,0.447,1.132c1.273,3.357,2.165,6.826,3.199,10.259
	c0.516,1.711,1.117,3.387,1.422,5.154c0.276,1.619,0.346,3.271,0.18,4.907c-0.271,2.664-1.148,5.25-2.203,7.715
	c-0.914,1.463-1.8,2.956-2.521,4.522c-0.635,1.384-1.13,2.826-1.646,4.258c-0.282,0.607-0.556,1.217-0.819,1.833
	c-1.217,2.845-2.313,5.758-3.253,8.71c-0.013-0.251-0.026-0.505-0.037-0.757c-0.16-3.707-0.173-7.476,0.091-11.178
	c0.269-3.763,0.711-7.521,1.07-11.276c0.357-3.765,0.807-7.524,1.428-11.255C210.047,102.727,210.976,99.177,211.583,95.559z
	 M191.33,72.853c0.24-1.041,0.646-1.979,1.328-2.725c0.38-0.413,0.73-0.732,1.241-0.957c0.35-0.155,0.764-0.216,1.131-0.096
	c0.004,0.008,0.159,0.081,0.222,0.115c0.004,0.011,0.15,0.141,0.142,0.13c0.189,0.223,0.21,0.334,0.269,0.607
	c0.026,0.128,0.019,0.039,0.022,0.212c0.007,0.146,0.008,0.29-0.001,0.437c-0.018,0.293-0.06,0.519-0.14,0.837
	c-0.632,2.575-2.302,4.624-4.007,6.621c-0.029,0.034-0.059,0.067-0.088,0.103c-0.146-0.663-0.253-1.321-0.305-1.969
	C191.055,75.021,191.088,73.903,191.33,72.853z M198.037,82.598c-0.015,0.011-0.024,0.025-0.015,0.038
	c-0.004,0.002-0.005,0.004-0.006,0.006c-0.004,0.001-0.004,0.001-0.009,0.002c-0.039,0.011-0.197,0.045-0.243,0.058
	c-0.02,0.002-0.044,0.004-0.047,0.004c-0.058,0.002-0.119,0.004-0.179,0.005c-0.119,0-0.239-0.005-0.36-0.015
	c-0.057-0.005-0.119-0.012-0.177-0.019c-0.017-0.001-0.021-0.002-0.031-0.003c-0.004-0.001-0.012-0.002-0.023-0.004
	c-1.084-0.166-2.175-0.428-3.124-0.94c-0.657-0.355-1.184-0.79-1.568-1.345c0.062-0.089,0.104-0.191,0.134-0.297
	c0.114-0.027,0.23-0.05,0.348-0.069c0.7-0.105,1.454-0.096,2.145,0.067c0.216,0.051,0.427,0.118,0.635,0.192
	c0.298,0.107,0.318,0.118,0.58,0.245c0.231,0.113,0.461,0.237,0.681,0.375c0.256,0.159,0.431,0.283,0.599,0.435
	c0.088,0.077,0.171,0.157,0.249,0.243c0.096,0.1,0.159,0.177,0.159,0.18c0.193,0.273,0.201,0.288,0.264,0.552
	c0.001,0.003,0.004,0.021,0.008,0.039c0,0.035,0.004,0.096,0.004,0.111c0,0.013,0,0.11-0.003,0.131c-0.001,0-0.001,0-0.001,0
	c0-0.004,0-0.01,0-0.021C198.051,82.51,197.992,82.608,198.037,82.598z M191.256,101.673c-0.862-5.692-1.339-11.637-0.629-17.371
	c0.101-0.812,0.238-1.621,0.401-2.426c1.118,1.294,2.766,2.049,4.417,2.419c1.455,0.326,3.728,0.731,4.366-1.084
	c0.708-2.009-1.36-3.669-2.952-4.395c-0.945-0.431-1.886-0.684-2.932-0.727c0.058-0.067,0.111-0.136,0.169-0.202
	c0.722-0.865,1.427-1.751,1.96-2.748c0.79-1.469,1.601-3.253,1.515-4.968c1.536,1.699,3.2,3.286,4.622,5.094
	c2.167,2.759,3.82,5.84,5.653,8.82c1.047,1.707,2.016,3.443,2.89,5.228c-0.197,1.472-0.4,2.943-0.613,4.412
	c-0.53,3.661-1.396,7.248-2.058,10.882c-1.354,7.444-1.984,15.03-2.729,22.553c-0.368,3.729-0.372,7.5-0.284,11.245
	c0.046,1.879,0.244,3.748,0.314,5.625c0.037,0.942,0.02,1.882-0.055,2.82c-0.058,0.745-0.193,1.492-0.197,2.238
	c0,0.064,0.002,0.126,0.004,0.188c-0.347-1.721-0.739-3.432-1.216-5.123c-0.802-2.842-1.885-5.592-2.864-8.375
	c-1.981-5.638-3.883-11.313-5.675-17.016C193.604,113.17,192.136,107.472,191.256,101.673z M173.134,83.464
	c0.181-0.273,0.261-0.383,0.485-0.619c0.07-0.071,0.141-0.14,0.213-0.206c0.008-0.006,0.051-0.04,0.066-0.057
	c0.052-0.037,0.104-0.072,0.159-0.105c0.031-0.019,0.202-0.088,0.186-0.088c0.022-0.007,0.046-0.014,0.067-0.02
	c0.026-0.005,0.06-0.011,0.083-0.009c0.022,0,0.03,0,0.035-0.002c0.006,0.002,0.008,0.002,0.012,0.004
	c0.046,0.013,0.07,0.019,0.085,0.022c0.264,0.123,0.48,0.361,0.611,0.596c0.14,0.251,0.24,0.513,0.286,0.855
	c0.032,0.23,0.024,0.738-0.019,1.066c-0.082,0.666-0.325,1.442-0.573,2.116c-0.617,1.688-1.49,3.411-2.348,5.124
	c-0.191,0.385-0.381,0.771-0.575,1.155c-0.024-0.095-0.05-0.191-0.069-0.284c-0.113-0.509-0.225-1.018-0.345-1.523
	C171.457,88.687,171.61,85.779,173.134,83.464z M168.257,96.412c-0.847,0.506-1.706,0.986-2.585,1.429
	c-1.213,0.611-2.484,1.213-3.824,1.493c0.004-0.001-0.072,0.012-0.121,0.021c-0.047,0.006-0.115,0.015-0.115,0.015
	c-0.116,0.008-0.232,0.014-0.348,0.01c-0.049-0.001-0.092-0.004-0.139-0.008c-0.002-0.001-0.006-0.002-0.01-0.003
	c-0.028-0.013-0.098-0.031-0.131-0.036c-0.206-0.028,0.158,0.018-0.023-0.009c-0.008-0.001-0.016-0.005-0.027-0.011
	c0.002,0.002,0.004,0.002,0.004,0.004c0,0-0.004-0.004-0.004-0.006c-0.01-0.004-0.019-0.011-0.029-0.019
	c0.002-0.001,0.002-0.003,0.002-0.006c-0.01-0.007-0.017-0.015-0.027-0.022c0.008,0.004,0.016,0.013,0.027,0.022
	c0-0.019-0.008-0.039-0.031-0.046c-0.004-0.007-0.008-0.013-0.011-0.021c-0.019-0.064-0.036-0.127-0.05-0.194
	c0-0.011,0-0.02,0-0.033c-0.007-0.086-0.008-0.174-0.004-0.261c0-0.052,0.004-0.104,0.006-0.157c0.023-0.116,0.053-0.229,0.092-0.34
	c0.002-0.006,0.007-0.014,0.01-0.019c0.039-0.075,0.082-0.145,0.124-0.218c0.021-0.031,0.041-0.061,0.063-0.09
	c0.015-0.017,0.038-0.045,0.046-0.056c0.113-0.121,0.23-0.233,0.356-0.34c0.03-0.02,0.165-0.123,0.198-0.145
	c0.131-0.087,0.266-0.166,0.403-0.242c0.339-0.184,0.454-0.234,0.749-0.346c1.132-0.429,2.352-0.689,3.55-0.851
	c0.974-0.131,1.965-0.188,2.946-0.167C168.983,95.983,168.601,96.206,168.257,96.412z M160.659,83.492
	c0.132-0.592,0.288-0.947,0.687-1.299c0.006-0.006,0.008-0.008,0.012-0.011c0.01-0.007,0.018-0.011,0.033-0.021
	c0.047-0.03,0.097-0.061,0.146-0.087c0.029-0.016,0.061-0.031,0.094-0.046c0.016-0.002,0.15-0.05,0.162-0.055
	c0.268-0.073,0.391-0.081,0.764-0.045c0.572,0.055,1.257,0.347,1.818,0.698c1.188,0.745,2.121,1.929,2.861,3.133
	c0.862,1.408,1.445,2.779,1.928,4.318c0.169,0.542,0.32,1.09,0.461,1.64c0.004,0.482,0.011,0.964,0.021,1.445
	c-0.1-0.014-0.196-0.026-0.297-0.04c-0.764-0.106-1.63-0.373-2.367-0.713c-1.551-0.714-2.99-1.744-4.178-2.973
	c-1.059-1.099-1.879-2.412-2.162-3.928C160.518,84.835,160.531,84.062,160.659,83.492z"/>
</svg>
