<?xml version="1.0" encoding="utf-8"?>
<!-- Generator: Adobe Illustrator 16.0.0, SVG Export Plug-In . SVG Version: 6.00 Build 0)  -->
<!DOCTYPE svg PUBLIC "-//W3C//DTD SVG 1.1//EN" "http://www.w3.org/Graphics/SVG/1.1/DTD/svg11.dtd">
<svg version="1.1" id="圖層_1" xmlns="http://www.w3.org/2000/svg" xmlns:xlink="http://www.w3.org/1999/xlink" x="0px" y="0px"
	 width="300px" height="300px" viewBox="0 0 300 300" enable-background="new 0 0 300 300" xml:space="preserve">
<path fill="#3A3A3A" d="M244.309,101.801c-1.144,0.6-1.874,1.793-2.546,2.852c-0.854,1.346-1.796,2.632-2.711,3.938
	c-1.144,1.632-2.255,3.271-3.57,4.773c-1.225,1.397-2.564,2.659-3.934,3.912c-5.479,5.014-11.583,9.163-17.935,12.986
	c-13.425,8.081-27.424,15.147-40.683,23.514c-5.702,3.599-11.283,7.379-16.676,11.402c1.74-4.293,3.47-8.592,5.029-12.955
	c1.661-4.649,3.037-9.383,4.374-14.136c1.353-4.802,2.764-9.569,4.389-14.288c1.608-4.678,2.798-9.491,4.49-14.142
	c0.821-2.257,1.852-4.432,2.646-6.698c0.648-1.85,0.993-3.772,1.78-5.562c5.127,0.078,10.253-0.141,15.337-0.824
	c2.534-0.34,5.028-0.812,7.476-1.566c2.432-0.75,4.8-1.697,7.143-2.685c4.569-1.926,8.89-4.176,12.947-7.04
	c4.164-2.937,8.069-6.241,11.506-10.008c6.476-7.101,12.391-16.016,12.511-25.97c0.027-2.357-0.414-4.703-1.462-6.823
	c-0.963-1.946-2.429-3.621-4.081-5.011c-1.858-1.562-3.923-3.007-6.151-3.983c-1.192-0.522-2.461-0.847-3.767-0.9
	c-1.037-0.043-2.11,0.185-3.142,0.026c-0.974-0.149-1.914-0.678-2.774-1.164c-1.101-0.621-2.176-1.271-3.338-1.774
	c-2.166-0.938-4.632-1.01-6.854-0.216c-0.119,0.042-0.232,0.097-0.351,0.145c-0.604-0.983-1.556-1.475-2.428-2.198
	c-0.921-0.765-1.765-1.617-2.739-2.316c-2.05-1.47-4.723-2.397-7.182-2.877c-1.245-0.242-2.389-0.271-3.643-0.114
	c-1.035,0.129-2.127,0.437-3.177,0.31c-1.253-0.151-2.36-1.01-3.459-1.565c-1.229-0.621-2.468-1.237-3.744-1.756
	c-2.244-0.913-4.688-1.428-7.079-0.785c-1.159,0.313-2.275,0.835-3.254,1.526c-0.525,0.369-1.006,0.78-1.501,1.186
	c-0.387,0.317-1.011,0.898-1.341,1.031c-0.785,0.317-1.82-0.206-2.532-0.506c-1.011-0.425-1.966-0.82-3.058-0.988
	c-2.213-0.339-4.43,0.199-6.406,1.205c-9.19,4.677-11.585,16.429-11.317,25.824c0.15,5.267,0.91,10.576,1.983,15.729
	c0.98,4.704,2.242,9.486,3.995,13.967c0.844,2.159,1.913,4.225,3.397,6.017c0.803,0.968,1.811,1.784,2.744,2.622
	c1.016,0.911,1.972,1.864,2.93,2.833c1.805,1.826,3.637,3.674,5.743,5.158c1.314,0.927,2.771,1.706,4.289,2.296
	c-0.131,0.272-0.256,0.547-0.364,0.831c-0.443,1.159-0.714,2.378-1.049,3.569c-0.665,2.355-1.706,4.573-2.604,6.843
	c-0.94,2.381-1.706,4.829-2.446,7.278c-0.731,2.416-1.428,4.842-2.221,7.239c-0.806,2.437-1.665,4.851-2.411,7.308
	c-1.481,4.863-2.758,9.785-4.218,14.654c-1.461,4.876-3.196,9.658-5.055,14.395c-0.003,0.006-0.006,0.012-0.008,0.02
	c-0.196-3.03-0.318-6.072-0.647-9.087c-0.351-3.208-0.932-6.373-1.18-9.594c-0.238-3.097-0.589-6.196-1.226-9.24
	c-1.332-6.369-4.331-12.207-6.989-18.098c-1.263-2.797-2.437-5.598-3.378-8.521c-0.89-2.76-1.703-5.547-2.792-8.239
	c-1.276-3.152-3.05-6.163-5.311-8.715c-1.002-1.13-2.114-2.048-3.449-2.698c-0.064-0.215-0.223-0.406-0.501-0.5
	c-1.179-0.401-2.327-0.987-3.577-1.136c-1.1-0.131-2.28,0.147-3.334,0.448c-2.142,0.61-3.931,2.067-5.398,3.695
	c-1.74,1.93-3.707,3.672-5.062,5.916c-1.37,2.27-2.274,4.778-3.332,7.199c-1.079,2.469-2.338,4.867-3.605,7.244
	c-1.229,2.305-2.469,4.611-3.91,6.792c-1.392,2.105-2.985,4.037-4.865,5.724c-1.799,1.615-3.793,2.967-5.867,4.204
	c-2.146,1.28-4.349,2.585-6.765,3.282c-1.273,0.367-2.588,0.588-3.904,0.727c-0.74,0.078-1.491,0.138-2.235,0.145
	c-0.751,0.007-1.457-0.175-2.222-0.099c-1.335,0.133-1.889,1.422-1.108,2.494c0.673,0.923,1.717,1.43,2.659,2.024
	c1.098,0.696,2.148,1.458,3.288,2.087c2.372,1.31,4.991,1.966,7.664,2.306c2.658,0.339,5.352,0.294,8.022,0.148
	c2.529-0.137,5.053-0.451,7.535-0.958c2.418-0.494,4.839-1.139,7.15-2.009c2.276-0.856,4.286-2.188,6.131-3.762
	c3.118-2.66,5.733-5.802,8.353-8.936c0.085,0.089,0.172,0.178,0.256,0.269c0.018,0.019,0.056,0.063,0.079,0.088
	c0.06,0.092,0.117,0.189,0.171,0.278c0.34,0.551,0.659,1.112,0.943,1.692c1.091,2.229,1.493,4.671,1.704,7.123
	c0.232,2.702,0.461,5.375,0.838,8.061c0.371,2.637,0.549,5.302,0.56,7.964c0.01,2.845-0.21,5.69-0.399,8.527
	c-0.192,2.873-0.417,5.745-0.811,8.598c-0.4,2.887-0.96,5.749-1.468,8.617c-0.507,2.864-0.937,5.741-1.443,8.605
	c-0.565,3.197-1.181,6.407-2.063,9.535c-0.871,3.09-2.055,6.075-3.258,9.048c-4.328,5.601-8.324,11.457-11.942,17.55
	c-8.128,13.687-14.272,28.272-18.418,43.64c-0.515,1.91-1.003,3.827-1.474,5.749c-0.074,0.304-0.017,0.566,0.115,0.774
	c-0.345,0.522-0.711,0.989-1.135,1.508c-0.499,0.606-0.831,1.313-1.151,2.027c-0.166,0.368-0.337,1.137-0.599,1.551
	c-0.248,0.179-0.441,0.443-0.544,0.807c-0.326,1.15,0.883,2.035,1.913,1.548c0.021-0.01,0.041-0.023,0.062-0.034
	c0.343-0.111,0.608-0.36,0.77-0.668c0.152-0.196,0.284-0.416,0.406-0.646c0.014-0.007,0.027-0.014,0.041-0.021
	c0.146,0.074,0.313,0.124,0.509,0.134c5.43,0.249,9.945-2.94,14.268-5.789c5.188-3.421,10.209-7.063,14.767-11.303
	c4.638-4.314,8.908-9.154,12.53-14.353c1.837-2.634,3.407-5.424,5.017-8.2c1.689-2.915,3.367-5.844,4.838-8.878
	c1.65-3.4,3.204-6.885,4.688-10.361c0.735-1.72,1.374-3.483,1.891-5.283c0.218-0.76,0.486-1.421,0.835-2.127
	c0.215-0.433,0.353-0.865,0.465-1.304c13.047-9.257,26.39-18.059,39.678-26.962c6.648-4.455,13.391-8.846,19.706-13.769
	c5.988-4.668,11.312-10.005,16.031-15.952c4.824-6.082,8.851-12.663,12.031-19.744c1.604-3.57,3.093-7.212,4.431-10.89
	c1.362-3.743,2.373-7.658,3.91-11.331c0.597-1.426,1.358-2.791,1.386-4.376C246.104,101.968,245.108,101.38,244.309,101.801z
	 M175.75,28.992c1.361-0.654,2.997-1.427,4.513-1.587c0.727-0.077,1.452,0.198,2.145,0.576c-0.001,0.01-0.004,0.02-0.005,0.03
	c-0.036,0.207,0.002,0.412,0.137,0.553c-2.697,3.228-5.376,6.537-7.423,10.225c-2.084,3.753-3.761,7.852-4.863,12.002
	c-0.542,2.04-1.021,4.161-1.27,6.259c-0.242,2.036-0.159,4.13-0.165,6.179c-0.013,3.767,0.235,7.442,1.004,11.118
	c0.11,0.823,0.229,1.645,0.361,2.461c0.63,3.898,1.455,7.877,3.094,11.499c-0.229-0.252-0.455-0.508-0.677-0.771
	c-1.182-1.405-2.261-2.944-2.979-4.641c-0.661-1.558-1.014-3.253-1.324-4.909c-0.364-1.937-0.472-3.892-0.663-5.85
	c-0.195-1.997-0.63-3.957-0.781-5.957c-0.146-1.942-0.164-3.891-0.293-5.834c-0.134-1.982-0.198-3.957-0.123-5.943
	c0.156-4.025,0.789-8.008,1.723-11.922c0.443-1.851,0.845-3.716,1.317-5.559c0.449-1.746,1.022-3.538,2.199-4.945
	C172.767,30.673,174.232,29.722,175.75,28.992z M174.036,50.533c-1.513,2.829-2.841,5.762-3.69,8.844
	c0.004-0.122,0.004-0.244,0.007-0.365c0.049-2.039,0.457-4.015,0.889-6.001c0.891-4.104,2.403-8.114,4.267-11.874
	c2.114-4.26,5.03-8.024,8.049-11.675c0.183-0.221,0.203-0.478,0.129-0.698c0.241,0.153,0.476,0.298,0.701,0.423
	c0.462,0.255,0.938,0.494,1.421,0.706c-0.366,1.684-0.538,3.401-0.743,5.111c-0.175,1.463-0.48,2.906-0.737,4.356
	c-1.343,0.613-2.605,1.431-3.754,2.429C177.819,44.183,175.745,47.337,174.036,50.533z M185.895,38.756
	c0.018-0.112,0.032-0.224,0.051-0.334c0.169-1.014,0.329-2.024,0.438-3.046c0.178-1.685,0.288-3.375,0.577-5.043
	c0.946,0.303,1.929,0.466,2.945,0.391c0.914-0.068,1.844-0.329,2.776-0.637c0.004,1.717-0.144,3.429-0.188,5.146
	c-0.023,0.943-0.024,1.887-0.082,2.829c-0.004,0.062-0.005,0.125-0.008,0.188c-0.304-0.044-0.609-0.081-0.916-0.11
	C189.557,37.957,187.67,38.185,185.895,38.756z M199.051,28.92c-0.138,0.157-0.215,0.371-0.165,0.631
	c0.299,1.589,0.514,3.189,0.518,4.809c0.001,0.795-0.042,1.592-0.142,2.382c-0.05,0.398-0.102,0.793-0.216,1.179
	c-0.01,0.031-0.019,0.062-0.027,0.092c-0.022,0.015-0.044,0.029-0.063,0.045c-0.35,0.258-0.69,0.528-1.011,0.82
	c-0.133,0.121-0.26,0.248-0.392,0.369c-0.049,0.044-0.301,0.244-0.283,0.243c-0.011,0.006-0.022,0.014-0.03,0.018
	c-0.187-0.014-0.348-0.047-0.538-0.1c-0.581-0.16-1.146-0.373-1.718-0.563c-0.362-0.12-0.729-0.219-1.1-0.309
	c-0.001-0.009,0.001-0.018,0.001-0.026c0.056-1.011,0.083-2.019,0.105-3.031c0.045-1.971,0.241-3.934,0.193-5.908
	C195.819,29.012,197.457,28.544,199.051,28.92z M211.967,40.49c1.883,1.091,3.753,1.31,5.872,0.914
	c1.664-0.312,3.32-0.714,5.011-0.857c0.908-0.077,1.888-0.116,2.83,0.009c-0.029,0.839,0.026,1.681-0.004,2.523
	c-0.044,1.273-0.419,2.509-0.865,3.693c-0.877,2.315-2.02,4.566-3.155,6.765c-2.182,4.229-5.001,8.135-7.936,11.872
	c-2.894,3.685-6.053,7.17-9.502,10.344c-3.592,3.305-7.557,6.182-11.546,8.985c-2.261,1.588-4.574,3.091-6.896,4.587
	c-0.543,0.35-1.088,0.699-1.64,1.04c0.06-0.06,0.12-0.12,0.179-0.181c1.65-1.707,3.158-3.534,4.9-5.153
	c1.721-1.599,3.56-3.037,5.188-4.738c1.607-1.683,3.074-3.498,4.452-5.374c2.92-3.974,5.45-8.236,7.532-12.708
	c2.066-4.439,3.907-9.127,4.611-13.998c0.326-2.264,0.516-4.778-0.143-7.003c-0.194-0.657-0.475-1.255-0.82-1.808
	C210.683,39.735,211.316,40.113,211.967,40.49z M206.274,38.361c0.29,0,0.569,0.021,0.843,0.056c1.108,0.846,1.947,1.924,2.325,3.31
	c0.521,1.912,0.365,4.021,0.121,5.961c-0.593,4.715-2.412,9.329-4.396,13.615c-2.004,4.322-4.428,8.449-7.215,12.311
	c-1.342,1.859-2.765,3.658-4.337,5.33c-1.53,1.625-3.234,3.02-4.895,4.505c-1.926,1.724-3.563,3.695-5.351,5.552
	c-0.628,0.653-1.282,1.323-1.982,1.918c0.182-0.364,0.355-0.733,0.522-1.107c0.756-1.692,1.529-3.371,2.319-5.047
	c1.691-3.585,3.449-7.132,5.238-10.67c3.506-6.934,6.915-13.991,8.719-21.589c0.492-2.074,0.869-4.176,1.132-6.291
	c0.138-1.107,0.224-2.219,0.389-3.323c0.075-0.501,0.175-1.005,0.221-1.51c0.007-0.073,0.006-0.148,0.008-0.223
	c0.432-0.378,0.858-0.768,1.322-1.075C202.747,39.099,204.465,38.361,206.274,38.361z M204.133,34.14
	c-0.093,0.112-0.188,0.22-0.274,0.336c-0.324,0.434-0.544,0.895-0.663,1.381c-0.531,0.16-1.056,0.357-1.571,0.589
	c-0.314,0.142-0.62,0.302-0.919,0.471c0.13-0.837,0.202-1.679,0.201-2.528c-0.001-1.654-0.218-3.303-0.516-4.929
	c0.03,0.017,0.06,0.028,0.088,0.045c1.181,0.724,2.321,1.778,3.078,3.023C203.885,33.069,204.13,33.598,204.133,34.14z
	 M191.245,41.974c0.31-0.203,0.384-0.526,0.315-0.812c0.215,0.023,0.429,0.049,0.641,0.083c-0.013,0.71,1.133,0.929,1.418,0.317
	c1.102,0.33,2.184,0.846,3.341,0.943c0.496,0.042,0.934-0.047,1.334-0.215c-0.123,0.867-0.246,1.731-0.334,2.604
	c-0.192,1.905-0.485,3.798-0.878,5.672c-0.781,3.732-1.949,7.369-3.37,10.905c-2.888,7.192-6.718,13.961-10.032,20.958
	c-0.896,1.891-1.82,3.773-2.658,5.691c-0.612,1.401-1.222,2.827-2.136,4.051c-0.037-0.071-0.073-0.143-0.112-0.213
	c0.003-0.052,0.006-0.107,0.007-0.151c0.019-0.668,0.061-1.328,0.065-1.998c0.012-1.913,0.011-3.827,0.054-5.739
	c0.086-3.831,0.443-7.651,0.994-11.442c0.564-3.896,1.147-7.807,1.893-11.672c0.703-3.636,1.646-7.244,3.155-10.635
	C186.349,47.153,188.285,43.914,191.245,41.974z M181.772,93.792c-0.055,0.005-0.108,0.01-0.162,0.015
	c-0.175,0.014-0.351,0.026-0.524,0.038c-0.063,0.005-0.127,0.013-0.189,0.019c-0.012-0.007-0.021-0.013-0.032-0.019
	c1.642-0.751,3.203-1.658,4.732-2.625c2.082-1.316,4.153-2.656,6.187-4.046c4.164-2.85,8.334-5.797,12.13-9.126
	c3.623-3.177,6.919-6.706,9.96-10.439c3.07-3.772,6.066-7.761,8.402-12.037c1.353-2.476,2.611-5.049,3.69-7.656
	c0.544-1.311,0.999-2.678,1.162-4.093c0.111-0.958,0.041-1.923,0.05-2.885c0.175,0.072,0.348,0.151,0.515,0.244
	c1.446,0.813,2.106,2.202,2.166,3.826c0.064,1.766-0.212,3.601-0.584,5.324c-0.944,4.359-2.984,8.404-5.283,12.194
	c-2.362,3.896-5.188,7.469-8.252,10.834c-3.008,3.305-6.039,6.675-9.582,9.425c-3.467,2.691-7.573,4.451-11.542,6.257
	c-4.122,1.876-8.331,3.869-12.806,4.744C181.786,93.788,181.782,93.79,181.772,93.792z M192.295,93.364
	c0.053,0.18,0.18,0.336,0.35,0.416c-0.607,0.073-1.217,0.141-1.827,0.2C191.311,93.776,191.802,93.571,192.295,93.364z
	 M242.873,48.514c0.134,4.199-1.104,8.653-2.968,12.387c-2.055,4.117-4.829,7.918-7.86,11.369
	c-6.065,6.903-13.765,12.739-22.207,16.408c-4.23,1.837-8.525,3.644-13.083,4.484c-1.141,0.21-2.288,0.384-3.438,0.533
	c2.148-1.07,4.284-2.169,6.474-3.151c2.203-0.989,4.47-1.821,6.614-2.94c2.013-1.049,3.684-2.497,5.392-3.969
	c1.864-1.605,3.719-3.209,5.538-4.867c1.793-1.636,3.479-3.33,5.086-5.149c1.636-1.849,3.341-3.641,4.927-5.534
	c3.214-3.838,6.128-7.982,8.599-12.336c1.363-2.401,2.582-4.895,3.601-7.461c0.482-1.216,0.882-2.464,1.052-3.765
	c0.104-0.803,0.08-1.604,0.015-2.405C241.96,43.943,242.795,46.069,242.873,48.514z M238.941,40.239
	c-0.005,0.051-0.005,0.104,0,0.16c0.12,1.165,0.287,2.338,0.211,3.512c-0.078,1.165-0.426,2.298-0.83,3.388
	c-0.833,2.244-1.885,4.42-3.023,6.523c-2.319,4.282-5.097,8.346-8.142,12.143c-1.538,1.919-3.234,3.692-4.86,5.535
	c-1.564,1.769-3.115,3.551-4.862,5.146c-1.456,1.33-2.909,2.669-4.398,3.965c0.339-0.338,0.675-0.679,1.009-1.025
	c3.267-3.392,6.457-6.902,9.268-10.685c2.803-3.774,5.228-7.865,7.052-12.201c0.889-2.108,1.604-4.299,1.991-6.558
	c0.321-1.866,0.645-3.817,0.465-5.714c-0.059-0.597-0.174-1.171-0.341-1.721c0.094-0.3,0.16-0.61,0.224-0.921
	c0.119-0.611,0.255-1.219,0.369-1.831c0.216-1.158,0.362-2.327,0.421-3.504c1.387,0.656,2.676,1.576,3.879,2.471
	C237.927,39.335,238.451,39.775,238.941,40.239z M228.294,35.646c1.104-0.029,2.203-0.155,3.29,0.107
	c0.165,0.04,0.326,0.094,0.488,0.143c-0.039,0.084-0.063,0.18-0.067,0.291c-0.044,1.144-0.169,2.282-0.38,3.407
	c-0.062,0.326-0.13,0.651-0.199,0.976c-0.344-0.471-0.744-0.909-1.226-1.3c-1.487-1.208-3.39-1.691-5.276-1.774
	c0.04-0.289,0.075-0.578,0.104-0.871c0.05-0.497,0.114-1.015,0.131-1.531c0.103,0.041,0.2,0.086,0.303,0.124
	C226.367,35.547,227.332,35.673,228.294,35.646z M219.499,32.234c1.502,0.502,2.821,1.41,4.212,2.168
	c0.061,0.781-0.063,1.602-0.127,2.4c-0.018,0.224-0.049,0.458-0.077,0.696c-1.45,0.068-2.898,0.307-4.32,0.581
	c0.013-0.176,0.022-0.353,0.027-0.528c0.022-0.65,0.026-1.304,0.027-1.957c0.001-1.149-0.022-2.298-0.059-3.446
	C219.288,32.178,219.393,32.199,219.499,32.234z M213.979,32.873c1.176-0.614,2.423-0.97,3.694-0.945
	c0.038,1.189,0.059,2.378,0.068,3.568c0.006,0.632-0.004,1.266,0.025,1.897c0.017,0.324,0.036,0.646,0.05,0.968
	c-1.251,0.258-2.51,0.441-3.719-0.127c-0.304-0.143-0.598-0.307-0.887-0.478c0.07-1.136,0.106-2.273,0.089-3.413
	c-0.005-0.393-0.321-0.776-0.736-0.767c-0.044,0.001-0.086,0.015-0.127,0.023C212.961,33.396,213.467,33.141,213.979,32.873z
	 M212.206,33.676c-0.028,0.017-0.063,0.027-0.089,0.048c-0.19,0.131-0.324,0.339-0.319,0.589c0.02,0.872,0.009,1.742,0.025,2.611
	c-0.225-0.129-0.452-0.255-0.687-0.368c-1.047-0.504-2.105-0.878-3.255-1.059c-0.274-0.043-0.548-0.074-0.818-0.094
	c0.48-0.443,0.888-0.769,1.426-1.085c0.69-0.405,1.49-0.223,2.271-0.298C211.27,33.97,211.743,33.841,212.206,33.676z
	 M209.156,29.298c0.433,0.375,0.87,0.747,1.342,1.076c0.241,0.169,0.492,0.313,0.691,0.514c-0.896,0.291-1.854,0.09-2.776,0.263
	c-0.651,0.122-1.225,0.434-1.766,0.798c-0.202-0.465-0.47-0.906-0.761-1.331c0.285-0.549,0.56-1.104,0.851-1.651
	c0.213-0.399,0.432-0.795,0.648-1.192C208.003,28.249,208.565,28.786,209.156,29.298z M203.587,25.864
	c0.863,0.304,1.721,0.658,2.526,1.096c-0.441,0.788-0.907,1.584-1.197,2.432c-0.152-0.168-0.305-0.337-0.46-0.495
	c-1.206-1.213-2.635-2.297-4.289-2.802c-0.63-0.193-1.272-0.283-1.919-0.307c0.024-0.055,0.047-0.111,0.071-0.166
	c0.068-0.157,0.021-0.403-0.054-0.551c0.669-0.092,1.34-0.152,2.021-0.068C201.404,25.14,202.528,25.49,203.587,25.864z
	 M193.799,25.25c1.033,0.222,2.043,0.157,3.071,0.02c-0.085,0.199-0.171,0.398-0.254,0.6c-0.748,0.102-1.49,0.279-2.21,0.503
	c-1.418,0.444-2.853,1.163-4.349,1.332c0.222-0.781,0.526-1.545,0.793-2.31c0.002-0.003,0.006-0.006,0.009-0.01
	c0.066-0.082,0.134-0.165,0.199-0.248c0.034-0.042,0.067-0.083,0.1-0.124c0.003-0.004,0.001-0.002,0.004-0.004
	c0.013-0.016,0.024-0.031,0.038-0.045c0.111-0.134,0.193-0.263,0.196-0.445c0.003-0.1-0.026-0.212-0.077-0.309
	C192.108,24.644,192.899,25.057,193.799,25.25z M189.738,23.365c-0.104,0.28-0.207,0.561-0.29,0.848
	c-0.048,0.17-0.096,0.357-0.129,0.548c-0.02,0.062-0.04,0.124-0.059,0.187c-0.035,0.119-0.02,0.233,0.015,0.342
	c0.006,0.094,0.028,0.183,0.05,0.272c-0.221,0.704-0.436,1.412-0.558,2.135c-1.622-0.227-3.05-1.217-4.462-2.012
	c0.276-1.505,0.271-3.072,0.005-4.54C186.207,21.526,188.027,22.474,189.738,23.365z M182.847,20.993
	c-0.01,0.075-0.009,0.155,0.008,0.242c0.246,1.25,0.206,2.482,0.056,3.708c-0.422-0.197-0.856-0.362-1.303-0.448
	c-1.061-0.206-2.145-0.051-3.173,0.25c-0.827,0.244-1.667,0.538-2.49,0.875c0.195-0.487,0.404-0.969,0.611-1.451
	c0.582-0.414,1.125-0.912,1.636-1.34C179.53,21.709,181.127,21.006,182.847,20.993z M171.971,24.707
	c0.896,0.304,1.879,0.448,2.817,0.271c-0.182,0.449-0.341,0.906-0.455,1.372c-0.298,0.147-0.596,0.295-0.882,0.454
	c-1.789,0.991-3.415,2.298-4.611,3.969c-1.199,1.674-1.85,3.704-2.336,5.684c-1.038,4.226-2.066,8.472-2.63,12.792
	c-0.279,2.148-0.446,4.312-0.472,6.479c-0.025,2.205,0.17,4.395,0.263,6.595c0.088,2.121,0.159,4.241,0.461,6.345
	c0.151,1.049,0.369,2.084,0.48,3.139c0.118,1.097,0.188,2.198,0.291,3.295c0.027,0.289,0.064,0.577,0.096,0.864
	c-1.066-3.358-1.849-6.777-2.451-10.276c-0.818-4.75-0.893-9.628-0.936-14.437c-0.043-4.904,0.171-9.886,1.433-14.649
	c0.716-2.699,1.766-5.321,3.222-7.708c1.088-1.785,2.437-3.373,3.847-4.904C170.715,24.226,171.325,24.488,171.971,24.707z
	 M164.744,83.33c-0.869-0.798-1.752-1.571-2.464-2.515c-0.602-0.796-1.101-1.676-1.546-2.565c-0.938-1.874-1.597-3.865-2.196-5.868
	c-0.651-2.176-1.291-4.362-1.835-6.568c-1.174-4.76-1.979-9.637-2.402-14.522c-0.416-4.795-0.346-9.661,0.838-14.35
	c1.093-4.33,3.004-8.437,6.564-11.271c1.422-1.131,3.13-2.06,4.956-2.281c0.793-0.097,1.511,0,2.202,0.185
	c-1.096,1.188-2.153,2.413-3.079,3.738c-1.429,2.044-2.526,4.326-3.354,6.675c-1.686,4.778-2.173,9.888-2.25,14.925
	c-0.075,4.985,0.005,10.054,0.62,15.005c0.604,4.843,1.718,9.676,3.367,14.267c0.931,2.592,1.928,5.162,3.37,7.518
	c0.18,0.293,0.36,0.585,0.541,0.875C166.983,85.48,165.89,84.383,164.744,83.33z M175.454,85.716
	c-1.599-4.134-2.354-8.706-2.827-13.096c-0.49-4.542-0.48-9.046,0.886-13.444c1.084-3.49,2.802-6.876,4.764-9.955
	c1.759-2.762,3.949-5.471,6.915-6.991c1.492-0.764,3.155-1.125,4.824-1.145c-2.527,1.83-4.361,4.455-5.748,7.225
	c-1.731,3.454-2.851,7.167-3.645,10.939c-0.859,4.076-1.433,8.218-2.067,12.333c-0.624,4.041-1.039,8.114-1.146,12.202
	c-0.05,1.916-0.021,3.833-0.047,5.749C176.65,88.306,175.976,87.066,175.454,85.716z M142.072,109.55
	c0.258,0.67,0.525,1.338,0.805,2.003c2.438,5.822,5.436,11.512,6.93,17.675c0.688,2.831,1.103,5.716,1.355,8.615
	c0.13,1.48,0.191,2.967,0.347,4.444c0.171,1.604,0.41,3.196,0.636,4.792c0.502,3.564,0.598,7.168,0.85,10.754
	c0.118,1.698,0.288,3.39,0.411,5.087c0.032,0.44,0.041,0.88,0.043,1.318c-0.128,0.316-0.255,0.633-0.384,0.949
	c-0.197,0.489-0.008,1.039,0.348,1.419c-0.005,0.247-0.01,0.492-0.011,0.738c-4.47,3.455-8.797,7.092-12.942,10.948
	c0.375-1.077,0.672-2.188,0.997-3.28c0.685-2.296,1.11-4.619,1.473-6.983c0.721-4.695,1.174-9.44,1.177-14.193
	c0-4.77-0.378-9.528-1.052-14.248c-0.322-2.259-0.6-4.525-0.993-6.774c-0.408-2.336-0.996-4.63-1.656-6.907
	c-0.711-2.456-1.36-5.024-2.446-7.345c-0.978-2.09-2.361-3.967-3.878-5.694c-0.019-0.021-0.039-0.036-0.059-0.055
	c0.976-0.701,2.025-1.331,3.046-1.959c0.459-0.283,0.954-0.587,1.488-0.693c0.645-0.128,1.27,0.11,1.88,0.295
	C141.264,110.71,141.872,110.194,142.072,109.55z M125.536,117.325c-0.347,0.108-0.649,0.384-0.792,0.864
	c-0.006,0.02-0.006,0.04-0.011,0.06c-2.032,2.359-4.02,4.763-6.21,6.979c-1.586,1.606-3.265,3.199-5.177,4.413
	c-1.978,1.256-4.172,1.945-6.417,2.561c-4.8,1.315-9.766,1.875-14.741,1.749c-2.837-0.073-5.802-0.416-8.428-1.564
	c-0.533-0.233-1.047-0.509-1.55-0.806c3.993-1.127,8.008-2.19,11.87-3.722c3.981-1.581,7.522-3.959,10.958-6.482
	c1.724-1.265,3.452-2.531,5.083-3.914c1.667-1.414,3.252-2.92,4.812-4.45c3.135-3.077,6.193-6.246,9.652-8.969
	c1.915-1.507,3.938-2.882,6.079-4.051c1.011-0.553,2.058-1.037,3.093-1.543c1.006-0.491,1.996-0.915,3.098-1.132
	c0.869-0.171,0.613-1.351-0.161-1.444c-0.126-0.015-0.254-0.03-0.38-0.046c-0.223-0.027-0.397,0.059-0.518,0.198
	c-1.528,0.358-2.978,1.221-4.36,1.892c-1.99,0.966-3.881,2.131-5.682,3.413c-3.578,2.546-6.74,5.564-9.849,8.652
	c-3.104,3.083-6.216,6.116-9.72,8.746c-3.408,2.559-6.856,5.146-10.72,6.984c-1.69,0.805-3.44,1.471-5.219,2.063
	c0.072-0.041,0.146-0.078,0.219-0.118c4.349-2.389,8.539-5.153,11.739-8.999c3.396-4.081,5.85-8.912,8.217-13.637
	c1.202-2.399,2.265-4.849,3.305-7.322c0.977-2.319,2.09-4.457,3.784-6.337c1.715-1.904,3.273-3.945,5.272-5.567
	c0.772-0.626,1.713-0.966,2.669-1.214c1.202,0.204,2.407,0.416,3.563,0.807c1.416,0.479,2.564,1.285,3.563,2.391
	c1.981,2.191,3.549,4.823,4.712,7.532c1.102,2.569,1.855,5.272,2.647,7.949c0.471,1.59,0.988,3.155,1.548,4.705
	c-0.084-0.044-0.176-0.082-0.278-0.112c-1.26-0.367-2.504-0.607-3.775-0.148c-1.087,0.393-2.001,1.068-2.977,1.668
	c-2.027,1.248-3.885,2.635-5.571,4.324C127.722,114.863,126.619,116.085,125.536,117.325z M133.345,149.307
	c0.126-2.747,0.063-5.498-0.193-8.237c-0.247-2.644-0.704-5.257-0.917-7.905c-0.233-2.901-0.376-5.905-1.339-8.678
	c-0.489-1.408-1.123-2.776-1.945-4.02c-0.302-0.458-0.614-0.857-1.009-1.235c-0.063-0.061-0.125-0.124-0.188-0.185
	c0.106-0.125,0.212-0.251,0.319-0.376c1.491-1.735,3.028-3.484,4.792-4.956c0.03,0.063,0.067,0.124,0.119,0.184
	c1.317,1.5,2.509,3.102,3.414,4.887c0.993,1.959,1.55,4.138,2.179,6.234c0.675,2.246,1.317,4.509,1.774,6.81
	c0.437,2.199,0.733,4.422,1.038,6.643c0.631,4.591,1.111,9.159,1.198,13.797c0.089,4.669-0.263,9.332-0.901,13.954
	c-0.355,2.563-0.741,5.13-1.452,7.62c-0.365,1.281-0.752,2.56-1.15,3.831c-0.334,1.063-0.86,2.048-1.227,3.098
	c-0.253,0.246-0.511,0.49-0.762,0.738c-4.025,3.966-7.862,8.118-11.494,12.441c0.194-0.547,0.386-1.094,0.563-1.645
	c0.885-2.752,1.539-5.581,2.134-8.408c0.607-2.883,1.098-5.787,1.651-8.68c0.547-2.853,1.129-5.698,1.632-8.561
	C132.587,160.936,133.077,155.109,133.345,149.307z M108.282,223.099c7.402-13.242,16.48-25.438,27.023-36.347
	c10.452-10.818,22.262-20.023,34.854-28.212c13.023-8.469,26.791-15.6,40.233-23.351c6.369-3.673,12.679-7.51,18.454-12.078
	c2.846-2.251,5.655-4.666,8.08-7.374c1.432-1.597,2.728-3.339,3.94-5.133c-0.105,0.307-0.211,0.614-0.316,0.921
	c-0.879,1.5-1.824,2.964-2.786,4.402c-2.059,3.075-4.254,6.071-6.702,8.851c-4.643,5.273-9.994,9.863-15.498,14.209
	c-5.477,4.325-11.048,8.527-16.521,12.855c-5.765,4.558-11.877,8.667-18.197,12.41c-6.196,3.669-12.645,6.844-18.66,10.818
	c-5.966,3.942-11.642,8.303-17.187,12.813c-10.973,8.923-20.267,19.486-28.455,30.993c-8.697,12.223-15.995,25.317-22.722,38.709
	c-0.051,0.102-0.101,0.204-0.152,0.306c1.338-4.574,2.832-9.103,4.541-13.556C101.021,237.015,104.456,229.943,108.282,223.099z
	 M90.507,270.727c-0.003,0.002-0.006,0.004-0.008,0.006c0.392-0.468,0.842-0.886,1.176-1.405c0.532-0.828,0.953-1.729,1.476-2.564
	c2.14-3.422,4.572-6.706,6.856-10.036c4.46-6.506,8.813-13.118,13.832-19.216c4.78-5.806,9.833-11.575,15.449-16.59
	c0.51-0.454,1.027-0.9,1.545-1.347c-3.722,8.016-8.312,15.583-13.153,22.97c-2.479,3.78-4.999,7.56-7.912,11.025
	c-3.013,3.582-6.522,6.588-10.121,9.563c-2.062,1.705-4.136,3.398-6.156,5.154C92.518,269.13,91.566,269.99,90.507,270.727z
	 M143.455,212.459c-1.248,2.977-2.653,5.881-3.957,8.831c-1.306,2.959-2.827,5.813-4.416,8.626c-1.58,2.799-3.13,5.633-4.849,8.349
	c-6.506,10.272-15.527,18.852-25.484,25.736c-2.382,1.647-4.761,3.364-7.275,4.809c-1.436,0.823-2.937,1.507-4.512,1.908
	c0.165-0.137,0.335-0.267,0.496-0.406c1.848-1.617,3.723-3.201,5.616-4.767c3.716-3.067,7.491-6.081,10.695-9.699
	c3.035-3.428,5.661-7.188,8.184-11c2.653-4.01,5.252-8.057,7.683-12.204c2.778-4.741,5.323-9.613,7.541-14.642
	c0.071-0.161,0.079-0.306,0.045-0.429c3.744-3.06,7.661-5.933,11.591-8.745C144.384,210.046,143.959,211.261,143.455,212.459z
	 M224.665,144.094c-4.356,5.992-9.397,11.675-15.134,16.383c-6.071,4.982-12.613,9.313-19.115,13.706
	c-13.392,9.048-26.921,17.869-40.151,27.156c-0.844,0.593-1.683,1.189-2.522,1.784c-0.336,0.05-0.649,0.235-0.843,0.597
	c-5.299,3.762-10.545,7.6-15.622,11.657c-5.895,4.712-10.991,10.147-15.943,15.82c-5.101,5.845-9.702,12.001-14.088,18.396
	c-2.267,3.304-4.522,6.618-6.77,9.937c-0.328,0.483-0.663,0.962-0.994,1.443c6.393-12.84,13.22-25.47,21.318-37.328
	c7.974-11.675,17.002-22.813,27.815-31.986c5.547-4.708,11.335-9.195,17.317-13.335c2.958-2.048,5.984-4.001,9.094-5.812
	c3.155-1.839,6.419-3.478,9.595-5.278c6.248-3.54,12.295-7.433,18.058-11.722c2.892-2.153,5.67-4.452,8.517-6.665
	c2.748-2.136,5.528-4.231,8.286-6.356c5.548-4.278,11.023-8.688,15.914-13.719c3.152-3.242,6.125-6.802,8.747-10.576
	c-0.722,1.884-1.472,3.756-2.259,5.619C232.851,131.002,229.258,137.776,224.665,144.094z"/>
</svg>
