<?xml version="1.0" standalone="no"?>
<!DOCTYPE svg PUBLIC "-//W3C//DTD SVG 20010904//EN"
 "http://www.w3.org/TR/2001/REC-SVG-20010904/DTD/svg10.dtd">
<svg version="1.0" xmlns="http://www.w3.org/2000/svg"
 viewBox="0 0 2600.000000 2600.000000"
 preserveAspectRatio="xMidYMid meet">
<metadata>
Created by potrace 1.15, written by Peter Selinger 2001-2017
</metadata>
<g transform="translate(0.000000,2600.000000) scale(0.100000,-0.100000)"
fill="#000000" stroke="none">
<path d="M4105 22863 c-141 -22 -315 -91 -435 -173 -201 -137 -355 -355 -422
-601 -20 -74 -23 -106 -22 -264 0 -151 4 -192 22 -257 54 -197 136 -335 287
-483 203 -200 436 -296 719 -296 188 0 324 33 486 116 l84 44 221 -217 c325
-321 1442 -1380 1856 -1761 l70 -63 -76 -79 c-143 -150 -237 -326 -277 -518
-17 -80 -19 -121 -15 -246 6 -179 26 -263 96 -410 136 -285 388 -490 698 -567
117 -29 338 -32 460 -5 161 35 329 118 463 230 l54 45 45 -61 c82 -113 248
-370 325 -506 79 -136 210 -391 204 -396 -2 -1 -37 -20 -78 -40 -111 -56 -176
-101 -267 -188 -141 -135 -239 -302 -290 -492 -23 -88 -26 -119 -26 -255 0
-135 4 -168 27 -255 98 -373 378 -654 754 -757 62 -17 107 -21 229 -22 l151
-1 8 -115 c11 -166 8 -715 -5 -925 -78 -1220 -361 -2639 -872 -4362 -113 -378
-116 -393 -100 -451 16 -60 44 -97 94 -126 86 -49 177 -41 247 23 31 28 54 67
105 183 375 853 1125 2071 2200 3574 l108 152 61 -28 c160 -71 274 -95 451
-93 115 0 157 5 237 26 324 85 596 323 717 629 141 357 63 803 -188 1071 -30
32 -34 40 -24 56 7 11 73 97 148 191 135 171 135 171 135 132 0 -169 89 -413
210 -573 216 -287 553 -435 928 -407 490 36 899 445 941 940 44 522 -273 970
-784 1111 -69 19 -106 22 -261 22 l-182 0 38 45 c20 25 146 175 280 335 l242
289 82 41 c262 129 455 352 540 624 20 63 37 96 72 137 l46 54 42 -84 c149
-296 428 -504 751 -561 536 -93 1053 241 1192 770 22 84 26 123 27 245 0 85
-5 170 -12 205 -57 261 -194 480 -400 636 -68 51 -212 129 -277 149 -22 7 -44
16 -49 20 -8 8 214 244 645 684 216 220 226 228 273 237 27 5 51 8 52 6 2 -2
-17 -43 -41 -92 -25 -50 -57 -135 -72 -190 -23 -88 -26 -119 -27 -260 0 -132
3 -175 21 -245 125 -494 569 -824 1073 -797 416 23 779 290 921 677 50 137 62
210 62 370 -1 122 -5 160 -26 241 -53 202 -144 360 -287 499 -141 138 -317
233 -512 276 -90 20 -311 24 -387 6 -30 -7 -56 -11 -58 -9 -2 2 14 40 36 83
35 71 91 235 91 269 0 15 270 260 554 504 200 171 580 479 602 488 7 2 43 -20
81 -51 94 -76 197 -133 311 -172 124 -42 207 -55 351 -54 573 2 1031 464 1031
1040 0 514 -372 949 -883 1030 -109 18 -319 8 -422 -20 -301 -81 -554 -292
-685 -573 -113 -242 -126 -546 -32 -796 l16 -44 -34 -26 c-185 -140 -565 -454
-810 -669 l-125 -109 -41 87 c-136 285 -376 486 -680 567 -87 23 -118 26 -259
26 -140 0 -172 -3 -256 -26 -392 -104 -676 -401 -766 -800 -21 -97 -22 -327 0
-422 49 -219 160 -414 315 -556 62 -57 197 -149 261 -178 l41 -18 -253 -259
c-138 -143 -352 -367 -475 -497 -173 -183 -231 -238 -260 -248 -57 -18 -191
-87 -247 -127 -206 -147 -340 -337 -410 -582 -9 -35 -30 -73 -57 -103 l-41
-49 -46 89 c-63 121 -125 205 -213 289 -205 195 -429 285 -713 287 -139 1
-202 -9 -330 -50 -341 -110 -600 -392 -691 -753 -28 -111 -26 -384 4 -492 101
-370 387 -661 740 -752 l43 -11 -162 -195 c-400 -482 -711 -866 -1072 -1324
-146 -186 -235 -290 -245 -290 -10 1 -62 14 -117 30 -90 25 -116 27 -260 27
-142 0 -171 -3 -259 -26 -497 -133 -823 -598 -775 -1103 16 -173 66 -318 158
-462 28 -43 51 -82 51 -85 0 -3 -73 -108 -163 -234 -402 -561 -904 -1307
-1192 -1770 -82 -133 -151 -240 -152 -239 -1 0 16 75 38 166 248 1050 398
2036 440 2895 11 231 7 839 -7 1015 l-6 76 57 37 c31 21 92 72 135 113 248
237 363 584 304 918 -57 327 -256 598 -550 748 -126 64 -194 85 -376 113 l-37
6 -105 212 c-160 324 -346 631 -572 939 l-95 131 26 91 c38 129 46 339 17 476
-67 323 -264 579 -557 726 -160 80 -272 106 -450 107 -97 0 -163 -5 -214 -16
l-73 -17 -172 163 c-94 90 -244 233 -333 317 -90 84 -160 156 -157 161 3 5 20
9 37 9 18 0 73 11 122 24 406 109 705 443 766 855 16 111 7 303 -20 403 -97
372 -383 659 -750 755 -119 31 -293 41 -412 23 -282 -41 -535 -196 -702 -431
-94 -133 -169 -331 -183 -484 -4 -41 -10 -75 -13 -75 -3 0 -100 94 -215 209
l-209 209 36 58 c87 145 127 287 134 477 10 254 -39 429 -178 637 -100 150
-245 272 -423 356 -142 67 -225 85 -406 89 -85 2 -168 1 -185 -2z"/>
<path d="M5423 19399 c-231 -30 -448 -139 -613 -308 -490 -504 -355 -1334 270
-1655 567 -291 1259 -11 1465 594 130 381 25 807 -266 1085 -233 222 -543 325
-856 284z"/>
<path d="M7854 14286 c-210 -40 -385 -127 -537 -266 -127 -116 -250 -320 -298
-495 -31 -114 -38 -349 -14 -466 78 -389 356 -696 728 -803 571 -166 1155 166
1309 742 26 99 35 312 18 420 -66 416 -376 752 -785 853 -105 26 -323 34 -421
15z"/>
<path d="M15707 13250 c-289 -33 -624 -129 -736 -211 -61 -43 -73 -76 -82
-217 -7 -113 -21 -185 -38 -205 -4 -4 -22 4 -41 18 -97 72 -314 88 -543 40
-687 -143 -1696 -794 -1772 -1142 -6 -30 -10 -33 -45 -33 -112 0 -379 -202
-638 -481 -517 -558 -942 -1244 -978 -1579 -5 -51 -13 -72 -35 -97 -196 -226
-337 -678 -406 -1303 -25 -232 -26 -914 0 -1101 37 -272 90 -464 157 -568 l38
-59 -42 -45 c-116 -120 -80 -378 99 -724 180 -346 456 -669 626 -728 61 -22
90 -19 141 15 92 61 312 310 492 558 38 50 70 92 72 92 2 0 -10 -29 -26 -65
-73 -163 -132 -410 -150 -629 -16 -207 -14 -236 21 -302 91 -174 374 -483 592
-645 159 -119 265 -151 362 -109 149 64 376 253 589 491 71 79 137 152 147
163 16 17 16 15 7 -35 -15 -79 -3 -299 21 -392 56 -213 177 -416 319 -536 128
-106 263 -167 472 -212 151 -33 415 -33 545 -1 134 33 247 93 325 172 105 105
154 219 167 392 l6 81 32 -144 c131 -587 340 -1057 569 -1284 135 -134 253
-179 404 -155 184 29 555 182 654 270 33 28 51 55 60 83 19 64 13 282 -16 577
-14 145 -24 266 -22 267 5 5 99 -246 140 -376 48 -147 110 -388 144 -554 l27
-132 50 -27 c97 -54 341 -122 585 -163 52 -9 174 -19 270 -22 312 -10 390 31
390 205 0 59 -7 94 -37 180 -36 101 -38 113 -37 222 1 84 6 131 20 175 l20 60
30 -45 c53 -78 138 -237 262 -490 175 -357 270 -492 393 -556 46 -25 65 -29
134 -28 76 0 93 5 341 96 310 114 350 133 426 206 84 80 112 143 111 246 -2
84 -19 158 -86 378 -40 129 -56 218 -39 218 13 0 109 -65 261 -178 364 -270
570 -372 727 -359 83 6 118 25 221 119 122 113 183 156 361 256 171 97 188
114 179 189 -2 24 -20 68 -38 99 -42 71 -190 227 -350 370 l-121 108 33 9 c67
18 245 1 364 -35 93 -28 126 -33 210 -33 115 0 172 14 270 64 127 66 227 191
282 356 25 72 27 94 28 230 0 137 -2 155 -24 203 -40 90 -112 137 -371 247
-166 70 -213 97 -268 149 -46 44 -65 91 -55 138 5 28 8 29 42 23 20 -4 92 -29
161 -57 199 -80 289 -78 417 10 168 116 249 261 273 493 16 162 -14 402 -69
550 -12 31 -39 75 -60 98 -46 50 -55 51 -278 17 -267 -41 -262 -42 -104 29
295 132 339 171 377 332 19 81 14 234 -10 328 -59 225 -208 424 -380 509 -150
74 -191 73 -602 -18 -137 -30 -274 -58 -304 -61 l-55 -7 58 36 c262 162 427
305 528 454 54 81 89 180 89 251 0 181 -147 475 -298 596 -106 84 -244 136
-325 121 -49 -9 -134 -68 -262 -180 -133 -117 -193 -160 -263 -186 -28 -11
-52 -18 -52 -16 0 3 70 98 156 212 257 342 354 499 354 571 0 145 -197 423
-414 584 -96 72 -236 143 -326 165 -88 22 -189 15 -261 -18 -29 -14 -106 -66
-171 -115 -126 -96 -233 -154 -316 -172 -58 -12 -142 -15 -142 -4 0 3 42 49
93 102 190 196 322 372 368 488 35 88 33 209 -3 283 -89 182 -396 355 -914
516 l-122 38 33 60 c92 169 92 361 -1 507 -42 67 -138 162 -215 214 -133 89
-388 194 -547 225 -85 17 -156 1 -230 -54 -31 -23 -65 -54 -74 -67 -28 -42
-119 -129 -135 -129 -21 0 -15 12 84 178 107 180 130 240 114 301 -36 136
-228 314 -470 436 -101 50 -289 111 -389 126 -204 29 -296 -2 -463 -157 -57
-53 -126 -115 -154 -137 l-50 -39 -16 53 c-9 30 -61 144 -116 254 -54 110
-115 242 -134 294 -48 133 -95 175 -229 208 -70 17 -291 24 -393 13z m178
-610 c66 -32 138 -105 211 -215 33 -49 63 -94 66 -100 4 -7 -56 -10 -170 -10
-198 0 -275 -12 -471 -71 -147 -45 -275 -93 -419 -156 -62 -28 -115 -48 -117
-46 -9 8 34 120 82 218 38 76 63 111 128 176 69 70 95 89 185 132 155 76 254
102 365 99 72 -2 100 -7 140 -27z m-1761 -565 c38 -8 98 -28 133 -45 78 -36
186 -111 176 -121 -4 -4 -42 -21 -83 -39 -112 -47 -396 -196 -555 -290 -328
-195 -584 -382 -762 -554 l-62 -60 -12 30 c-19 49 -14 181 11 259 66 210 248
459 443 607 88 66 236 141 359 182 137 46 238 55 352 31z m3155 -11 c101 -30
181 -131 196 -250 l7 -50 -56 -17 c-166 -53 -568 -295 -846 -511 -128 -99
-342 -305 -401 -386 -24 -33 -47 -60 -51 -60 -4 0 -22 30 -40 67 -31 64 -33
74 -33 173 0 120 16 180 88 317 71 139 164 260 317 414 140 142 148 148 250
197 230 109 432 147 569 106z m-1944 -599 c33 -9 89 -29 125 -46 64 -29 190
-109 190 -119 0 -3 -35 -23 -77 -44 -253 -124 -704 -483 -1031 -820 -206 -213
-430 -484 -527 -638 -17 -27 -34 -48 -38 -48 -15 0 -75 143 -87 208 -36 183
28 437 170 667 104 170 265 352 400 453 41 31 111 86 155 123 181 151 320 234
441 263 79 19 206 19 279 1z m2935 -70 c79 -19 211 -82 263 -126 l39 -32 -134
-48 c-167 -61 -325 -139 -448 -219 -99 -65 -227 -181 -261 -237 -17 -28 -23
-31 -39 -21 -10 7 -29 30 -41 52 -66 115 11 398 147 545 58 63 99 85 189 101
65 12 202 4 285 -15z m-4422 -778 c5 -4 -84 -100 -198 -214 -465 -468 -836
-935 -992 -1250 l-52 -105 -19 24 c-117 144 -133 419 -41 698 36 107 125 290
191 389 68 102 203 241 292 301 115 77 240 126 395 156 70 13 402 14 424 1z
m3947 -367 c150 -21 160 9 -85 -238 -349 -350 -579 -644 -835 -1065 -42 -70
-79 -126 -81 -124 -2 1 -26 57 -55 122 -133 312 -138 522 -18 721 79 130 279
367 377 447 84 69 198 124 294 143 78 15 274 12 403 -6z m1554 -61 c87 -14
151 -43 195 -88 l38 -38 -234 -200 c-273 -233 -547 -464 -743 -626 l-140 -116
-30 34 c-91 101 -108 334 -40 536 77 224 199 334 480 432 187 65 347 87 474
66z m-3106 -455 c26 -9 47 -17 47 -18 0 -1 -51 -53 -113 -116 -255 -259 -605
-725 -845 -1125 -83 -138 -213 -395 -247 -487 l-17 -47 -40 47 c-98 118 -133
246 -125 451 8 206 63 391 197 666 75 153 125 221 234 315 182 157 453 293
657 329 71 13 192 6 252 -15z m-4220 -416 c-79 -188 -288 -709 -369 -924 -153
-407 -284 -826 -284 -911 0 -13 -4 -23 -8 -23 -18 0 -135 115 -177 175 -97
135 -143 279 -152 471 -29 613 351 1173 867 1279 36 7 86 14 112 14 l46 1 -35
-82z m2443 -33 c34 -8 80 -22 103 -31 l41 -16 -76 -82 c-329 -352 -885 -1267
-1073 -1765 l-39 -103 -29 43 c-126 188 -176 359 -176 609 -1 305 81 567 253
812 80 114 260 297 360 367 220 154 442 212 636 166z m5772 -555 c45 -11 105
-31 133 -45 l50 -26 -43 -52 c-24 -28 -200 -212 -393 -407 -431 -437 -557
-577 -622 -688 l-27 -45 -13 38 c-51 147 -61 418 -25 625 38 209 116 406 187
468 85 75 265 139 440 156 75 7 232 -5 313 -24z m-1469 -36 c7 -7 -49 -118
-132 -264 -105 -187 -261 -439 -552 -895 -144 -225 -270 -425 -281 -442 -10
-18 -22 -33 -26 -33 -13 0 -67 115 -97 208 -89 267 -88 681 1 919 27 74 63
112 182 191 226 151 552 291 751 323 48 7 144 3 154 -7z m-5933 -491 c-158
-317 -446 -1052 -564 -1443 -57 -187 -92 -341 -92 -400 0 -22 -3 -40 -7 -40
-3 0 -25 11 -49 25 -133 78 -252 388 -284 740 -16 167 -3 264 49 371 76 160
233 368 400 532 193 189 392 301 534 302 l57 0 -44 -87z m8297 -173 c150 -37
295 -125 387 -236 40 -49 40 -49 18 -58 -13 -5 -81 -37 -153 -71 -327 -154
-623 -357 -762 -524 -58 -69 -58 -69 -67 -43 -5 15 -9 117 -10 227 -1 159 3
217 17 285 33 154 85 276 147 352 74 90 229 115 423 68z m-3934 11 c11 -7 10
-18 -4 -66 -41 -143 -239 -566 -471 -1008 -136 -260 -408 -760 -429 -791 -12
-17 -15 -14 -38 30 -65 129 -120 344 -139 546 -21 221 17 501 87 638 51 100
321 345 536 486 195 129 399 202 458 165z m-1673 -554 c4 -3 -25 -75 -64 -159
-212 -460 -488 -1152 -590 -1483 -42 -136 -77 -275 -92 -363 l-12 -72 -27 22
c-134 114 -239 323 -277 554 -29 178 -10 428 44 584 61 176 249 446 450 647
196 195 360 288 499 280 34 -1 65 -6 69 -10z m-1612 -614 c-194 -407 -412
-1266 -431 -1701 l-6 -144 -30 6 c-17 3 -64 22 -105 42 -200 97 -317 316 -329
620 -6 154 4 226 53 374 125 379 365 686 636 815 80 38 187 73 228 74 l26 1
-42 -87z m-2254 -99 c-78 -182 -128 -582 -117 -947 8 -277 32 -423 88 -542 15
-33 26 -61 24 -63 -1 -2 -32 11 -67 28 -188 92 -419 369 -500 600 -16 45 -19
82 -19 205 1 254 43 369 191 515 93 93 189 155 330 214 47 19 86 35 87 36 1 0
-7 -21 -17 -46z m8241 -11 c8 -8 -1 -55 -30 -160 -122 -449 -298 -847 -523
-1183 -81 -120 -214 -290 -227 -290 -21 0 -105 112 -146 195 -104 208 -140
529 -94 825 14 92 33 131 100 204 163 178 470 360 694 412 67 15 210 13 226
-3z m1147 -253 c45 -11 118 -36 161 -56 l80 -36 -187 -247 c-287 -379 -498
-637 -611 -745 -47 -46 -37 -51 -115 65 -147 219 -234 487 -223 689 9 175 32
210 169 263 110 42 189 63 307 82 115 19 309 12 419 -15z m-2638 -149 c0 -20
-65 -194 -128 -341 -121 -284 -620 -1258 -650 -1268 -14 -4 -75 73 -105 133
-79 158 -120 441 -98 675 22 235 53 304 205 456 167 166 362 287 541 334 73
20 235 27 235 11z m-1835 -443 c-64 -522 -250 -1353 -376 -1680 -17 -43 -35
-78 -40 -78 -25 0 -244 361 -315 522 -71 160 -97 257 -98 373 -1 99 -1 101 42
185 141 277 395 555 607 663 53 27 155 65 178 66 5 1 6 -23 2 -51z m-4066
-455 c-17 -73 -16 -323 0 -458 36 -295 135 -676 237 -920 19 -43 34 -82 34
-86 0 -4 -30 -1 -67 6 -235 45 -419 197 -506 416 -32 80 -69 372 -69 539 0
180 47 305 158 417 55 54 211 159 222 149 2 -3 -2 -31 -9 -63z m2450 -440
c-25 -90 -65 -335 -85 -523 -24 -216 -24 -609 -1 -743 15 -84 35 -158 62 -229
6 -16 0 -18 -64 -18 -163 0 -298 103 -399 305 -51 103 -80 212 -98 376 -30
280 -2 399 132 562 50 62 163 157 254 215 41 27 208 121 216 122 1 0 -7 -30
-17 -67z m6257 -475 c-25 -340 -189 -665 -470 -936 l-107 -103 -37 30 c-65 51
-247 244 -289 306 -85 126 -133 248 -133 339 0 48 3 53 54 101 167 156 673
352 915 354 l74 1 -7 -92z m-1529 -50 c-2 -13 -32 -131 -66 -263 -114 -448
-156 -707 -149 -916 6 -153 24 -147 -167 -54 -279 136 -442 322 -453 517 -5
88 10 143 56 211 64 92 197 206 357 307 73 46 404 219 419 220 4 0 6 -10 3
-22z m-1794 -349 c-26 -137 -26 -630 0 -774 26 -141 70 -304 112 -410 19 -49
35 -92 35 -94 0 -2 -45 -2 -99 1 -87 4 -108 9 -173 40 -138 67 -221 163 -332
388 l-71 145 1 90 c0 77 5 102 33 172 46 117 119 224 225 328 80 79 271 223
283 212 2 -2 -4 -46 -14 -98z m-1163 -446 c0 -4 41 -251 90 -549 50 -298 90
-547 90 -553 0 -36 -209 12 -350 81 -124 60 -221 147 -238 214 -6 21 -23 84
-38 139 -37 132 -38 211 -3 285 49 105 151 206 329 326 88 59 120 74 120 57z"/>
</g>
</svg>
