<?xml version="1.0" encoding="utf-8"?>
<!-- Generator: Adobe Illustrator 16.0.0, SVG Export Plug-In . SVG Version: 6.00 Build 0)  -->
<!DOCTYPE svg PUBLIC "-//W3C//DTD SVG 1.1//EN" "http://www.w3.org/Graphics/SVG/1.1/DTD/svg11.dtd">
<svg version="1.1" id="圖層_1" xmlns="http://www.w3.org/2000/svg" xmlns:xlink="http://www.w3.org/1999/xlink" x="0px" y="0px"
	 width="221px" height="108px" viewBox="0 0 221 108" enable-background="new 0 0 221 108" xml:space="preserve">
<line fill="none" stroke="#000000" stroke-width="0.5" stroke-linecap="round" stroke-linejoin="round" stroke-miterlimit="10" x1="22.258" y1="46.514" x2="86.104" y2="42.08"/>
<line fill="none" stroke="#000000" stroke-width="0.5" stroke-linecap="round" stroke-linejoin="round" stroke-miterlimit="10" x1="25.024" y1="57.635" x2="83.505" y2="31.633"/>
<line fill="none" stroke="#000000" stroke-width="0.5" stroke-linecap="round" stroke-linejoin="round" stroke-miterlimit="10" x1="31.429" y1="67.14" x2="77.488" y2="22.703"/>
<line fill="none" stroke="#000000" stroke-width="0.5" stroke-linecap="round" stroke-linejoin="round" stroke-miterlimit="10" x1="40.697" y1="73.881" x2="68.781" y2="16.372"/>
<line fill="none" stroke="#000000" stroke-width="0.5" stroke-linecap="round" stroke-linejoin="round" stroke-miterlimit="10" x1="51.713" y1="77.045" x2="58.434" y2="13.398"/>
<line fill="none" stroke="#000000" stroke-width="0.5" stroke-linecap="round" stroke-linejoin="round" stroke-miterlimit="10" x1="63.146" y1="76.251" x2="47.693" y2="14.145"/>
<line fill="none" stroke="#000000" stroke-width="0.5" stroke-linecap="round" stroke-linejoin="round" stroke-miterlimit="10" x1="73.618" y1="71.595" x2="37.855" y2="18.519"/>
<line fill="none" stroke="#000000" stroke-width="0.5" stroke-linecap="round" stroke-linejoin="round" stroke-miterlimit="10" x1="81.866" y1="63.638" x2="30.107" y2="25.993"/>
<line fill="none" stroke="#000000" stroke-width="0.5" stroke-linecap="round" stroke-linejoin="round" stroke-miterlimit="10" x1="86.896" y1="53.339" x2="25.383" y2="35.668"/>
<path d="M24.749,56.794l26.11-18.738c2.175-2.942,6.28-3.646,9.312-1.599l31.578,21.337l-37,23L24.749,56.794z"/>
<path fill="none" stroke="#FFFFFF" stroke-width="1.688" stroke-miterlimit="10" d="M24.749,56.794l26.11-18.738
	c2.175-2.942,6.28-3.646,9.312-1.599l31.578,21.337l-37,23L24.749,56.794z"/>
<path d="M56.749,19.662c19.372,0,35.133,15.76,35.133,35.132S76.121,89.927,56.749,89.927S21.617,74.166,21.617,54.794
	S37.377,19.662,56.749,19.662 M56.749,18.794c-19.882,0-36,16.118-36,36s16.118,36,36,36s36-16.118,36-36
	S76.631,18.794,56.749,18.794"/>
<path d="M54.006,93.914c-9.502-2.192-19.005-8.359-26.17-17.009S16.378,57.773,15.989,48.029c9.502,2.193,19.005,8.36,26.17,17.009
	S53.617,84.17,54.006,93.914"/>
<path fill="#FFFFFF" d="M16.574,48.734c9.149,2.304,18.251,8.312,25.163,16.654c6.911,8.343,11.122,18.402,11.684,27.82
	c-9.149-2.304-18.25-8.311-25.162-16.653C21.346,68.213,17.136,58.154,16.574,48.734 M15.42,47.342
	c0.201,9.73,4.248,20.564,11.993,29.913c7.746,9.35,17.639,15.341,27.162,17.347c-0.201-9.729-4.248-20.564-11.993-29.913
	S24.943,49.349,15.42,47.342"/>
<path d="M48.979,93.64c-1.692,0-3.399-0.08-5.088-0.238c0.588-14.783,7.266-28.79,18.399-38.531
	c9.847-8.615,22.47-13.359,35.544-13.359c1.692,0,3.4,0.08,5.09,0.238c-0.588,14.782-7.266,28.789-18.4,38.53
	C74.678,88.896,62.055,93.64,48.979,93.64L48.979,93.64z"/>
<path fill="#FFFFFF" d="M97.835,42.354c1.396,0,2.808,0.056,4.208,0.166c-0.785,14.254-7.316,27.712-18.075,37.125
	c-9.692,8.479-22.118,13.15-34.988,13.15c-1.397,0-2.808-0.056-4.208-0.166c0.785-14.254,7.316-27.712,18.075-37.125
	C72.539,47.024,84.965,42.354,97.835,42.354 M97.835,40.666c-12.82,0-25.694,4.464-36.101,13.568
	C49.713,64.753,43.394,79.359,43.021,94.161c1.979,0.215,3.969,0.322,5.959,0.322c12.82,0,25.694-4.463,36.1-13.568
	c12.022-10.519,18.342-25.125,18.714-39.927C101.814,40.773,99.825,40.666,97.835,40.666"/>
<path d="M139.826,42.682h-0.664c-0.443-1.211-1.094-2.156-1.949-2.836c-0.857-0.68-1.906-1.02-3.146-1.02
	c-1.654,0-2.88,0.392-3.678,1.173c-0.797,0.782-1.195,1.836-1.195,3.163c0,1.593,1.151,3.023,3.455,4.291
	c4.194,2.301,6.365,3.511,6.514,3.628c2.333,1.829,3.5,4.188,3.5,7.079c0,2.831-1.093,5.161-3.278,6.99
	c-2.187,1.828-5.007,2.742-8.463,2.742c-1.3,0-2.563-0.154-3.788-0.465c-1.227-0.311-2.342-0.79-3.346-1.439
	c0.354-1.231,0.621-2.229,0.798-2.99s0.339-1.626,0.487-2.594h0.842c0.324,1.523,1.033,2.708,2.127,3.557
	c1.092,0.85,2.422,1.273,3.987,1.273c1.478,0,2.71-0.398,3.7-1.194c0.989-0.796,1.484-1.933,1.484-3.407
	c0-1.887-1.138-3.45-3.412-4.689c-2.127-1.12-4.238-2.241-6.336-3.362c-2.305-1.739-3.456-4.113-3.456-7.122
	c0-2.685,0.856-4.867,2.569-6.548c1.861-1.829,4.416-2.743,7.666-2.743c1.477,0,2.872,0.222,4.188,0.665
	c1.313,0.442,2.252,0.93,2.813,1.462c-0.324,0.856-0.576,1.565-0.753,2.127C140.195,41.426,139.975,42.18,139.826,42.682z"/>
<path d="M169.381,45.871v21.49c-0.65-0.06-1.219-0.111-1.707-0.155c-0.486-0.044-0.893-0.066-1.218-0.066
	c-0.681,0-1.263,0.029-1.751,0.089c-0.486,0.059-0.893,0.104-1.218,0.133v-3.234c-1.241,1.329-2.231,2.215-2.969,2.658
	c-1.063,0.649-2.319,0.975-3.767,0.975c-1.24,0-2.37-0.215-3.389-0.643c-1.02-0.428-1.869-1.129-2.549-2.104
	c-0.442-0.62-0.746-1.374-0.908-2.26s-0.243-1.846-0.243-2.88v-1.729V45.871c0.502,0.06,1.07,0.111,1.706,0.155
	c0.635,0.045,1.086,0.066,1.352,0.066c0.648,0,1.24-0.029,1.771-0.089c0.532-0.059,0.96-0.103,1.285-0.133v12.229
	c0,0.946,0.022,1.677,0.066,2.193c0.045,0.517,0.185,1.013,0.422,1.484c0.295,0.739,0.701,1.308,1.218,1.706
	s1.159,0.598,1.927,0.598c1.685,0,2.807-0.753,3.368-2.26c0.325-0.886,0.487-2.348,0.487-4.387V45.871
	c0.502,0.06,1.07,0.111,1.706,0.155c0.635,0.045,1.085,0.066,1.351,0.066c0.65,0,1.241-0.029,1.773-0.089
	C168.627,45.945,169.055,45.901,169.381,45.871z"/>
<path d="M177.4,61.734h1.107c0.413,1.152,1.063,2.067,1.949,2.746c0.887,0.681,1.92,1.02,3.102,1.02
	c0.826,0,1.602-0.258,2.326-0.775c0.724-0.516,1.086-1.158,1.086-1.928c0-1.092-0.871-2.022-2.614-2.791
	c-2.925-1.299-4.563-2.066-4.919-2.304c-1.801-1.271-2.702-2.998-2.702-5.185c0-2.186,0.737-3.906,2.216-5.162
	c1.477-1.255,3.278-1.883,5.405-1.883c1.122,0,2.26,0.185,3.411,0.554c1.152,0.37,2.156,0.88,3.014,1.528l-1.063,3.899h-1.241
	c-0.177-1.004-0.672-1.875-1.484-2.614c-0.813-0.737-1.721-1.107-2.725-1.107c-0.886,0-1.654,0.215-2.304,0.643
	c-0.65,0.429-0.976,1.071-0.976,1.928c0,1.093,0.901,2.009,2.703,2.747c2.865,1.151,4.534,1.891,5.008,2.215
	c1.801,1.241,2.702,3.043,2.702,5.405c0,2.099-0.761,3.805-2.282,5.118c-1.521,1.315-3.611,1.972-6.27,1.972
	c-2.304,0-4.342-0.605-6.114-1.816L177.4,61.734z"/>
<path d="M198.58,37.763c0-0.915,0.338-1.728,1.019-2.437c0.679-0.709,1.491-1.063,2.437-1.063s1.772,0.34,2.481,1.02
	s1.063,1.506,1.063,2.48c0,0.946-0.348,1.766-1.041,2.459c-0.695,0.695-1.529,1.042-2.504,1.042s-1.795-0.347-2.459-1.042
	C198.912,39.528,198.58,38.709,198.58,37.763z M199.022,67.361v-21.49c0.502,0.06,1.07,0.111,1.706,0.155
	c0.635,0.045,1.086,0.066,1.352,0.066c0.648,0,1.24-0.029,1.771-0.089c0.532-0.059,0.96-0.103,1.285-0.133v21.49
	c-0.502-0.06-0.871-0.089-1.107-0.089c-1.034-0.089-1.684-0.133-1.949-0.133c-0.65,0-1.24,0.029-1.772,0.089
	C199.775,67.287,199.348,67.332,199.022,67.361z"/>
<path fill="#231815" d="M174.151,42.639c-8.43-1.09-9.029-7.347-14.699-7.347c-5.669,0-11.339,4.101-11.339,4.101
	s8.119-2.185,10.604-0.428C161.936,41.24,174.151,42.639,174.151,42.639z"/>
</svg>
