<?xml version="1.0" encoding="utf-8"?>
<!-- Generator: Adobe Illustrator 26.0.0, SVG Export Plug-In . SVG Version: 6.00 Build 0)  -->
<svg version="1.1" id="圖層_1" xmlns="http://www.w3.org/2000/svg" xmlns:xlink="http://www.w3.org/1999/xlink" x="0px" y="0px"
	 viewBox="0 0 284.5 87.5" style="enable-background:new 0 0 284.5 87.5;" xml:space="preserve">
<style type="text/css">
	.st0{fill:#231815;}
	
		.st1{clip-path:url(#SVGID_00000002370657872149733330000011117188766582810286_);fill:none;stroke:#000000;stroke-width:0.5;stroke-linecap:round;stroke-linejoin:round;stroke-miterlimit:10;}
	.st2{clip-path:url(#SVGID_00000095314781927326152460000012634915056710652571_);}
</style>
<path d="M30.7,53.5c2.5,3,4.6,6.2,6.3,9.5c3.2-7.1,7.8-13.6,13.8-18.8c4.1-3.6,8.7-6.5,13.6-8.7L48.7,25c-3-2-7.1-1.3-9.3,1.6
	L17.7,42.1C22.5,45.1,26.9,49,30.7,53.5z"/>
<path d="M38.3,85.6c-1.7,0-3.4,0-5.1-0.1c0.2-14.8,6.4-29,17.3-39c9.6-8.9,22.1-14,35.1-14.4c1.7,0,3.4,0,5.1,0.1
	c-0.2,14.8-6.4,29-17.3,39C63.9,80.1,51.4,85.2,38.3,85.6L38.3,85.6z"/>
<path d="M36.2,64.6c-1.7-3.3-3.9-6.5-6.3-9.5c-7.2-8.6-16.7-14.8-26.2-17c0.4,9.7,4.7,20.2,11.8,28.9c4.7,5.6,10.4,10.2,16.4,13.3
	C32.6,74.8,34,69.5,36.2,64.6z"/>
<path d="M197.9,36.2h-0.9c-0.6-1.6-1.4-2.8-2.5-3.7c-1.1-0.9-2.5-1.3-4.1-1.3c-2.2,0-3.7,0.5-4.8,1.5c-1,1-1.6,2.4-1.6,4.1
	c0,2.1,1.5,3.9,4.5,5.6c5.5,3,8.3,4.6,8.5,4.7c3,2.4,4.6,5.5,4.6,9.2c0,3.7-1.4,6.7-4.3,9.1c-2.8,2.4-6.5,3.6-11,3.6
	c-1.7,0-3.3-0.2-4.9-0.6c-1.6-0.4-3-1-4.4-1.9c0.5-1.6,0.8-2.9,1-3.9c0.2-1,0.4-2.1,0.6-3.4h1.1c0.4,2,1.3,3.5,2.8,4.6
	c1.4,1.1,3.2,1.7,5.2,1.7c1.9,0,3.5-0.5,4.8-1.6c1.3-1,1.9-2.5,1.9-4.4c0-2.5-1.5-4.5-4.4-6.1c-2.8-1.5-5.5-2.9-8.2-4.4
	c-3-2.3-4.5-5.4-4.5-9.3c0-3.5,1.1-6.3,3.3-8.5c2.4-2.4,5.7-3.6,10-3.6c1.9,0,3.7,0.3,5.5,0.9c1.7,0.6,2.9,1.2,3.7,1.9
	c-0.4,1.1-0.8,2-1,2.8C198.4,34.6,198.1,35.6,197.9,36.2z"/>
<path d="M236.4,40.4v28c-0.8-0.1-1.6-0.1-2.2-0.2c-0.6-0.1-1.2-0.1-1.6-0.1c-0.9,0-1.6,0-2.3,0.1c-0.6,0.1-1.2,0.1-1.6,0.2v-4.2
	c-1.6,1.7-2.9,2.9-3.9,3.5c-1.4,0.8-3,1.3-4.9,1.3c-1.6,0-3.1-0.3-4.4-0.8c-1.3-0.6-2.4-1.5-3.3-2.7c-0.6-0.8-1-1.8-1.2-2.9
	c-0.2-1.2-0.3-2.4-0.3-3.7v-2.3v-16c0.7,0.1,1.4,0.1,2.2,0.2c0.8,0.1,1.4,0.1,1.8,0.1c0.8,0,1.6,0,2.3-0.1c0.7-0.1,1.2-0.1,1.7-0.2
	v15.9c0,1.2,0,2.2,0.1,2.9c0.1,0.7,0.2,1.3,0.5,1.9c0.4,1,0.9,1.7,1.6,2.2c0.7,0.5,1.5,0.8,2.5,0.8c2.2,0,3.7-1,4.4-2.9
	c0.4-1.2,0.6-3.1,0.6-5.7V40.4c0.7,0.1,1.4,0.1,2.2,0.2c0.8,0.1,1.4,0.1,1.8,0.1c0.8,0,1.6,0,2.3-0.1
	C235.4,40.5,236,40.4,236.4,40.4z"/>
<path d="M246.9,61h1.4c0.5,1.5,1.4,2.7,2.5,3.6c1.2,0.9,2.5,1.3,4,1.3c1.1,0,2.1-0.3,3-1c0.9-0.7,1.4-1.5,1.4-2.5
	c0-1.4-1.1-2.6-3.4-3.6c-3.8-1.7-5.9-2.7-6.4-3c-2.3-1.7-3.5-3.9-3.5-6.8c0-2.8,1-5.1,2.9-6.7c1.9-1.6,4.3-2.5,7-2.5
	c1.5,0,2.9,0.2,4.4,0.7c1.5,0.5,2.8,1.1,3.9,2l-1.4,5.1h-1.6c-0.2-1.3-0.9-2.4-1.9-3.4c-1.1-1-2.2-1.4-3.5-1.4c-1.2,0-2.2,0.3-3,0.8
	c-0.8,0.6-1.3,1.4-1.3,2.5c0,1.4,1.2,2.6,3.5,3.6c3.7,1.5,5.9,2.5,6.5,2.9c2.3,1.6,3.5,4,3.5,7c0,2.7-1,5-3,6.7
	c-2,1.7-4.7,2.6-8.2,2.6c-3,0-5.7-0.8-8-2.4L246.9,61z"/>
<path d="M274.4,29.8c0-1.2,0.4-2.2,1.3-3.2c0.9-0.9,1.9-1.4,3.2-1.4s2.3,0.4,3.2,1.3c0.9,0.9,1.4,2,1.4,3.2c0,1.2-0.5,2.3-1.4,3.2
	c-0.9,0.9-2,1.4-3.3,1.4c-1.3,0-2.3-0.5-3.2-1.4C274.9,32.1,274.4,31.1,274.4,29.8z M275,68.4v-28c0.7,0.1,1.4,0.1,2.2,0.2
	c0.8,0.1,1.4,0.1,1.8,0.1c0.8,0,1.6,0,2.3-0.1c0.7-0.1,1.2-0.1,1.7-0.2v28c-0.7-0.1-1.1-0.1-1.4-0.1c-1.3-0.1-2.2-0.2-2.5-0.2
	c-0.8,0-1.6,0-2.3,0.1C276,68.3,275.4,68.3,275,68.4z"/>
<path class="st0" d="M242.6,36.2c-11-1.4-11.8-9.6-19.1-9.6s-14.8,5.3-14.8,5.3s10.6-2.8,13.8-0.6C226.7,34.3,242.6,36.2,242.6,36.2
	z"/>
<g>
	<defs>
		<path id="SVGID_1_" d="M91.5,30.8c-1.7-0.2-3.4-0.2-5.1-0.2c-7.6,0-15.1,1.6-22,4.7L48.7,24.7c-3-2-7.1-1.3-9.3,1.6L17.7,41.8
			c-4.2-2.6-8.7-4.6-13.2-5.6c0,0,6-32.4,15.4-35.7s31.6-4,36.4-3.1s20.9,11,22.6,13.7S89.5,24.1,90,25.7S91.5,30.8,91.5,30.8z"/>
	</defs>
	<clipPath id="SVGID_00000008843904065778386370000017835808430865780375_">
		<use xlink:href="#SVGID_1_"  style="overflow:visible;"/>
	</clipPath>
	
		<line style="clip-path:url(#SVGID_00000008843904065778386370000017835808430865780375_);fill:none;stroke:#000000;stroke-width:0.5;stroke-linecap:round;stroke-linejoin:round;stroke-miterlimit:10;" x1="10.8" y1="34.3" x2="74.7" y2="29.8"/>
	
		<line style="clip-path:url(#SVGID_00000008843904065778386370000017835808430865780375_);fill:none;stroke:#000000;stroke-width:0.5;stroke-linecap:round;stroke-linejoin:round;stroke-miterlimit:10;" x1="13.6" y1="45.4" x2="72.1" y2="19.4"/>
	
		<line style="clip-path:url(#SVGID_00000008843904065778386370000017835808430865780375_);fill:none;stroke:#000000;stroke-width:0.5;stroke-linecap:round;stroke-linejoin:round;stroke-miterlimit:10;" x1="20" y1="54.9" x2="66.1" y2="10.5"/>
	
		<line style="clip-path:url(#SVGID_00000008843904065778386370000017835808430865780375_);fill:none;stroke:#000000;stroke-width:0.5;stroke-linecap:round;stroke-linejoin:round;stroke-miterlimit:10;" x1="29.3" y1="61.6" x2="57.3" y2="4.1"/>
	
		<line style="clip-path:url(#SVGID_00000008843904065778386370000017835808430865780375_);fill:none;stroke:#000000;stroke-width:0.5;stroke-linecap:round;stroke-linejoin:round;stroke-miterlimit:10;" x1="40.3" y1="64.8" x2="47" y2="1.1"/>
	
		<line style="clip-path:url(#SVGID_00000008843904065778386370000017835808430865780375_);fill:none;stroke:#000000;stroke-width:0.5;stroke-linecap:round;stroke-linejoin:round;stroke-miterlimit:10;" x1="51.7" y1="64" x2="36.3" y2="1.9"/>
	
		<line style="clip-path:url(#SVGID_00000008843904065778386370000017835808430865780375_);fill:none;stroke:#000000;stroke-width:0.5;stroke-linecap:round;stroke-linejoin:round;stroke-miterlimit:10;" x1="62.2" y1="59.3" x2="26.4" y2="6.3"/>
	
		<line style="clip-path:url(#SVGID_00000008843904065778386370000017835808430865780375_);fill:none;stroke:#000000;stroke-width:0.5;stroke-linecap:round;stroke-linejoin:round;stroke-miterlimit:10;" x1="70.4" y1="51.4" x2="18.7" y2="13.7"/>
	
		<line style="clip-path:url(#SVGID_00000008843904065778386370000017835808430865780375_);fill:none;stroke:#000000;stroke-width:0.5;stroke-linecap:round;stroke-linejoin:round;stroke-miterlimit:10;" x1="75.5" y1="41.1" x2="13.9" y2="23.4"/>
</g>
<g>
	<defs>
		<path id="SVGID_00000055707326656792512840000002896011375862354821_" d="M91.5,30.8c-1.7-0.2-3.4-0.2-5.1-0.2
			c-7.6,0-15.1,1.6-22,4.7L48.7,24.7c-3-2-7.1-1.3-9.3,1.6L17.7,41.8c-4.2-2.6-8.7-4.6-13.2-5.6c0,0,6-32.4,15.4-35.7
			s31.6-4,36.4-3.1s20.9,11,22.6,13.7S89.5,24.1,90,25.7S91.5,30.8,91.5,30.8z"/>
	</defs>
	<clipPath id="SVGID_00000089543879982059274260000004023707503875869630_">
		<use xlink:href="#SVGID_00000055707326656792512840000002896011375862354821_"  style="overflow:visible;"/>
	</clipPath>
	<path style="clip-path:url(#SVGID_00000089543879982059274260000004023707503875869630_);" d="M45.3,7.4
		c19.4,0,35.1,15.8,35.1,35.1S64.7,77.7,45.3,77.7S10.2,61.9,10.2,42.5S25.9,7.4,45.3,7.4 M45.3,6.5c-19.9,0-36,16.1-36,36
		s16.1,36,36,36s36-16.1,36-36S65.2,6.5,45.3,6.5"/>
</g>
</svg>
